<?xml version="1.0" encoding="utf-8"?>
<svg width="20px" height="20px" viewBox="0 0 20 20" version="1.1" xmlns:xlink="http://www.w3.org/1999/xlink" xmlns="http://www.w3.org/2000/svg">
  <desc>Created with Lunacy</desc>
  <path d="M19.9155 5.8715C19.9496 4.31854 19.3713 2.81451 18.3055 1.6845C17.1731 0.620115 15.6693 0.0408518 14.1155 0.0704997C12.4655 -0.0235 7.5215 -0.0235 5.8715 0.0705001C4.31912 0.0397065 2.81632 0.617571 1.6845 1.6805C0.620322 2.8098 0.040922 4.31107 0.0704992 5.8625C-0.0234999 7.5125 -0.0234999 12.4565 0.0705001 14.1065C0.0374468 15.66 0.617241 17.1641 1.68449 18.2935C2.8166 19.3564 4.31886 19.9355 5.8715 19.9075C7.5215 20.0015 12.4655 20.0015 14.1155 19.9075C15.6695 19.9424 17.1747 19.364 18.3055 18.2975C19.3692 17.1659 19.9484 15.6633 19.9195 14.1105C20.0135 12.4605 20.0135 7.5205 19.9195 5.8705L19.9155 5.8715ZM15.8845 17.7819C16.7537 17.4392 17.4417 16.7511 17.7845 15.8819L17.7845 15.8809C18.231 14.7573 18.206 12.3017 18.1897 10.7073C18.187 10.4416 18.1845 10.1997 18.1845 9.99193C18.1845 9.78329 18.187 9.54032 18.1898 9.27329C18.2062 7.67942 18.2316 5.22823 17.7845 4.10193C17.4417 3.23271 16.7537 2.54467 15.8845 2.20193C14.7569 1.7581 12.2872 1.78184 10.6931 1.79717C10.4339 1.79966 10.1979 1.80193 9.99449 1.80193C9.78585 1.80193 9.54288 1.79942 9.27585 1.79666C7.68198 1.78018 5.2308 1.75483 4.10449 2.20193C3.23528 2.54467 2.54724 3.23271 2.20449 4.10193C1.76067 5.22956 1.78441 7.69924 1.79973 9.29329C1.80222 9.5525 1.80449 9.78856 1.80449 9.99193C1.80449 10.2006 1.80198 10.4435 1.79922 10.7106C1.78274 12.3044 1.7574 14.7556 2.20449 15.8819C2.54724 16.7511 3.23528 17.4392 4.10449 17.7819C5.23213 18.2258 7.7018 18.202 9.29585 18.1867C9.55507 18.1842 9.79112 18.1819 9.99449 18.1819C10.2031 18.1819 10.4461 18.1844 10.7131 18.1872C12.307 18.2037 14.7582 18.229 15.8845 17.7819ZM15.3241 5.85289C15.9835 5.85472 16.5197 5.3222 16.5224 4.66289C16.5246 4.34485 16.3995 4.03914 16.1751 3.81378C15.9507 3.58841 15.6455 3.46208 15.3274 3.46289C14.6681 3.46291 14.1334 3.99692 14.1324 4.65625C14.1315 5.31558 14.6648 5.85106 15.3241 5.85289ZM4.87244 9.99068C4.87244 7.16136 7.16602 4.86774 9.99533 4.86768C11.3547 4.86553 12.659 5.40456 13.6202 6.36575C14.5814 7.32694 15.1205 8.63122 15.1184 9.99068C15.1184 12.82 12.8248 15.1137 9.99544 15.1137C7.16608 15.1137 4.87244 12.82 4.87244 9.99068ZM9.99555 13.3217C8.15589 13.3217 6.66455 11.8303 6.66455 9.99067C6.66455 8.15101 8.15589 6.65967 9.99555 6.65967C11.8352 6.65967 13.3266 8.15101 13.3266 9.99067C13.3233 11.8288 11.834 13.3183 9.99567 13.3217L9.99555 13.3217Z" id="Icon_awesome-instagram" fill="#6C63FF" fill-rule="evenodd" stroke="none" />
</svg>