<?xml version="1.0" encoding="utf-8"?>
<svg width="19px" height="19px" viewBox="0 0 19 19" version="1.1" xmlns:xlink="http://www.w3.org/1999/xlink" xmlns="http://www.w3.org/2000/svg">
  <desc>Created with Lunacy</desc>
  <path d="M17.0158 7.95L17.9428 8.877C18.1309 9.06461 18.2366 9.31935 18.2366 9.585C18.2366 9.85066 18.1309 10.1054 17.9428 10.293L9.82779 18.412C9.64018 18.6001 9.38544 18.7058 9.11979 18.7058C8.85413 18.7058 8.59939 18.6001 8.41179 18.412L0.293788 10.293C0.105704 10.1054 5.96046e-08 9.85066 0 9.585C0 9.31935 0.105704 9.06461 0.293788 8.877L1.22079 7.95C1.41132 7.75886 1.67102 7.65285 1.94088 7.65606C2.21074 7.65926 2.46784 7.7714 2.65379 7.967L7.44779 13L7.44779 1C7.44779 0.447715 7.8955 -2.38419e-07 8.44779 0L9.78379 0C10.3361 0 10.7838 0.447715 10.7838 1L10.7838 13L15.5778 7.967C15.7637 7.7714 16.0208 7.65926 16.2907 7.65606C16.5606 7.65285 16.8203 7.75886 17.0108 7.95L17.0158 7.95Z" id="Icon_awesome-arrow-down" fill="#FFFFFF" stroke="none" />
</svg>