<?xml version="1.0" encoding="utf-8"?>
<svg width="28px" height="23px" viewBox="0 0 28 23" version="1.1" xmlns:xlink="http://www.w3.org/1999/xlink" xmlns="http://www.w3.org/2000/svg">
  <desc>Created with Lunacy</desc>
  <path d="M24.989 5.63436C25.007 5.88136 25.007 6.12936 25.007 6.37636C25.007 13.9234 19.263 22.6164 8.766 22.6164C5.65831 22.6249 2.6143 21.7356 9.53674e-07 20.0554C0.457561 20.1059 0.917683 20.1296 1.37801 20.1264C3.9473 20.1328 6.44387 19.2736 8.465 17.6874C6.02306 17.6429 3.87892 16.0524 3.128 13.7284C3.48462 13.7847 3.84497 13.8141 4.206 13.8164C4.71216 13.8148 5.21611 13.7497 5.706 13.6224C3.04171 13.0834 1.12693 10.7406 1.129 8.02236L1.129 7.95136C1.91988 8.3929 2.80389 8.64131 3.709 8.67636C1.1935 6.99811 0.419987 3.65119 1.944 1.03936C4.84298 4.60969 9.1209 6.78209 13.714 7.01636C13.6225 6.58631 13.5753 6.14803 13.573 5.70836C13.5753 3.36597 15.0073 1.26204 17.1858 0.400576C19.3643 -0.460891 21.8479 0.0946512 23.4518 1.80216C24.7304 1.55361 25.956 1.0847 27.074 0.41636C26.6483 1.73565 25.7558 2.85427 24.564 3.56236C25.6976 3.43321 26.8055 3.13525 27.851 2.67836C27.0694 3.81605 26.1015 4.81372 24.988 5.62937L24.989 5.63436Z" id="Icon_awesome-twitter" fill="#6C63FF" stroke="none" />
</svg>