<?xml version="1.0" encoding="utf-8"?>
<svg width="25px" height="25px" viewBox="0 0 25 25" version="1.1" xmlns:xlink="http://www.w3.org/1999/xlink" xmlns="http://www.w3.org/2000/svg">
  <desc>Created with Lunacy</desc>
  <path d="M2.95392 5.87997C1.33025 5.88765 0.00775964 4.57766 3.3997e-05 2.95399C-0.00769172 1.3303 1.3023 0.00777198 2.92599 3.4102e-05C4.54968 -0.00770353 5.87222 1.30228 5.87997 2.92597C5.88165 4.54726 4.57511 5.86626 2.95392 5.87997ZM19.3509 24.3702L24.3929 24.3702L24.3989 24.3712L24.3989 15.4332C24.3989 11.0592 23.4589 7.69215 18.3459 7.69215C16.3899 7.61947 14.5525 8.62906 13.5649 10.3192L13.4939 10.3192L13.4939 8.09915L8.64795 8.09915L8.64795 24.3692L13.6949 24.3692L13.6949 16.3132C13.6949 14.1922 14.0969 12.1412 16.7239 12.1412C19.3129 12.1412 19.3509 14.5612 19.3509 16.4492L19.3509 24.3702ZM0.427979 24.3701L5.48298 24.3701L5.48298 8.09912L0.427979 8.09912L0.427979 24.3701Z" id="Icon_awesome-linkedin-in" fill="#6C63FF" fill-rule="evenodd" stroke="none" />
</svg>