<?xml version="1.0" encoding="utf-8"?>
<svg width="1008px" height="888px" viewBox="0 0 1008 888" version="1.1" xmlns:xlink="http://www.w3.org/1999/xlink" xmlns="http://www.w3.org/2000/svg">
  <desc>Created with Lunacy</desc>
  <defs>
    <path d="M0 0L283.1 0L283.1 138.687L0 138.687L0 0Z" id="path_1" />
    <clipPath id="mask_1">
      <use xlink:href="#path_1" />
    </clipPath>
  </defs>
  <g id="image-3">
    <path d="M1.54029 0.00439911C1.70829 -0.0886009 2.75529 1.2944 4.30029 4.0164C6.4423 7.89174 8.21415 11.9604 9.59231 16.1684C13.2773 26.7684 15.5923 42.4124 14.2203 59.4744C12.8483 76.5364 8.9203 91.5104 5.87329 102.174C2.76029 112.834 0.468284 119.304 0.0732837 119.198C-0.362717 119.078 1.18329 112.38 3.73829 101.611C6.22729 90.8454 9.7783 75.9484 11.1093 59.2384C12.4403 42.5284 10.5443 27.3274 7.4853 16.8154C4.51529 6.2504 1.05029 0.263399 1.54029 0.00439911" transform="translate(801.685 768.4211)" id="Fill_1" fill="#FFFFFF" stroke="none" />
    <path d="M0.0271118 0.00220555C0.222112 -0.0817944 1.48911 2.23621 3.60011 6.5112C5.71111 10.7862 8.68012 17.0162 12.1901 24.7902C19.1581 40.3392 28.5311 62.1022 35.3301 87.3712C38.5195 99.2484 40.783 111.355 42.1001 123.582C43.1769 133.574 43.411 143.639 42.8001 153.67C42.406 160.427 41.5089 167.146 40.1161 173.77C39.0871 178.449 38.2721 180.97 38.0881 180.929C37.5111 180.818 40.0571 170.517 40.5971 153.57C41.2691 136.657 39.0481 113.161 32.3111 88.1772C25.5931 63.1822 16.6001 41.4022 10.1681 25.6652C6.92812 17.7892 4.30711 11.4132 2.49311 7.0022C0.722112 2.58121 -0.170888 0.0932055 0.0271118 0.00220555" transform="translate(813.7111 683.0435)" id="Fill_3" fill="#FFFFFF" stroke="none" />
    <path d="M27.0134 0.0138395C27.3744 0.401839 23.8364 3.77584 19.2454 10.0398C18.1054 11.6128 16.8684 13.3338 15.7104 15.3008C14.4434 17.1948 13.3424 19.3668 12.1154 21.6108C9.63134 26.5649 7.58586 31.7269 6.00243 37.0378C4.51834 42.3773 3.5048 47.8365 2.97345 53.3528C2.82144 55.9028 2.59844 58.3298 2.66244 60.6048C2.59844 62.8868 2.73044 65.0048 2.86244 66.9438C3.41844 74.6878 4.62244 79.4268 4.10944 79.5648C3.79844 79.6718 1.81844 75.0948 0.669443 67.1648C0.345139 65.0086 0.148796 62.8352 0.0814401 60.6558C-0.0363691 58.1513 -0.0263593 55.6424 0.111443 53.1389C0.493599 47.3987 1.46538 41.7131 3.01143 36.1719C4.64696 30.6576 6.84694 25.3267 9.57643 20.2639C10.7881 18.0689 12.1135 15.9386 13.5474 13.8819C14.7627 12.0712 16.085 10.3348 17.5074 8.68184C22.6964 2.58184 26.8074 -0.239159 27.0124 0.0158401" transform="translate(397.6508 615.4487)" id="Fill_5" fill="#FFFFFF" stroke="none" />
    <path d="M16.5471 0.0632441C16.8081 0.481244 14.8371 1.98824 12.2621 4.87224C10.7653 6.55482 9.41751 8.36431 8.23404 10.2803C6.82476 12.633 5.64949 15.1182 4.72507 17.7002C3.85901 20.304 3.2524 22.9871 2.91406 25.7102C2.66297 27.9481 2.60843 30.2038 2.75105 32.4512C3.00105 36.3062 3.62505 38.7112 3.16005 38.8792C2.82605 39.0202 1.42305 36.8202 0.560054 32.7442C0.0818624 30.35 -0.0911838 27.9049 0.0450524 25.4672C0.240869 22.4776 0.821683 19.5259 1.77311 16.6851C2.77678 13.86 4.14069 11.1762 5.83108 8.7002C7.22494 6.69703 8.86776 4.87915 10.72 3.29025C13.9081 0.610244 16.3701 -0.256756 16.5471 0.0632441" transform="translate(416.4213 642.7354)" id="Fill_7" fill="#FFFFFF" stroke="none" />
    <path d="M0.0247845 0.00986935C0.185784 -0.131131 1.58178 1.24287 3.97778 3.86287C5.45751 5.43436 6.85152 7.08441 8.15377 8.80585C9.69079 10.8059 11.5398 13.0179 13.2738 15.6809C14.1685 16.9955 15.1055 18.3705 16.0848 19.8059C17.0518 21.2499 17.9288 22.8299 18.9048 24.4259C20.9048 27.5959 22.6948 31.1739 24.6428 34.9059C28.6479 43.1203 31.9919 51.641 34.6428 60.3869C37.1709 69.1691 38.9957 78.1388 40.0998 87.2108C40.4928 91.4049 40.9328 95.3819 40.9788 99.1259C41.0268 100.997 41.1488 102.8 41.1218 104.539C41.0948 106.278 41.0428 107.939 41.0058 109.527C40.9968 112.71 40.6488 115.571 40.4448 118.084C40.2867 120.235 40.0129 122.376 39.6248 124.498C39.0388 127.998 38.6148 129.913 38.4008 129.883C37.8508 129.81 38.8868 122.048 38.8008 109.504C38.7715 107.935 38.7428 106.295 38.7148 104.584C38.6788 102.874 38.4968 101.099 38.3948 99.2619C38.2408 95.5819 37.7088 91.6789 37.2478 87.5619C35.9978 78.6772 34.1266 69.8911 31.6478 61.2681C29.0416 52.6816 25.8368 44.2883 22.0568 36.15C20.2108 32.4499 18.5328 28.8849 16.6638 25.7109C15.7488 24.1109 14.9358 22.5259 14.0388 21.0699C13.1418 19.6139 12.2658 18.2249 11.4388 16.8949C4.69078 6.32187 -0.400216 0.370869 0.0247845 0.00986935" transform="translate(317.6735 360.0698)" id="Fill_9" fill="#FFFFFF" stroke="none" />
    <path d="M0.0339363 0.0116625C0.299936 -0.224338 3.88294 3.12666 8.43994 9.58566C11.0889 13.3833 13.4488 17.3746 15.5 21.5258C17.9844 26.6312 20.0576 31.9266 21.6999 37.3617C23.2743 42.8185 24.4113 48.3921 25.0999 54.0296C25.6331 58.6295 25.8199 63.2629 25.6589 67.8907C25.3429 75.7907 24.1589 80.5487 23.8059 80.4907C23.3059 80.4297 23.7059 75.6097 23.4519 67.8857C23.2986 63.3726 22.898 58.8713 22.252 54.4019C21.4184 48.9463 20.2359 43.5498 18.7119 38.2455C17.1094 32.9641 15.1694 27.7911 12.9039 22.7585C11.0182 18.6548 8.90938 14.6575 6.58678 10.7844C2.59994 4.16366 -0.352064 0.335662 0.0339363 0.0116625" transform="translate(352.9924 374.683)" id="Fill_11" fill="#FFFFFF" stroke="none" />
    <path d="M78.321 5.544L75.606 0L0 57.76L32.984 111.188L108.244 47.74L78.321 5.544Z" transform="translate(150.9995 624.4097)" id="Fill_13" fill="#B57AD2" stroke="none" />
    <path d="M0 0L28.977 50.1L30.83 49.274L5.025 2.429L0 0Z" transform="translate(154.1674 683.4045)" id="Fill_15" fill="#D7D4D4" stroke="none" />
    <path d="M73.66 0L0 54.547C0.387071 55.4706 1.1736 56.1677 2.137 56.441C3.03929 56.8597 4.03245 57.0447 5.025 56.979L82.465 3.985C82.465 3.985 78 2.947 76.382 1.739C75.5278 1.0801 74.6169 0.498162 73.66 1.90735e-06" transform="translate(154.1674 628.8567)" id="Fill_17" fill="#B57AD2" stroke="none" />
    <path d="M80.717 2.76566e-05L0 53.907L26.215 103.584L30.439 110.463L111.158 50.73C111.158 50.73 102.658 38.043 97.552 30.382C92.446 22.721 82.427 4.65703 81.882 3.50003C81.4161 2.36064 81.0269 1.19135 80.717 0" transform="translate(157.8093 630.7026)" id="Fill_19" fill="#B57AD2" stroke="none" />
    <path d="M25.128 4.657L27.407 0L90.9 48.5L63.2 93.37L0 40.089L25.128 4.657Z" transform="translate(879.0473 253.8817)" id="Fill_21" fill="#775298" stroke="none" />
    <path d="M25.888 0L1.558 42.074L0 41.381L21.669 2.041L25.888 0Z" transform="translate(941.3954 303.4217)" id="Fill_23" fill="#D7D4D4" stroke="none" />
    <path d="M7.4 0L69.25 45.806C68.9252 46.5823 68.2651 47.1688 67.456 47.4C66.6977 47.7517 65.8631 47.9072 65.029 47.852L0 3.347C0 3.347 3.749 2.477 5.109 1.46C5.8279 0.90642 6.59459 0.417831 7.4 9.53675e-07" transform="translate(898.0344 257.6147)" id="Fill_25" fill="#F5F3F3" stroke="none" />
    <path d="M25.564 0L93.344 45.266L71.332 86.983L67.785 92.759L0 42.6C0 42.6 7.141 31.943 11.426 25.511C15.711 19.079 24.126 3.911 24.585 2.936C24.9763 1.98021 25.3034 0.999361 25.564 9.53674e-07" transform="translate(870.8813 259.1677)" id="Fill_27" fill="#B57AD2" stroke="none" />
    <path d="M3.02512 0C0.231319 2.00923 -0.770449 5.70241 0.625121 8.848C3.02512 14.379 13.5321 30.785 27.7251 30.231C28.3121 30.211 9.84712 0 9.84712 0L3.02512 0Z" transform="translate(136.0312 171.2387)" id="Fill_29" fill="#FF7B5B" stroke="none" />
    <path d="M68.6153 13.3568C68.6153 13.3568 50.8633 -2.50023 45.1793 0.340765C38.2353 3.81176 -1.50869 42.7478 0.0443066 61.0907C0.682307 68.5997 9.42931 62.1668 25.0153 45.9998C40.6013 29.8328 60.2363 36.7638 60.2363 36.7638L68.6153 13.3568Z" transform="translate(48.72406 460.3359)" id="Fill_31" fill="#B57AD2" stroke="none" />
    <path d="M69.2233 12.855L47.7923 0C47.7923 0 -7.75769 52.073 0.920315 59.016C7.50331 64.281 11.3723 59.559 26.9603 43.393C42.5483 27.227 62.3003 36.525 62.3003 36.525L69.2233 12.855Z" transform="translate(91.24701 487.5786)" id="Fill_33" fill="#B57AD2" stroke="none" />
    <path d="M85.192 0L89.211 57.061L0 33.823L85.192 0Z" transform="translate(206.1904 329.1177)" id="Fill_35" fill="#F3A683" stroke="none" />
    <path d="M11.492 0C11.492 0 89.527 4.918 99.918 1.451C99.918 1.451 115.168 151.251 88.033 167.409C60.898 183.567 0 159.9 0 159.9L16.442 127.573L51.892 125.264L51.892 67.543L49.349 68.12L11.492 0Z" transform="translate(194.6984 364.9036)" id="Fill_37" fill="#112129" stroke="none" />
    <path d="M14.542 102.179C14.542 102.179 -5.08597 110.262 1.26503 129.89C1.26503 129.89 68.265 182.421 100.865 170.297C119.131 163.506 138.752 111.69 152.478 67.421L200.778 1.451C200.778 1.451 177.996 2.591 170.396 2.561C155.88 2.507 112.362 0 112.362 0C112.362 0 89.63 118.921 81.53 121.807C73.43 124.693 14.542 102.179 14.542 102.179" transform="translate(93.83026 364.9036)" id="Fill_39" fill="#22343D" stroke="none" />
    <path d="M0 167.422C0 167.422 46.768 123.548 54.849 112.001C62.93 100.454 80.256 61.7791 101.612 45.6161L91.221 23.6781C91.221 23.6781 97.574 20.2161 101.612 29.4491C101.612 29.4491 116.621 -0.56587 120.086 0.00812905C123.551 0.582128 113.161 23.1011 113.161 23.1011C113.161 23.1011 127.6 2.31813 131.638 2.90113C135.676 3.48413 121.245 26.2641 121.245 26.2641C121.245 26.2641 137.407 7.51513 139.719 9.82413C142.031 12.1331 127.019 26.2601 127.019 26.2601C127.019 26.2601 143.184 16.9811 144.919 20.0391C146.654 23.0971 128.754 31.1821 128.754 31.1821C128.754 31.1821 127.021 44.4601 116.054 50.2311C116.054 50.2311 94.335 108.904 74.704 127.953L11.644 193.483L0 167.422Z" transform="translate(224.3754 48.32855)" id="Fill_41" fill="#FFC6B2" stroke="none" />
    <path d="M168.548 0C168.548 0 124.235 46.349 112.614 54.32C100.993 62.291 62.1504 79.252 45.7873 100.458L23.9454 89.858C23.9454 89.858 20.4234 96.174 29.6224 100.3C29.6224 100.3 -0.53965 115.028 0.00735113 118.5C0.554352 121.972 23.1644 111.789 23.1644 111.789C23.1644 111.789 2.24435 126.029 2.78435 130.073C3.32435 134.117 26.2454 119.9 26.2454 119.9C26.2454 119.9 7.34535 135.886 9.63735 138.216C11.9294 140.546 26.1934 125.674 26.1934 125.674C26.1934 125.674 16.7604 141.749 19.8084 143.508C22.8563 145.267 31.1004 127.451 31.1004 127.451C31.1004 127.451 44.3934 125.851 50.2724 114.932C50.2724 114.932 105.852 92.82 125.09 73.372L194.256 24.372L168.548 0Z" transform="translate(0 238.4897)" id="Fill_43" fill="#FFC6B2" stroke="none" />
    <path d="M22.412 14.946L0 36.883L5.684 61.613C5.684 61.613 27.764 114.613 31.102 127.547C36.291 147.654 27.902 178.312 27.902 178.312C27.902 178.312 65.335 175.204 99.395 174.05C133.455 172.896 144.595 161.924 144.595 161.924C144.595 161.924 115.061 63.581 94.673 36.091C74.285 8.601 66.866 0 66.866 0L36.845 6.562L22.412 14.946Z" transform="translate(162.7495 205.0706)" id="Fill_45" fill="#FFFFFF" stroke="none" />
    <path d="M34.265 49.757L57.617 34.838C57.617 34.838 61.184 18.854 33.023 0L0 20.691L34.265 49.757Z" transform="translate(216.6713 188.1636)" id="Fill_47" fill="#FFFFFF" stroke="none" />
    <path d="M38.806 0.466297C26 2.2623 2.609 34.7003 0 34.6433C0 34.6433 16.465 61.5093 29.508 62.3813C29.508 62.3813 86.908 -6.2787 38.808 0.4663" transform="translate(128.6653 239.7524)" id="Fill_49" fill="#FFFFFF" stroke="none" />
    <path d="M71.2685 72.8057C71.2685 72.8057 52.6595 58.8997 53.3005 53.3617C53.4635 51.9617 56.0435 49.6997 56.7135 47.6877C60.3255 36.8647 42.9295 8.97668 32.2415 3.09968C23.8325 -1.52432 27.5185 -1.93332 9.82247 8.58168C-7.87353 19.0967 2.20847 37.2817 10.1105 46.6817C17.5815 55.5707 26.1375 59.3817 33.8345 60.0207L44.7805 84.3277L71.2685 72.8057Z" transform="translate(141.3959 146.305)" id="Fill_51" fill="#FFC6B2" stroke="none" />
    <path d="M0.940273 26.5418C-2.57873 17.9088 4.08527 7.03581 15.8273 2.24781C27.5693 -2.54019 39.9423 0.571811 43.4693 9.19881C46.9963 17.8258 35.1693 30.7988 28.5693 33.4928C21.9693 36.1868 4.45827 35.1688 0.940273 26.5418" transform="translate(178.1462 211.8659)" id="Fill_53" fill="#FFC6B2" stroke="none" />
    <path d="M6.73271 0.00677858C6.73271 0.00677858 0.699704 -0.327221 0.0277044 3.69378C-0.644296 7.71478 11.0907 7.71678 15.4497 4.69978L6.73271 0.00677858Z" transform="translate(144.7746 192.9799)" id="Fill_55" fill="#FFC6B2" stroke="none" />
    <path d="M24.7007 68.1202C23.5537 60.8522 15.8087 55.4492 16.1947 48.3672C19.9077 48.3972 22.2947 43.7992 20.6017 39.8672C19.9367 38.3232 18.8097 37.0022 18.0907 35.4782C17.3717 33.9542 17.1827 31.9632 18.2837 31.1032C18.8558 30.7482 19.5154 30.5595 20.1887 30.5582C25.6887 29.9932 35.1227 31.6432 40.1887 29.7662C45.0117 27.9792 50.1797 24.5032 49.6777 18.5952C49.2427 13.4532 44.7007 9.28216 40.5257 6.13016C38.1347 4.32316 31.3007 -0.399843 28.7247 0.0271574C24.7897 0.681157 23.8357 5.92716 23.5517 10.3272C20.961 7.93152 16.9725 7.90205 14.3467 10.2592C11.9537 12.3912 10.8207 15.7782 9.77769 19.0482C8.73469 22.3182 7.62769 25.7162 5.26569 27.8892C3.06569 29.9142 -0.415312 31.4472 0.0406887 34.8892C0.583689 38.9892 5.94669 40.4542 8.42669 43.9552C7.81669 43.1002 7.30069 48.5762 7.65069 49.5002C8.70869 52.3002 11.3507 54.1522 13.2597 56.2932C17.3267 60.8572 19.3157 65.4522 24.7037 68.1152" transform="translate(129.8217 128.5535)" id="Fill_57" fill="#FF7B5B" stroke="none" />
    <path d="M13.751 0L0 7.111C0 7.111 16.517 19.1 13.751 0" transform="translate(174.4914 180.0557)" id="Fill_59" fill="#FFFFFF" stroke="none" />
    <path d="M7.92396 1.25558C8.67596 2.68158 7.56296 4.74258 5.43996 5.85559C3.31696 6.96859 0.986958 6.72759 0.234957 5.29858C-0.517044 3.86958 0.595957 1.81658 2.71896 0.698582C4.84196 -0.419419 7.17196 -0.168419 7.91896 1.25758" transform="translate(161.4003 181.6191)" id="Fill_61" fill="#FFB2A0" stroke="none" />
    <path d="M7.92396 1.25431C8.67596 2.68031 7.56296 4.74131 5.43996 5.8543C3.31696 6.9673 0.986958 6.7263 0.234957 5.29731C-0.517044 3.86831 0.595957 1.81231 2.71896 0.69731C4.84196 -0.417689 7.17196 -0.169689 7.91896 1.25631" transform="translate(181.4794 167.9063)" id="Fill_63" fill="#FFB2A0" stroke="none" />
    <path d="M9.09204 11.4841C9.02804 11.4051 9.28504 11.0661 9.88004 10.6371C10.6964 10.1461 11.463 9.57672 12.169 8.9371C12.896 8.17209 13.157 6.57609 12.044 6.35109C10.888 5.95809 9.57604 7.28409 8.07004 8.54409C7.69737 8.85276 7.32871 9.15843 6.96404 9.46109C6.48197 9.92379 5.8316 10.1691 5.16404 10.1401C4.09839 9.90731 3.17156 9.25481 2.59304 8.33009C1.63032 7.09859 0.906538 5.69782 0.459045 4.2001C-0.278961 1.63909 0.0520389 -0.0139118 0.230039 8.82387e-05C0.477039 -0.0109118 0.559039 1.57809 1.50004 3.83009C2.04473 5.13321 2.78675 6.34472 3.70004 7.42209C4.20004 8.03009 4.83304 8.59809 5.28304 8.61609C5.47104 8.62509 5.61904 8.56209 5.97304 8.26409C6.32704 7.96609 6.69704 7.65609 7.06504 7.34709C7.82304 6.73409 8.48004 6.11409 9.34704 5.53709C10.2484 4.88728 11.3957 4.68098 12.467 4.97609C13.5616 5.32473 14.2468 6.40999 14.091 7.54809C13.9735 8.37792 13.5712 9.14111 12.953 9.7071C12.1173 10.3528 11.1751 10.8476 10.169 11.1691C9.51504 11.4161 9.15604 11.5691 9.08804 11.4821" transform="translate(169.5512 168.0676)" id="Fill_65" fill="#FF7B5B" stroke="none" />
    <path d="M0 2.881C0 2.881 8.772 2.931 13.531 0C10.3334 3.39488 6.06943 5.59213 1.449 6.226L0 2.881Z" transform="translate(175.2314 203.4446)" id="Fill_67" fill="#FFA192" stroke="none" />
    <path d="M5.33965 0.642568C5.26065 1.07657 4.03365 1.21057 2.73965 1.78257C1.42265 2.31357 0.472653 3.09757 0.102653 2.85657C-0.267346 2.65857 0.352653 1.09257 2.12865 0.345568C3.90465 -0.401433 5.45565 0.234568 5.33965 0.645568" transform="translate(173.6967 166.3501)" id="Fill_69" fill="#22343D" stroke="none" />
    <path d="M0.0978499 4.73127C-0.23415 4.48627 0.28585 3.07427 1.54885 1.65927C2.82485 0.215275 4.45786 -0.266725 4.62986 0.137275C4.80186 0.541275 3.81685 1.44527 2.69785 2.71427C1.55985 3.97927 0.45385 5.00027 0.0978499 4.73127" transform="translate(161.7495 173.5364)" id="Fill_71" fill="#22343D" stroke="none" />
    <path d="M0.582199 8.18795C-0.128801 7.66095 -0.6828 5.40695 2.0382 2.36896C4.7832 -0.737044 7.8512 -0.190044 8.2182 0.672956C8.6182 1.51996 7.5912 2.72495 5.1822 5.45695C2.7372 8.17895 1.3522 8.76495 0.582199 8.18795" transform="translate(154.5991 167.9007)" id="Fill_73" fill="#FF7B5B" stroke="none" />
    <path d="M0.118822 4.99094C-0.274178 4.25494 0.159822 2.11394 3.69982 0.621939C7.28482 -0.919062 9.67582 0.780939 9.64182 1.66394C9.63482 2.54294 8.28382 3.15794 5.13182 4.51594C1.95782 5.84894 0.542822 5.79194 0.118822 4.99094" transform="translate(169.5036 159.1318)" id="Fill_75" fill="#FF7B5B" stroke="none" />
    <path d="M91.7074 0.0321213C91.9394 0.261121 88.1284 4.54812 80.2224 9.21612C69.816 15.2517 58.0229 18.4872 45.9934 18.6071C33.9634 18.6646 22.1239 15.6035 11.6294 9.72212C3.65642 5.17212 -0.217576 0.940121 0.00942378 0.706121C0.339424 0.291121 4.67142 3.86012 12.6554 7.76812C23.0239 12.8545 34.4206 15.4955 45.9694 15.4881C57.5182 15.325 68.8758 12.5164 79.1694 7.27811C87.0914 3.25212 91.3744 -0.380879 91.7074 0.0321213" transform="translate(832.498 185.3865)" id="Fill_77" fill="#775298" stroke="none" />
    <path d="M79.8404 14.6677C79.6244 15.1427 75.4054 13.3917 68.2984 11.8067C64.1281 10.8977 59.9136 10.2052 55.6717 9.73172C50.8714 9.20068 45.5554 8.77768 39.9464 8.37868C34.3374 7.97968 28.9654 7.53368 24.0874 6.92968C19.7508 6.40705 15.4521 5.60776 11.2175 4.53669C3.96942 2.64568 -0.135581 0.40668 0.00341926 0.0916801C0.191419 -0.38532 4.50842 1.09168 11.6864 2.38068C15.2674 3.06368 19.5864 3.59268 24.4004 4.07168C29.2234 4.51168 34.5504 4.87168 40.1684 5.27168C45.7864 5.67168 51.1684 6.18668 56.0434 6.88568C60.3772 7.50153 64.66 8.43403 68.8575 9.6757C76.0354 11.8667 79.9994 14.3757 79.8384 14.6707" transform="translate(758.145 164.2759)" id="Fill_79" fill="#775298" stroke="none" />
    <g id="Group_83" transform="translate(724.0143 58.65967)">
      <path d="M0 0L283.1 0L283.1 138.687L0 138.687L0 0Z" id="Clip_82-2" fill="none" stroke="none" />
      <g id="Mask-group">
        <path d="M0 0L283.1 0L283.1 138.687L0 138.687L0 0Z" id="Clip_82" fill="none" stroke="none" />
        <g clip-path="url(#mask_1)">
          <g id="Group_83-2" transform="translate(-0.0006103516 -0.001159668)">
            <path d="M28.4766 28.0922C41.9506 25.2342 55.9116 27.6922 69.4966 29.9582C83.0816 32.2242 97.1906 34.2582 110.474 30.6162C134.458 24.0352 152.665 -0.192842 177.536 0.00115845C187.777 0.0801585 197.43 4.45316 207.407 6.76716C219.796 9.64116 232.707 9.33316 245.253 11.3832C257.799 13.4332 270.771 18.4832 277.865 29.0362C286.28 41.5622 283.973 59.2312 275.142 71.4682C266.311 83.7052 252.169 91.1602 237.68 95.3832C227.573 98.3282 216.805 100.031 208.059 105.891C199.212 111.819 193.436 121.36 185.193 128.1C164.509 145.013 132.32 140.165 110.954 124.122C105.586 120.092 100.611 115.415 94.5796 112.466C70.0496 100.46 34.7696 116.353 13.6426 94.5092C-7.8114 72.3252 -4.7574 35.1392 28.4776 28.0922" id="Fill_81" fill="#B57AD2" stroke="none" />
          </g>
        </g>
      </g>
    </g>
    <path d="M0 10.723C0 10.723 22.475 58.891 25.1 49.972C27.725 41.053 26.855 19.628 25.447 16.572C24.039 13.516 14.85 0 14.85 0L0 10.723Z" transform="translate(745.7582 505.6616)" id="Fill_84" fill="#FFB2A0" stroke="none" />
    <path d="M4.739 30.2768C6.819 32.9398 5.429 30.0768 7.784 33.9208C17.571 33.5798 24.14 25.2998 24.14 25.2998C24.14 25.2998 39.674 25.7108 39.495 22.9358C39.316 20.1608 24.6 21.1998 24.6 21.1998C24.6 21.1998 40.166 16.3118 39.312 13.8708C38.458 11.4298 20.492 19.2108 20.492 19.2108C20.492 19.2108 38.629 7.95181 35.95 6.14681C33.271 4.34181 15.825 14.1698 15.825 14.1698C15.825 14.1698 30.988 1.71681 28.715 0.111811C26.442 -1.49319 5.415 14.7118 5.415 14.7118C5.72 6.74181 0 7.02081 0 7.02081L0.236 26.4898C1.84076 27.6221 3.3462 28.889 4.73599 30.2768" transform="translate(903.5363 96.60687)" id="Fill_86" fill="#FFC6B2" stroke="none" />
    <path d="M21.3426 38.7677C18.0186 39.3807 20.5956 38.2247 16.2816 39.5417C9.19461 32.7847 10.1346 22.1657 10.1346 22.1657C10.1346 22.1657 -1.7504 12.1627 0.220603 10.2077C2.1916 8.25266 12.5146 18.7927 12.5146 18.7927C12.5146 18.7927 4.12361 4.79966 6.38061 3.54366C8.63761 2.28765 16.9126 20.0317 16.9126 20.0317C16.9126 20.0317 10.8226 -0.422345 14.0236 0.00665521C17.2246 0.435655 23.7466 19.3627 23.7466 19.3627C23.7466 19.3627 20.6766 -0.0143448 23.4356 0.292655C26.1946 0.599655 31.1696 26.6817 31.1696 26.6817C36.2336 20.5147 40.3226 24.5227 40.3226 24.5227L27.4866 38.6377C25.4376 38.5526 23.3853 38.5957 21.3416 38.7667" transform="translate(656.6757 0)" id="Fill_88" fill="#FFC6B2" stroke="none" />
    <path d="M23.1991 0.049434C18.8991 -0.656566 8.51006 6.25043 3.31106 17.5074C0.399061 23.8074 -1.60094 30.2084 1.73706 40.4544C3.31106 45.2744 6.60306 45.8784 7.33706 48.0374C8.26606 50.7714 5.18906 59.3874 5.18906 59.3874L17.4591 64.3424C18.2591 58.4234 19.1591 52.4684 25.193 49.8974C27.4501 48.9344 29.866 48.3264 31.993 47.1044C37.74 43.8104 40.81 36.6044 43.172 30.7044C44.937 26.3004 33.979 1.81643 23.1991 0.049434" transform="translate(735.4433 120.0422)" id="Fill_90" fill="#FFC6B2" stroke="none" />
    <path d="M81.3008 8.246L60.7478 0C60.7478 0 -0.253209 113.107 0.00079102 144.489C0.254791 175.871 83.7808 238.699 83.7808 238.699L97.8678 226.525C97.8678 226.525 72.0808 181.563 58.2948 165.71C44.5088 149.857 81.3008 8.246 81.3008 8.246" transform="translate(662.7385 279.1387)" id="Fill_92" fill="#FFB2A0" stroke="none" />
    <path d="M12.782 24.0532C12.782 24.0532 58.082 2.56123 48.982 0.663229C39.882 -1.23477 18.589 1.37823 15.657 3.03123C12.725 4.68423 0 14.9372 0 14.9372L12.782 24.0532Z" transform="translate(833.3144 392.1775)" id="Fill_94" fill="#FFC6B2" stroke="none" />
    <path d="M53.1748 0L21.9938 11.343C21.9938 11.343 -9.19919 148.514 2.71081 170.049C14.6208 191.584 48.0548 177.337 95.6808 151.349L135.573 129.575L122.258 120.713C122.258 120.713 75.8378 129.813 62.8018 138.877C62.8018 138.877 69.6018 119.603 78.6768 92.397C87.7518 65.191 94.0008 37.412 53.1748 0" transform="translate(711.0556 286.4047)" id="Fill_96" fill="#FFC6B2" stroke="none" />
    <path d="M0 15.7C0 6.591 2.934 0 12.048 0C21.162 0 33.763 3.195 33.763 12.31C33.763 21.425 26.581 36.229 17.463 36.229C8.345 36.229 0 24.823 0 15.7" transform="translate(725.8503 177.2487)" id="Fill_98" fill="#FFC6B2" stroke="none" />
    <path d="M62.3556 139.5C62.3556 139.5 34.0127 108.834 28.3437 78.789C22.6747 48.744 13.0387 0 13.0387 0L2.26667 3.1C2.26667 3.1 -2.83333 69.722 2.26667 79.923C7.36666 90.124 32.2967 158.053 39.8877 175.892L62.3556 139.5Z" transform="translate(670.6916 36.43964)" id="Fill_100" fill="#FFC6B2" stroke="none" />
    <path d="M0 77.495C0 77.495 2.18 67.955 38.021 54.988C73.862 42.021 141.479 0 141.479 0L148.225 7.717C148.225 7.717 111.485 50.15 90.111 57.592C68.737 65.034 23.338 94.382 18.667 96.73C11.6 100.283 11.69 104.754 0 77.495" transform="translate(763.4995 122.3506)" id="Fill_102" fill="#FFC6B2" stroke="none" />
    <path d="M28.8 0C28.8 0 0 9.332 0 53.144C0 53.144 0.018 113.15 6.805 124.066C14.9799 125.772 23.4191 125.772 31.594 124.066C46.018 121.101 59.978 110.466 59.978 110.466L82.631 42.466L79.922 10.605L49.122 4.659C49.122 4.659 57.957 45.942 25.99 28.194C19.777 24.745 35.13 1.323 35.13 1.323L28.8 0Z" transform="translate(704.2514 175.9427)" id="Fill_104" fill="#22343D" stroke="none" />
    <path d="M14.19 53.916L0 24.357C0 24.357 2.035 6.425 28.084 0C28.084 0 30.718 9.039 33.606 12.492C36.494 15.945 44.9 19.617 44.9 19.617L14.19 53.916Z" transform="translate(694.4924 157.6597)" id="Fill_106" fill="#22343D" stroke="none" />
    <path d="M7.82296 44.832L52.9439 35.584C52.9439 35.584 60.7889 19.333 42.1869 0C42.1869 0 6.98696 2.125 2.43596 2.5C-2.04804 2.877 1.03096 6.33 1.03096 6.33L7.82296 44.832Z" transform="translate(754.5053 178.6247)" id="Fill_108" fill="#22343D" stroke="none" />
    <path d="M49.729 9.545C49.729 9.545 7.051 88.441 0 102.538C0 102.538 125.909 160.368 177.02 90.759C177.02 90.759 147.946 29.23 102.999 5.806L83.61 0L50.487 9.166" transform="translate(661.2553 275.8487)" id="Fill_110" fill="#22343D" stroke="none" />
    <path d="M2.991 2.68424C2.991 2.68424 7.85301 -2.17675 10.843 1.18424C13.833 4.54524 0 9.41324 0 9.41324L2.991 2.68424Z" transform="translate(773.9753 147.3154)" id="Fill_112" fill="#FFC6B2" stroke="none" />
    <path d="M135.624 5.78928C135.672 5.95728 133.794 6.77028 130.208 7.62128C125.126 8.7525 119.94 9.34874 114.734 9.40028C107.038 9.43927 99.3495 8.89876 91.7343 7.78328C83.1572 6.64328 73.8362 4.97228 64.0292 3.90028C54.2382 2.85328 44.8232 2.66328 36.4852 4.00928C29.0792 5.12991 21.938 7.58464 15.4082 11.2543C11.0195 13.7659 7.06415 16.9683 3.6942 20.7383C1.32319 23.4403 0.256195 25.1653 0.0151949 25.0203C-0.116805 24.9523 0.596195 23.0083 2.74419 19.9803C5.88289 15.7513 9.79123 12.1523 14.2642 9.37228C20.9144 5.25996 28.2985 2.4753 36.0082 1.17228C44.6892 -0.385721 54.4002 -0.265721 64.3602 0.800278C74.3312 1.88828 83.6602 3.65428 92.1442 4.93428C99.6227 6.15979 107.171 6.91295 114.744 7.18927C127.68 7.55028 135.51 5.25528 135.628 5.78928" transform="translate(730.2661 77.91339)" id="Fill_114" fill="#775298" stroke="none" />
    <path d="M6.10034 12.1153C6.08634 12.3063 4.70034 12.4403 2.58733 11.7383C1.95541 11.5455 1.37132 11.2214 0.873332 10.7873C0.562076 10.5011 0.319973 10.1478 0.165331 9.75427C-0.0605214 9.18686 -0.0547767 8.55349 0.181331 7.99027C0.249331 7.89027 0.245331 7.64527 0.381331 7.64027L0.790332 7.62727C1.08701 7.61926 1.38324 7.65532 1.66933 7.73427C2.04247 7.80436 2.42075 7.84349 2.80033 7.85127C3.52005 7.86482 4.23881 7.7923 4.94133 7.63527C7.45818 7.06372 9.59009 5.40167 10.7583 3.10027C11.6873 1.32227 11.7683 -0.0147254 12.0163 0.000274743C12.1913 -0.0227252 12.5363 1.40027 11.7683 3.54427C11.302 4.79717 10.5613 5.92985 9.60034 6.85927C8.40033 8.00684 6.90796 8.80249 5.28634 9.15927C4.45182 9.34714 3.59571 9.42114 2.74133 9.37927C2.37487 9.35676 2.00996 9.31369 1.64833 9.25027C1.49633 9.22527 1.51433 9.19127 1.48533 9.20927C1.46436 9.23463 1.45526 9.26776 1.46033 9.30027C1.52643 9.51348 1.63877 9.70947 1.78933 9.87427C2.14042 10.2297 2.55488 10.5163 3.01133 10.7193C4.83934 11.6193 6.13534 11.8813 6.10134 12.1193" transform="translate(746.1071 135.1244)" id="Fill_116" fill="#FF7B5B" stroke="none" />
    <path d="M0 0L16.622 6.548C16.622 6.548 2.014 16.62 0 0" transform="translate(742.0864 147.7657)" id="Fill_118" fill="#FFFFFF" stroke="none" />
    <path d="M6.22624 4.1677C5.63624 5.2897 3.80524 5.4847 2.13623 4.6057C0.467231 3.7267 -0.40177 2.1087 0.181231 0.988696C0.764232 -0.131305 2.60423 -0.330305 4.27324 0.548696C5.94224 1.4277 6.81624 3.0487 6.22624 4.1677" transform="translate(759.58 146.748)" id="Fill_120" fill="#FFB2A0" stroke="none" />
    <path d="M6.39965 3.8586C5.89965 5.0206 4.08565 5.3586 2.35565 4.6076C0.62565 3.8566 -0.373349 2.3106 0.130651 1.1486C0.634651 -0.0134004 2.44465 -0.350401 4.17465 0.3996C5.90465 1.1496 6.89965 2.6996 6.39965 3.8586" transform="translate(740.8576 137.2221)" id="Fill_122" fill="#FFB2A0" stroke="none" />
    <path d="M0.000999809 0.00300026C0.000999809 0.00300026 5.828 4.882 11.906 3.311C11.906 3.311 9.80601 6.453 1.742 5.3C1.742 5.3 2.412 1.838 0 0" transform="translate(741.0983 165.9887)" id="Fill_124" fill="#FFA192" stroke="none" />
    <path d="M2.63397 1.317C2.63397 2.04436 2.04434 2.634 1.31699 2.634C0.589635 2.634 1.19208e-07 2.04436 1.19208e-07 1.317C2.38416e-07 0.589641 0.589635 0 1.31699 0C2.04411 0.000551463 2.63342 0.58987 2.63397 1.317" transform="translate(761.5773 139.1617)" id="Fill_126" fill="#22343D" stroke="none" />
    <path d="M2.63202 1.317C2.63146 2.04357 2.04221 2.6322 1.31566 2.632C0.589109 2.63181 0.000175755 2.04287 3.9664e-07 1.31632C-0.000174962 0.589772 0.588474 0.000543595 1.31503 0C2.04215 0.000560285 2.63147 0.589877 2.63202 1.317" transform="translate(750.8034 135.2807)" id="Fill_128" fill="#22343D" stroke="none" />
    <path d="M4.72665 3.55958C4.32065 3.73258 3.53466 2.78058 2.34467 2.01158C1.17967 1.20757 0.000678496 0.846574 0.000678496 0.406573C-0.0383213 -0.0154278 1.61067 -0.358428 3.21166 0.715573C4.81265 1.78958 5.13265 3.43258 4.72665 3.55958" transform="translate(763.7158 133.4111)" id="Fill_130" fill="#775298" stroke="none" />
    <path d="M0.000379954 0.882244C-0.02662 0.470244 1.38838 -0.045756 3.28238 0.00324394C5.20938 0.0442439 6.63337 0.980244 6.43637 1.37024C6.25437 1.77024 4.91238 1.59524 3.22138 1.56324C1.51938 1.51324 0.0283799 1.32924 0.000379954 0.882244" transform="translate(749.4489 129.6994)" id="Fill_132" fill="#775298" stroke="none" />
    <path d="M0 24.982C0 24.982 6.914 49.521 14.053 47.512C21.192 45.503 15.824 11.258 15.824 11.258L8.7 0C8.7 0 15.393 57.326 0 24.982" transform="translate(755.3854 510.9746)" id="Fill_134" fill="#22343D" stroke="none" />
    <path d="M0 8.34286C0 8.34286 5.027 2.85786 11.122 1.94286C17.217 1.02786 39.006 -1.56313 42.206 1.33186C45.406 4.22686 24.547 13.9319 24.547 13.9319C24.547 13.9319 31.815 9.30186 28.8 7.58186C23.463 4.53286 0 8.34286 0 8.34286" transform="translate(842.5724 391.5718)" id="Fill_136" fill="#22343D" stroke="none" />
    <path d="M0 1.859L6.82102 15.707L10.543 13.641L1.446 0L0 1.859Z" transform="translate(833.9274 404.6248)" id="Fill_138" fill="#22343D" stroke="none" />
    <path d="M16.744 0L0 15.089L4.96101 19.223L19.017 3.923L16.744 0Z" transform="translate(740.9074 500.1106)" id="Fill_140" fill="#22343D" stroke="none" />
    <path d="M56.5257 147.766C51.7637 135.951 49.9337 122.796 42.8257 112.222C32.6007 97.0083 12.9647 89.4593 4.66774 73.1123C1.14374 66.1693 0.03774 58.2273 0.000740029 50.4413C-0.06726 35.0413 4.54474 18.6643 16.4427 8.87626C30.1157 -2.37174 50.6287 -2.21474 66.6427 5.34126C82.6567 12.8973 94.8837 26.6133 105.284 40.9413C115.684 55.2693 124.792 70.6413 136.904 83.5483C145.885 93.1203 156.537 101.376 163.304 112.621C181.849 143.451 162.768 182.46 130.029 193.587C101.261 203.361 66.4827 172.47 56.5287 147.767" transform="translate(351.0627 202.1264)" id="Fill_142" fill="#22343D" stroke="none" />
    <path d="M34.9729 6.251C37.8199 8.592 34.7139 6.971 38.8559 9.668C37.9319 20.014 28.3559 26.533 28.3559 26.533C28.3559 26.533 27.9559 43 24.8819 42.666C21.8079 42.332 23.7729 26.8 23.7729 26.8C23.7729 26.8 17.4719 43.029 14.8019 42C12.1319 40.971 21.7889 22.35 21.7889 22.35C21.7889 22.35 8.26892 40.957 6.41192 38.023C4.55492 35.089 16.4529 17.137 16.4529 17.137C16.4529 17.137 1.76292 32.535 0.101919 30.042C-1.55908 27.549 17.6319 6.142 17.6319 6.142C8.75292 6.044 9.38192 0 9.38192 0L31.0119 1.283C32.1868 3.04965 33.5117 4.71179 34.9719 6.25101" transform="translate(331.6335 561.0815)" id="Fill_144" fill="#FFC6B2" stroke="none" />
    <path d="M22.693 41.111C26.393 41.76 23.522 40.534 28.324 41.931C36.212 34.765 35.166 23.506 35.166 23.506C35.166 23.506 48.4 12.9 46.2 10.826C44 8.75203 32.517 19.926 32.517 19.926C32.517 19.926 41.856 5.09303 39.345 3.75803C36.834 2.42303 27.625 21.242 27.625 21.242C27.625 21.242 34.4 -0.446971 30.838 0.00702926C27.276 0.461029 20.018 20.532 20.018 20.532C20.018 20.532 23.434 -0.0129707 20.361 0.311029C17.288 0.635029 12.314 27.55 12.314 27.55C5.07 21.656 0 25.429 0 25.429L15.854 40.973C18.1344 40.884 20.4181 40.9301 22.693 41.111" transform="translate(550.5573 215.5596)" id="Fill_146" fill="#FFC6B2" stroke="none" />
    <path d="M21.028 0.057328C27.72 -0.986672 48.128 12.2363 42.934 39.0883C42.5 41.3433 39.555 46.3063 38.822 48.3583C37.896 50.9583 45.114 60.4733 45.114 60.4733L26.478 66.4273C25.683 60.7993 27.021 52.5733 20.999 50.1273C18.6878 49.3713 16.4212 48.4852 14.21 47.4733C8.472 44.3403 5.41 37.4853 3.052 31.8733C1.14716 27.7092 0.108799 23.2012 0 18.6233C0.123996 7.16633 10.272 1.73733 21.028 0.057328" transform="translate(461.6664 346.5733)" id="Fill_148" fill="#FFC6B2" stroke="none" />
    <path d="M36.749 13.355C36.749 3.689 33.684 0 23.538 0C13.392 0 0 3.689 0 13.355C0 23.021 7.164 35.119 17.314 35.119C27.464 35.119 36.749 23.019 36.749 13.355" transform="translate(483.2643 406.8186)" id="Fill_150" fill="#FFC6B2" stroke="none" />
    <path d="M0 147.931C0 147.931 31.547 115.409 37.857 83.55C44.167 51.691 54.892 0 54.892 0L66.881 3.288C66.881 3.288 72.562 73.935 66.881 84.754C61.2 95.573 29.021 170.711 29.653 189.944L0 147.931Z" transform="translate(512.0014 254.2027)" id="Fill_152" fill="#FFC6B2" stroke="none" />
    <path d="M94.016 0C94.016 0 83.29 1.8 66.884 39.072C50.478 76.344 0 145.719 0 145.719L8.2 153.273C8.2 153.273 57.415 116.61 66.88 94.373C76.345 72.136 88.331 44.485 94.013 45.683C99.695 46.881 123.668 13.824 94.013 0.00199509" transform="translate(361.7504 417.8806)" id="Fill_154" fill="#FFC6B2" stroke="none" />
    <path d="M32.993 66.367L47.683 25.829C47.683 25.829 45.416 6.816 16.424 0L0 23.66L32.993 66.367Z" transform="translate(507.2324 382.7466)" id="Fill_156" fill="#B57AD2" stroke="none" />
    <path d="M31.377 0C31.377 0 14.047 1.46 0 32.308C0 32.308 15.448 53.632 26.749 54.352C26.749 54.352 68.723 18.479 31.377 -3.8147e-06" transform="translate(429.2873 414.7698)" id="Fill_158" fill="#B57AD2" stroke="none" />
    <path d="M29.8257 11.37C29.8257 11.37 4.80865 62.449 1.88465 52.992C-1.03935 43.535 -0.0703467 20.813 1.50065 17.571C3.07165 14.329 13.3007 0 13.3007 0L29.8257 11.37Z" transform="translate(478.4548 769.2285)" id="Fill_160" fill="#FFC6B2" stroke="none" />
    <path d="M18.44 8.746L41.318 0C41.318 0 109.212 119.943 108.931 153.221C108.65 186.499 15.682 253.121 15.682 253.121L0 240.211C0 240.211 44.065 175.431 59.409 158.62C67.082 150.213 12.153 109.013 3.833 69.371C-4.487 29.729 18.44 8.746 18.44 8.746" transform="translate(491.7514 529.0176)" id="Fill_162" fill="#22343D" stroke="none" />
    <path d="M44.908 17.319C44.908 17.319 -1.88695 51.807 0.0590542 42.128C2.00505 32.449 13.7921 12.669 16.7461 10.469C19.7001 8.269 35.682 0 35.682 0L44.908 17.319Z" transform="translate(327.7333 736.5227)" id="Fill_164" fill="#FFC6B2" stroke="none" />
    <path d="M84.534 39.222L152.219 0C152.219 0 154.905 136.245 138.656 165.7C122.407 195.155 7.732 213.826 7.732 213.826L0 195.508C0 195.508 70.751 153.359 92.472 145.108C114.193 136.857 84.534 39.222 84.534 39.222" transform="translate(363.4155 541.0146)" id="Fill_166" fill="#22343D" stroke="none" />
    <path d="M41.5197 0C41.5197 0 -8.31727 17.644 1.21073 66.052C10.7387 114.46 26.6107 123.533 26.6107 123.533L55.1997 76.641L83.8917 15.232L55.1997 11.593L41.5197 0Z" transform="translate(446.7397 514.1855)" id="Fill_168" fill="#22343D" stroke="none" />
    <path d="M57 0C57 0 93.692 20.561 93.692 67.021C93.692 67.021 89.03 119.988 81.476 131.561C72.3681 133.372 62.9929 133.372 53.885 131.561C37.831 128.419 22.295 117.137 22.295 117.137L9.755 52.288L0 14.424L5.288 12.68L32.888 9.649C32.888 9.649 28.92 50.867 59.733 30.4C66.223 26.088 51.654 4.6 51.654 4.6L57 0Z" transform="translate(455.0014 402.1338)" id="Fill_170" fill="#B57AD2" stroke="none" />
    <path d="M0 76.923L76.932 121.8L120.207 40.069L48.082 0L0 76.923Z" transform="translate(534.4604 149.6457)" id="Fill_172" fill="#FFFFFF" stroke="none" />
    <path d="M40.732 113.393L95.754 79.336L50.3 0L0 32.61L40.732 113.393Z" transform="translate(600.7534 504.4148)" id="Fill_174" fill="#FFFFFF" stroke="none" />
    <path d="M0.0151505 0.00758486C0.16015 -0.122415 1.85915 1.41958 4.54515 4.56359C8.31789 9.04012 11.6616 13.8613 14.5321 18.9635C18.8247 26.5454 22.1545 34.6332 24.4442 43.0396C27.1331 52.4456 28.9351 63.0196 33.0681 73.2046C35.1222 78.1186 37.7544 82.7704 40.9091 87.0616C43.9251 91.0123 47.325 94.6544 51.0592 97.9347C57.4936 103.435 64.8444 107.761 72.7761 110.718C78.1453 112.721 83.7407 114.057 89.4361 114.694C93.4781 115.141 95.7622 115.207 95.7642 115.473C95.7751 115.639 93.4982 115.986 89.3472 115.907C83.4597 115.727 77.6306 114.683 72.0472 112.807C63.7089 110.039 55.9606 105.739 49.2001 100.129C45.2428 96.7673 41.6451 93.0041 38.4651 88.8996C35.1179 84.4215 32.3349 79.5481 30.1791 74.3896C25.8741 63.7436 24.1731 53.0766 21.6681 43.7956C19.5574 35.5507 16.5123 27.5737 12.5922 20.0196C9.9363 14.9118 6.92731 9.99548 3.58711 5.30652C1.22315 1.97059 -0.161849 0.163585 0.0151505 0.00758486" transform="translate(370.5602 279.7331)" id="Fill_176" fill="#22343D" stroke="none" />
    <path d="M0.158873 0.000725056C0.723873 -0.0852749 1.27387 7.48673 5.51087 18.6867C7.99685 25.2128 11.2851 31.4044 15.2998 37.1186C17.6771 40.4804 20.2832 43.6743 23.0998 46.6777C26.0219 49.8537 29.2059 53.0777 32.2149 56.6997C38.2449 64.0007 42.3999 71.9007 46.2999 78.8657C50.1809 85.9017 53.2709 92.5947 54.8419 98.5827C56.2295 103.289 56.6443 108.229 56.0609 113.101C55.5179 116.525 54.6669 118.259 54.5259 118.212C54.2559 118.142 54.6959 116.312 54.8509 112.992C54.9507 108.308 54.233 103.643 52.7299 99.2059C50.9589 93.5417 47.7729 87.1567 43.7999 80.2707C39.7599 73.3867 35.5729 65.6517 29.8099 58.6897C26.9169 55.2067 23.7789 51.9897 20.8379 48.7357C17.9592 45.604 15.3144 42.265 12.9249 38.7458C8.89035 32.772 5.69642 26.2718 3.4329 19.4278C1.89086 14.8435 0.829158 10.1114 0.264888 5.30776C-0.123127 1.91572 -0.0181267 0.0177251 0.158873 0.000725056" transform="translate(464.9355 227.2399)" id="Fill_178" fill="#22343D" stroke="none" />
    <path d="M9.2068 11.406C9.1768 11.188 10.4308 10.988 11.6138 9.59899C11.8923 9.30474 12.0807 8.93692 12.1568 8.53899C12.1134 8.11651 11.9123 7.72591 11.5938 7.44499C11.2451 7.11144 10.7645 6.95307 10.2858 7.01399C9.7318 7.05499 9.0578 7.32999 8.1768 7.46099C6.51953 7.57414 4.89774 6.94462 3.7508 5.743C2.85845 4.93185 2.06223 4.02088 1.3778 3.02799C0.223804 1.327 -0.134196 0.0999968 0.042804 0.00799687C0.242804 -0.101003 0.942804 0.915997 2.2428 2.342C2.9973 3.16736 3.8115 3.93611 4.6788 4.642C5.55537 5.49576 6.74181 5.95575 7.9648 5.916C8.5828 5.83699 9.3018 5.54799 10.1788 5.48899C11.088 5.4209 11.9798 5.76404 12.6088 6.42399C13.1989 7.0138 13.504 7.83075 13.4448 8.663C13.3027 9.33192 12.9357 9.93193 12.4048 10.363C10.7048 11.848 9.1528 11.605 9.2048 11.403" transform="translate(479.4716 364.4127)" id="Fill_180" fill="#FF7B5B" stroke="none" />
    <path d="M14.776 0L0 5.372C0 5.372 12.537 16.338 14.776 0" transform="translate(482.9953 377.0977)" id="Fill_182" fill="#FFFFFF" stroke="none" />
    <path d="M6.22722 0.987345C6.81722 2.10935 5.94322 3.73035 4.27422 4.60635C2.60522 5.48235 0.77422 5.28935 0.18422 4.16835C-0.405779 3.04735 0.46822 1.42735 2.13722 0.549345C3.80622 -0.328656 5.63722 -0.133656 6.22722 0.987345" transform="translate(475.2941 375.1964)" id="Fill_184" fill="#FFB2A0" stroke="none" />
    <path d="M6.43176 1.18408C6.91576 2.35608 5.89376 3.88407 4.15176 4.60607C2.40976 5.32807 0.598754 4.96207 0.118753 3.79007C-0.361248 2.61807 0.656754 1.08808 2.39876 0.36908C4.14076 -0.349919 5.94576 0.0130805 6.42976 1.18408" transform="translate(492.6057 366.0186)" id="Fill_186" fill="#FFB2A0" stroke="none" />
    <path d="M1.90735e-06 0.568001C3.74809 1.14298 7.57396 0.949734 11.245 0C8.93805 2.01 6.09432 3.30257 3.063 3.71899C2.3249 2.42654 1.27104 1.3424 0 0.567999" transform="translate(483.4323 396.5256)" id="Fill_188" fill="#FFA192" stroke="none" />
    <path d="M2.16811 0.313107C2.72184 0.78357 2.7895 1.61377 2.31926 2.16769C1.84901 2.7216 1.01883 2.78959 0.464733 2.31956C-0.0893678 1.84954 -0.157686 1.01939 0.312118 0.465106C0.537964 0.198647 0.860479 0.0329051 1.20861 0.00439439C1.55674 -0.0241162 1.90192 0.0869438 2.16811 0.313107" transform="translate(486.3151 363.5716)" id="Fill_190" fill="#22343D" stroke="none" />
    <path d="M2.16811 0.313107C2.72184 0.78357 2.7895 1.61377 2.31926 2.16769C1.84901 2.7216 1.01883 2.78959 0.464733 2.31956C-0.0893678 1.84954 -0.157686 1.01939 0.312118 0.465106C0.537964 0.198647 0.860479 0.0329051 1.20861 0.00439439C1.55674 -0.0241162 1.90192 0.0869438 2.16811 0.313107" transform="translate(476.3862 369.2836)" id="Fill_192" fill="#22343D" stroke="none" />
    <path d="M5.53988 0.855067C5.40788 1.27707 4.17488 1.26107 2.81987 1.67207C1.45287 2.04007 0.414865 2.70708 0.0788641 2.41908C-0.268137 2.17807 0.534865 0.697066 2.39087 0.171063C4.24687 -0.354941 5.70588 0.464064 5.53988 0.855067" transform="translate(483.0014 357.5346)" id="Fill_194" fill="#22343D" stroke="none" />
    <path d="M0.0978495 4.72921C-0.234149 4.48421 0.285849 3.07221 1.54885 1.65921C2.82284 0.216215 4.45784 -0.265784 4.62784 0.136215C4.79784 0.538215 3.81484 1.44421 2.69784 2.71321C1.55985 3.97821 0.453848 5.00021 0.0978495 4.72921" transform="translate(471.2934 364.0185)" id="Fill_196" fill="#22343D" stroke="none" />
    <path d="M7.29051 1.88676C7.29051 1.88676 2.55151 -2.09323 0.276505 1.50777C-1.9985 5.10876 10.5125 6.99976 10.5125 6.99976L7.29051 1.88676Z" transform="translate(458.5258 377.8309)" id="Fill_198" fill="#FFC6B2" stroke="none" />
    <path d="M24.6996 0C24.6996 0 17.8996 2.954 16.1326 4.727C14.3656 6.5 -1.88737 34.556 0.181635 38.1C2.25064 41.644 18.5426 29.613 18.5426 29.613C18.5426 29.613 4.90864 32.195 24.6996 0" transform="translate(327.1708 742.6335)" id="Fill_200" fill="#B57AD2" stroke="none" />
    <path d="M6.45336 0C6.45336 0 1.62836 5.215 0.883359 7.611C0.138359 10.007 -1.19464 42.4 2.28636 44.571C5.76736 46.742 15.2744 28.871 15.2744 28.871C15.2744 28.871 3.90536 37.778 6.45336 0.075" transform="translate(477.9899 779.7366)" id="Fill_202" fill="#B57AD2" stroke="none" />
  </g>
</svg>