<svg xmlns="http://www.w3.org/2000/svg" xmlns:xlink="http://www.w3.org/1999/xlink" width="32" height="32" preserveAspectRatio="xMidYMid meet" viewBox="0 0 32 32" style="-ms-transform: rotate(360deg); -webkit-transform: rotate(360deg); transform: rotate(360deg);"><path d="M8 4v4H4V4h4M2 2v8h8V2z" fill="#626262"/><path d="M18 7v4h-4V7h4m-6-2v8h8V5z" fill="#626262"/><path d="M8 16v4H4v-4h4m-6-2v8h8v-8z" fill="#626262"/><path d="M22 10v6h-6v6h-6v8h20V10zm-4 8h4v4h-4zm-2 10h-4v-4h4zm6 0h-4v-4h4zm6 0h-4v-4h4zm0-6h-4v-4h4zm-4-6v-4h4v4z" fill="#626262"/><rect x="0" y="0" width="32" height="32" fill="rgba(0, 0, 0, 0)" /></svg>