<svg xmlns="http://www.w3.org/2000/svg" xmlns:xlink="http://www.w3.org/1999/xlink" width="1920" height="1080" viewBox="0 0 1920 1080">
  <defs>
    <style>
      .cls-1, .cls-22, .cls-5, .cls-7 {
        fill: #fff;
      }

      .cls-1, .cls-18, .cls-21 {
        stroke: #707070;
      }

      .cls-18, .cls-2, .cls-20, .cls-21 {
        fill: none;
      }

      .cls-3 {
        clip-path: url(#clip-FORM);
      }

      .cls-4 {
        fill: #ff95a9;
      }

      .cls-6 {
        fill: #0eb582;
      }

      .cls-17, .cls-19, .cls-7 {
        font-size: 29px;
      }

      .cls-22, .cls-23, .cls-7 {
        font-family: Arial-BoldMT, Arial;
        font-weight: 700;
      }

      .cls-8 {
        clip-path: url(#clip-path);
      }

      .cls-15, .cls-23, .cls-9 {
        fill: #6c63ff;
      }

      .cls-10, .cls-12, .cls-14 {
        fill: #2699fb;
      }

      .cls-10, .cls-12 {
        font-size: 14px;
      }

      .cls-10, .cls-16, .cls-17, .cls-19 {
        font-family: OpenSans, Open Sans;
      }

      .cls-11 {
        fill: #f1f9ff;
      }

      .cls-11, .cls-16, .cls-17 {
        opacity: 0.5;
      }

      .cls-12 {
        font-family: ArialMT, Arial;
      }

      .cls-13 {
        clip-path: url(#clip-path-2);
      }

      .cls-15, .cls-19 {
        opacity: 0;
      }

      .cls-16, .cls-17, .cls-19 {
        fill: #1c1c1c;
      }

      .cls-16 {
        font-size: 22px;
      }

      .cls-18, .cls-20 {
        opacity: 0.3;
      }

      .cls-20 {
        stroke: #0eb582;
      }

      .cls-22, .cls-23 {
        font-size: 18px;
      }

      .cls-24 {
        fill: #fdfdfd;
      }

      .cls-25 {
        filter: url(#Rectangle_1090-2);
      }

      .cls-26 {
        filter: url(#Rectangle_1090);
      }

      .cls-27 {
        filter: url(#Rectangle_527-4);
      }

      .cls-28 {
        filter: url(#Rectangle_527-3);
      }

      .cls-29 {
        filter: url(#Rectangle_527-2);
      }

      .cls-30 {
        filter: url(#Rectangle_527);
      }

      .cls-31 {
        filter: url(#Rectangle_686);
      }

      .cls-32 {
        filter: url(#Rectangle_1811);
      }

      .cls-33 {
        filter: url(#Rectangle_1809);
      }

      .cls-34 {
        filter: url(#Rectangle_1816);
      }
    </style>
    <filter id="Rectangle_1816" x="0" y="-43" width="1920" height="1172" filterUnits="userSpaceOnUse">
      <feOffset dy="3" input="SourceAlpha"/>
      <feGaussianBlur stdDeviation="35" result="blur"/>
      <feFlood flood-opacity="0.129"/>
      <feComposite operator="in" in2="blur"/>
      <feComposite in="SourceGraphic"/>
    </filter>
    <filter id="Rectangle_1809" x="218" y="72" width="1483" height="372" filterUnits="userSpaceOnUse">
      <feOffset dy="3" input="SourceAlpha"/>
      <feGaussianBlur stdDeviation="35" result="blur-2"/>
      <feFlood flood-opacity="0.051"/>
      <feComposite operator="in" in2="blur-2"/>
      <feComposite in="SourceGraphic"/>
    </filter>
    <filter id="Rectangle_1811" x="218" y="182" width="1484" height="879" filterUnits="userSpaceOnUse">
      <feOffset dy="3" input="SourceAlpha"/>
      <feGaussianBlur stdDeviation="35" result="blur-3"/>
      <feFlood flood-opacity="0.051"/>
      <feComposite operator="in" in2="blur-3"/>
      <feComposite in="SourceGraphic"/>
    </filter>
    <clipPath id="clip-path">
      <rect id="Rectangle_1817" data-name="Rectangle 1817" class="cls-1" width="360" height="62" transform="translate(300 174)"/>
    </clipPath>
    <filter id="Rectangle_686" x="387" y="771" width="378" height="68" filterUnits="userSpaceOnUse">
      <feOffset dy="3" input="SourceAlpha"/>
      <feGaussianBlur stdDeviation="3" result="blur-4"/>
      <feFlood flood-opacity="0.161"/>
      <feComposite operator="in" in2="blur-4"/>
      <feComposite in="SourceGraphic"/>
    </filter>
    <clipPath id="clip-path-2">
      <rect class="cls-2" width="16" height="16"/>
    </clipPath>
    <filter id="Rectangle_527" x="768" y="764" width="771" height="84" filterUnits="userSpaceOnUse">
      <feOffset dy="3" input="SourceAlpha"/>
      <feGaussianBlur stdDeviation="5" result="blur-5"/>
      <feFlood flood-opacity="0.2"/>
      <feComposite operator="in" in2="blur-5"/>
      <feComposite in="SourceGraphic"/>
    </filter>
    <filter id="Rectangle_527-2" x="381" y="607" width="1158" height="147" filterUnits="userSpaceOnUse">
      <feOffset dy="3" input="SourceAlpha"/>
      <feGaussianBlur stdDeviation="5" result="blur-6"/>
      <feFlood flood-opacity="0.2"/>
      <feComposite operator="in" in2="blur-6"/>
      <feComposite in="SourceGraphic"/>
    </filter>
    <filter id="Rectangle_527-3" x="381" y="450" width="1158" height="147" filterUnits="userSpaceOnUse">
      <feOffset dy="3" input="SourceAlpha"/>
      <feGaussianBlur stdDeviation="5" result="blur-7"/>
      <feFlood flood-opacity="0.2"/>
      <feComposite operator="in" in2="blur-7"/>
      <feComposite in="SourceGraphic"/>
    </filter>
    <filter id="Rectangle_527-4" x="336" y="248" width="1248" height="237" filterUnits="userSpaceOnUse">
      <feOffset dy="3" input="SourceAlpha"/>
      <feGaussianBlur stdDeviation="20" result="blur-8"/>
      <feFlood flood-opacity="0.2"/>
      <feComposite operator="in" in2="blur-8"/>
      <feComposite in="SourceGraphic"/>
    </filter>
    <filter id="Rectangle_1090" x="965" y="866" width="129" height="76" filterUnits="userSpaceOnUse">
      <feOffset dy="3" input="SourceAlpha"/>
      <feGaussianBlur stdDeviation="3" result="blur-9"/>
      <feFlood flood-opacity="0.161"/>
      <feComposite operator="in" in2="blur-9"/>
      <feComposite in="SourceGraphic"/>
    </filter>
    <filter id="Rectangle_1090-2" x="825.998" y="866" width="127" height="76" filterUnits="userSpaceOnUse">
      <feOffset dy="3" input="SourceAlpha"/>
      <feGaussianBlur stdDeviation="3" result="blur-10"/>
      <feFlood flood-opacity="0.161"/>
      <feComposite operator="in" in2="blur-10"/>
      <feComposite in="SourceGraphic"/>
    </filter>
    <clipPath id="clip-FORM">
      <rect width="1920" height="1080"/>
    </clipPath>
  </defs>
  <g id="FORM" class="cls-3">
    <rect class="cls-24" width="1920" height="1080"/>
    <path id="Path_908" data-name="Path 908" class="cls-4" d="M0,0H1920V1080H0Z" transform="matrix(-0.485, 0.875, -0.875, -0.485, 2569.711, 77.163)"/>
    <g class="cls-34" transform="matrix(1, 0, 0, 1, 0, 0)">
      <rect id="Rectangle_1816-2" data-name="Rectangle 1816" class="cls-5" width="1710" height="962" rx="35" transform="translate(105 59)"/>
    </g>
    <g id="experience" transform="translate(0 -4177)">
      <g id="Group_400" data-name="Group 400" transform="translate(323 4351)">
        <g class="cls-33" transform="matrix(1, 0, 0, 1, -323, -174)">
          <rect id="Rectangle_1809-2" data-name="Rectangle 1809" class="cls-6" width="1273" height="162" rx="40" transform="translate(323 174)"/>
        </g>
        <g class="cls-32" transform="matrix(1, 0, 0, 1, -323, -174)">
          <path id="Rectangle_1811-2" data-name="Rectangle 1811" class="cls-5" d="M0,0H1274a0,0,0,0,1,0,0V629a40,40,0,0,1-40,40H40A40,40,0,0,1,0,629V0A0,0,0,0,1,0,0Z" transform="translate(323 284)"/>
        </g>
        <text id="personal_and_contact_info" data-name="personal and contact info" class="cls-7" transform="translate(297 72)"><tspan x="-227.702" y="0">PERSONAL AND CONTACT INFO</tspan></text>
        <g id="Group_412" data-name="Group 412">
          <g id="Dropdown_1" data-name="Dropdown 1" transform="translate(-227 429)">
            <g id="Component_149_1" data-name="Component 149 – 1" transform="translate(300 174)">
              <g id="Mask_Group_26" data-name="Mask Group 26" class="cls-8" transform="translate(-300 -174)">
                <g class="cls-31" transform="matrix(1, 0, 0, 1, -96, -603)">
                  <rect id="Rectangle_686-2" data-name="Rectangle 686" class="cls-5" width="360" height="50" transform="translate(396 777)"/>
                </g>
                <rect id="Rectangle_689" data-name="Rectangle 689" class="cls-9" width="50" height="50" transform="translate(610 174)"/>
                <text id="select_country" data-name="select country" class="cls-10" transform="translate(320 204)"><tspan x="0" y="0">select country</tspan></text>
                <path id="Path_36" data-name="Path 36" class="cls-5" d="M6.7,8.1,2,3.4,3.4,2,6.7,5.3,10,2l1.4,1.4Z" transform="translate(628.35 194)"/>
                <g id="Dropdown_2" data-name="Dropdown 2">
                  <rect id="Rectangle_684" data-name="Rectangle 684" class="cls-5" width="360" height="150" transform="translate(300 243)"/>
                  <rect id="Rectangle_690" data-name="Rectangle 690" class="cls-11" width="360" height="51" transform="translate(300 293)"/>
                  <text id="UK_44" data-name="UK +44" class="cls-12" transform="translate(320 273)"><tspan x="0" y="0">UK +44</tspan></text>
                  <text id="GHANA_233" data-name="GHANA +233" class="cls-12" transform="translate(320 323)"><tspan x="0" y="0">GHANA +233</tspan></text>
                  <text id="USA_1" data-name="USA +1" class="cls-12" transform="translate(320 373)"><tspan x="0" y="0">USA +1</tspan></text>
                  <g id="Component_148_1" data-name="Component 148 – 1" class="cls-13" transform="translate(624 310)">
                    <rect id="Rectangle_460" data-name="Rectangle 460" class="cls-2" width="16" height="16" transform="translate(0)"/>
                    <path id="Checkbox" class="cls-14" d="M6.345,11.034,0,4.69,1.287,3.4,6.345,8.368,14.713,0,16,1.287Z" transform="translate(0 2)"/>
                  </g>
                </g>
                <path id="Icon_ionic-ios-search" data-name="Icon ionic-ios-search" class="cls-15" d="M23.273,22.118,17.99,16.785a7.529,7.529,0,1,0-1.143,1.158l5.248,5.3a.813.813,0,0,0,1.148.03A.818.818,0,0,0,23.273,22.118Zm-11.2-4.111a5.945,5.945,0,1,1,4.2-1.741A5.908,5.908,0,0,1,12.073,18.007Z" transform="translate(428.002 184.507)"/>
              </g>
            </g>
            <g id="Group_419" data-name="Group 419" transform="translate(643.199 41)">
              <g class="cls-30" transform="matrix(1, 0, 0, 1, -739.2, -644)">
                <rect id="Rectangle_527-5" data-name="Rectangle 527" class="cls-5" width="741" height="54" transform="translate(783 776)"/>
              </g>
              <text id="contact" class="cls-16" transform="translate(111.801 168)"><tspan x="-39.456" y="0">Contact</tspan></text>
            </g>
          </g>
          <g id="Group_416" data-name="Group 416" transform="translate(29.199 313)">
            <g class="cls-29" transform="matrix(1, 0, 0, 1, -352.2, -487)">
              <rect id="Rectangle_527-6" data-name="Rectangle 527" class="cls-5" width="1128" height="117" transform="translate(396 619)"/>
            </g>
            <text id="Email" class="cls-17" transform="translate(103.801 198)"><tspan x="-36.951" y="0">Email</tspan></text>
            <line id="Line_201" data-name="Line 201" class="cls-18" x2="1070.602" transform="translate(69.5 223.5)"/>
          </g>
          <g id="Group_417" data-name="Group 417" transform="translate(29.199 156)">
            <g class="cls-28" transform="matrix(1, 0, 0, 1, -352.2, -330)">
              <rect id="Rectangle_527-7" data-name="Rectangle 527" class="cls-5" width="1128" height="117" transform="translate(396 462)"/>
            </g>
            <text id="Last_Name" data-name="Last Name" class="cls-17" transform="translate(137.801 198)"><tspan x="-72.011" y="0">Last Name</tspan></text>
            <line id="Line_201-2" data-name="Line 201" class="cls-18" x2="1070.602" transform="translate(69.5 223.5)"/>
          </g>
          <g id="Component_150_1" data-name="Component 150 – 1" transform="translate(73 131)">
            <g class="cls-27" transform="matrix(1, 0, 0, 1, -396, -305)">
              <rect id="Rectangle_527-8" data-name="Rectangle 527" class="cls-5" width="1128" height="117" transform="translate(396 305)"/>
            </g>
            <text id="First_Name" data-name="First Name" class="cls-19" transform="translate(94 66)"><tspan x="-73.491" y="0">First Name</tspan></text>
            <line id="Line_201-3" data-name="Line 201" class="cls-20" x2="1070.602" transform="translate(25.699 91.5)"/>
            <line id="Line_202" data-name="Line 202" class="cls-21" y2="49" transform="translate(28.5 28.5)"/>
          </g>
        </g>
      </g>
    </g>
    <g id="Group_420" data-name="Group 420" transform="translate(-40 9)">
      <g id="next" transform="translate(998.471 881.15)">
        <g class="cls-26" transform="matrix(1, 0, 0, 1, -958.47, -890.15)">
          <rect id="Rectangle_1090-3" data-name="Rectangle 1090" class="cls-6" width="111" height="58" rx="4" transform="translate(974 872)"/>
        </g>
        <text id="Next_" data-name="Next " class="cls-22" transform="translate(71.528 17.85)"><tspan x="-26.503" y="0">NEXT </tspan></text>
      </g>
      <g id="back" transform="translate(858.471 881.15)">
        <g class="cls-25" transform="matrix(1, 0, 0, 1, -818.47, -890.15)">
          <rect id="Rectangle_1090-4" data-name="Rectangle 1090" class="cls-5" width="109" height="58" rx="4" transform="translate(835 872)"/>
        </g>
        <text id="back-2" data-name="back" class="cls-23" transform="translate(71.528 17.85)"><tspan x="-25.998" y="0">BACK</tspan></text>
      </g>
    </g>
    <g id="Pagination" transform="translate(98 -27)">
      <circle id="Ellipse_271" data-name="Ellipse 271" class="cls-9" cx="23" cy="23" r="23" transform="translate(551 120)"/>
      <circle id="Ellipse_270" data-name="Ellipse 270" class="cls-5" cx="3" cy="3" r="3" transform="translate(571 140)"/>
      <circle id="Ellipse_272" data-name="Ellipse 272" class="cls-6" cx="4" cy="4" r="4" transform="translate(714 139)"/>
      <path id="Path_909" data-name="Path 909" class="cls-6" d="M3.92,0A3.92,3.92,0,1,1,0,3.92,3.92,3.92,0,0,1,3.92,0Z" transform="translate(858.08 139.08)"/>
      <path id="Path_910" data-name="Path 910" class="cls-6" d="M3.92,0A3.92,3.92,0,1,1,0,3.92,3.92,3.92,0,0,1,3.92,0Z" transform="translate(1002.08 139.08)"/>
      <path id="Path_911" data-name="Path 911" class="cls-6" d="M3.92,0A3.92,3.92,0,1,1,0,3.92,3.92,3.92,0,0,1,3.92,0Z" transform="translate(1146.08 139.08)"/>
      <rect id="Rectangle_732" data-name="Rectangle 732" class="cls-9" width="130" height="2" transform="translate(581 142)"/>
      <rect id="Rectangle_733" data-name="Rectangle 733" class="cls-9" width="130" height="2" transform="translate(725 142)"/>
      <rect id="Rectangle_1819" data-name="Rectangle 1819" class="cls-9" width="130" height="2" transform="translate(869 142)"/>
      <rect id="Rectangle_1820" data-name="Rectangle 1820" class="cls-9" width="130" height="2" transform="translate(1013 142)"/>
    </g>
    <g id="Icon_ionic-ios-close-circle-outline" data-name="Icon ionic-ios-close-circle-outline" transform="translate(1694.742 113.292)">
      <path id="Path_912" data-name="Path 912" class="cls-9" d="M28.684,26.314l-5.532-5.532,5.532-5.532a1.677,1.677,0,1,0-2.372-2.372L20.78,18.41l-5.532-5.532a1.677,1.677,0,0,0-2.372,2.372l5.532,5.532-5.532,5.532a1.622,1.622,0,0,0,0,2.372,1.666,1.666,0,0,0,2.372,0l5.532-5.532,5.532,5.532a1.685,1.685,0,0,0,2.372,0A1.666,1.666,0,0,0,28.684,26.314Z" transform="translate(4.428 4.426)"/>
      <path id="Path_913" data-name="Path 913" class="cls-9" d="M25.208,6.314a18.887,18.887,0,1,1-13.362,5.532A18.769,18.769,0,0,1,25.208,6.314m0-2.939A21.833,21.833,0,1,0,47.042,25.208,21.83,21.83,0,0,0,25.208,3.375Z"/>
    </g>
  </g>
</svg>
