<svg xmlns="http://www.w3.org/2000/svg" width="794.595" height="560.122" viewBox="0 0 794.595 560.122">
  <g id="Group_380" data-name="Group 380" transform="translate(0 0.003)">
    <g id="Rectangle_1818" data-name="Rectangle 1818" transform="translate(105.596 54.552)" fill="#ff6584" stroke="#707070" stroke-width="1">
      <rect width="689" height="379" rx="22" stroke="none"/>
      <rect x="0.5" y="0.5" width="688" height="378" rx="21.5" fill="none"/>
    </g>
    <path id="Path_620" data-name="Path 620" d="M366.886,216.6H316.2a18.4,18.4,0,0,0-18.38,18.38v54.957c-.648-.039-1.3-.1-1.935-.174a64.813,64.813,0,1,1,70.715-75.1C366.7,215.306,366.8,215.954,366.886,216.6Z" transform="translate(-190.75 -160.495)" fill="#6c63ff"/>
    <path id="Path_622" data-name="Path 622" d="M937.067,273.8H351.805a.967.967,0,0,1,0-1.935H937.067a.967.967,0,0,1,0,1.935Z" transform="translate(-194.437 -164.129)" fill="#3f3d56"/>
    <path id="Path_623" data-name="Path 623" d="M522.805,558.7a.967.967,0,0,1-.967-.967V239.462a.967.967,0,1,1,1.935,0V557.728a.967.967,0,0,1-.967.967Z" transform="translate(-200.016 -163.04)" fill="#3f3d56"/>
    <path id="Path_624" data-name="Path 624" d="M673.805,558.7a.967.967,0,0,1-.967-.967V239.462a.967.967,0,1,1,1.935,0V557.728A.967.967,0,0,1,673.805,558.7Z" transform="translate(-204.942 -163.04)" fill="#3f3d56"/>
    <path id="Path_625" data-name="Path 625" d="M824.805,558.7a.967.967,0,0,1-.967-.967V239.462a.967.967,0,1,1,1.935,0V557.728A.967.967,0,0,1,824.805,558.7Z" transform="translate(-209.869 -163.04)" fill="#3f3d56"/>
    <path id="Path_626" data-name="Path 626" d="M424.415,375.383H389.067a4.358,4.358,0,0,1-4.353-4.353V329.316a4.358,4.358,0,0,1,4.353-4.353h35.348a4.358,4.358,0,0,1,4.353,4.353v41.713A4.358,4.358,0,0,1,424.415,375.383Z" transform="translate(-195.542 -165.861)" fill="#6c63ff"/>
    <path id="Path_627" data-name="Path 627" d="M476.415,498.383H441.067a4.358,4.358,0,0,1-4.353-4.353V452.316a4.358,4.358,0,0,1,4.353-4.353h35.348a4.358,4.358,0,0,1,4.353,4.353v41.713a4.358,4.358,0,0,1-4.353,4.354Z" transform="translate(-197.238 -169.874)" fill="#6c63ff"/>
    <path id="Path_628" data-name="Path 628" d="M594.415,401.383H559.067a4.358,4.358,0,0,1-4.353-4.353V355.316a4.358,4.358,0,0,1,4.353-4.353h35.348a4.358,4.358,0,0,1,4.353,4.353v41.713a4.358,4.358,0,0,1-4.353,4.353Z" transform="translate(-201.088 -166.709)" fill="#6c63ff"/>
    <path id="Path_629" data-name="Path 629" d="M747.415,354.383H712.067a4.358,4.358,0,0,1-4.353-4.353V308.316a4.358,4.358,0,0,1,4.353-4.353h35.348a4.358,4.358,0,0,1,4.353,4.353v41.713A4.358,4.358,0,0,1,747.415,354.383Z" transform="translate(-206.08 -165.176)" fill="#6c63ff"/>
    <path id="Path_630" data-name="Path 630" d="M888.415,354.383H853.067a4.358,4.358,0,0,1-4.353-4.353V308.316a4.358,4.358,0,0,1,4.353-4.353h35.348a4.358,4.358,0,0,1,4.353,4.353v41.713A4.358,4.358,0,0,1,888.415,354.383Z" transform="translate(-210.68 -165.176)" fill="#6c63ff"/>
    <path id="Path_631" data-name="Path 631" d="M953.415,366.383H918.067a4.358,4.358,0,0,1-4.353-4.353V320.316a4.358,4.358,0,0,1,4.353-4.353h35.348a4.358,4.358,0,0,1,4.353,4.353v41.713A4.358,4.358,0,0,1,953.415,366.383Z" transform="translate(-212.801 -165.568)" fill="#fff"/>
    <path id="Path_632" data-name="Path 632" d="M924.415,443.383H889.067a4.358,4.358,0,0,1-4.353-4.353V397.316a4.358,4.358,0,0,1,4.353-4.353h35.348a4.358,4.358,0,0,1,4.353,4.353v41.713A4.358,4.358,0,0,1,924.415,443.383Z" transform="translate(-211.855 -168.08)" fill="#fff"/>
    <path id="Path_633" data-name="Path 633" d="M800.415,427.383H765.067a4.358,4.358,0,0,1-4.353-4.353V381.316a4.358,4.358,0,0,1,4.353-4.353h35.348a4.358,4.358,0,0,1,4.353,4.353v41.713a4.358,4.358,0,0,1-4.353,4.354Z" transform="translate(-207.809 -167.558)" fill="#fff"/>
    <path id="Path_634" data-name="Path 634" d="M729.415,443.383H694.067a4.358,4.358,0,0,1-4.353-4.353V397.316a4.358,4.358,0,0,1,4.353-4.353h35.348a4.358,4.358,0,0,1,4.353,4.353v41.713A4.358,4.358,0,0,1,729.415,443.383Z" transform="translate(-205.493 -168.08)" fill="#fff"/>
    <path id="Path_635" data-name="Path 635" d="M576.415,511.383H541.067a4.358,4.358,0,0,1-4.353-4.353V465.316a4.358,4.358,0,0,1,4.353-4.353h35.348a4.358,4.358,0,0,1,4.353,4.353v41.713A4.358,4.358,0,0,1,576.415,511.383Z" transform="translate(-200.501 -170.298)" fill="#fff"/>
    <path id="Path_636" data-name="Path 636" d="M391.415,454.383H356.067a4.358,4.358,0,0,1-4.353-4.353V408.316a4.358,4.358,0,0,1,4.353-4.353h35.348a4.358,4.358,0,0,1,4.353,4.353v41.713A4.358,4.358,0,0,1,391.415,454.383Z" transform="translate(-194.465 -168.439)" fill="#fff"/>
    <path id="Path_637" data-name="Path 637" d="M494.415,375.383H459.067a4.358,4.358,0,0,1-4.353-4.353V329.316a4.358,4.358,0,0,1,4.353-4.353h35.348a4.358,4.358,0,0,1,4.353,4.353v41.713A4.358,4.358,0,0,1,494.415,375.383Z" transform="translate(-197.826 -165.861)" fill="#fff"/>
    <path id="Path_638" data-name="Path 638" d="M463.848,257.234h-55.14a3.87,3.87,0,1,1,0-7.739h55.14a3.87,3.87,0,1,1,0,7.739Z" transform="translate(-196.198 -163.399)" fill="#fff"/>
    <path id="Path_639" data-name="Path 639" d="M624.848,257.234h-55.14a3.87,3.87,0,1,1,0-7.739h55.14a3.87,3.87,0,1,1,0,7.739Z" transform="translate(-201.451 -163.399)" fill="#fff"/>
    <path id="Path_640" data-name="Path 640" d="M775.848,257.234h-55.14a3.87,3.87,0,0,1,0-7.739h55.14a3.87,3.87,0,1,1,0,7.739Z" transform="translate(-206.378 -163.399)" fill="#fff"/>
    <path id="Path_641" data-name="Path 641" d="M916.848,257.234h-55.14a3.87,3.87,0,1,1,0-7.739h55.14a3.87,3.87,0,1,1,0,7.739Z" transform="translate(-210.978 -163.399)" fill="#fff"/>
    <path id="Path_642" data-name="Path 642" d="M337.051,549.081a9.728,9.728,0,0,1-8.416-12.316l-24.8-23.083,13.111-3.326,24.383,19.777a9.78,9.78,0,0,1-4.281,18.947Z" transform="translate(-192.903 -171.91)" fill="#ffb8b8"/>
    <path id="Path_643" data-name="Path 643" d="M184.4,564.71h11.86l5.642-45.745H184.4Z" transform="translate(-6.016 -16.932)" fill="#ffb8b8"/>
    <path id="Path_644" data-name="Path 644" d="M0,0H37.274V14.4H14.4A14.4,14.4,0,0,1,0,0H0Z" transform="translate(213.117 558.791) rotate(179.997)" fill="#2f2e41"/>
    <path id="Path_645" data-name="Path 645" d="M100.345,555.91l11.461,3.051,17.22-42.754-16.915-4.5Z" transform="translate(-3.274 -16.695)" fill="#ffb8b8"/>
    <path id="Path_646" data-name="Path 646" d="M0,0H37.274V14.4H14.4A14.4,14.4,0,0,1,0,0H0Z" transform="matrix(-0.966, -0.257, 0.257, -0.966, 127.803, 558.793)" fill="#2f2e41"/>
    <path id="Path_647" data-name="Path 647" d="M385.8,710.688h-18.1a4.575,4.575,0,0,1-4.572-4.153L352.147,592.451a3.625,3.625,0,0,0-7.082-.691l-31.9,106.6a4.588,4.588,0,0,1-5.514,3.14l-16.835-4.21a4.593,4.593,0,0,1-3.335-5.6c.275-1.074,27.484-107.406,27.721-108.5,6.165-45.435,13.54-57.611,17.5-64.151.328-.541.629-1.039.9-1.51.34-.589,2.43-6.428,3.757-10.22a4.633,4.633,0,0,1,2.356-2.88c16.649-8.515,36.129-2.621,41.7-.611a4.529,4.529,0,0,1,2.262,1.756c16.721,25.221,8.515,171.7,6.7,200.809a4.6,4.6,0,0,1-4.584,4.3Z" transform="translate(-192.365 -171.571)" fill="#2f2e41"/>
    <circle id="Ellipse_330" data-name="Ellipse 330" cx="23.76" cy="23.76" r="23.76" transform="translate(122.976 202.629)" fill="#ffb8b8"/>
    <path id="Path_648" data-name="Path 648" d="M337.286,509.53l-.171-.165c-.32-.31-31.977-31.323-27.88-60,1.752-12.266,11.677-20.1,28.7-22.666a26.25,26.25,0,0,1,29.021,18.5l16.832,57.544Z" transform="translate(-193.067 -169.171)" fill="#ccc"/>
    <path id="Path_649" data-name="Path 649" d="M320.609,532.22l-22.558-22.415a12.708,12.708,0,0,1-3.366-11.987l10.92-44.421a10.017,10.017,0,1,1,19.336,5.217l-11.5,39.078,18.591,19.963Z" transform="translate(-192.593 -169.803)" fill="#ccc"/>
    <path id="Path_650" data-name="Path 650" d="M445.065,455.588a9.728,9.728,0,0,1-14.4,3.9l-30.114,15.608,1.331-13.259,26.7-16.522a9.78,9.78,0,0,1,16.484,10.275Z" transform="translate(-196.059 -169.668)" fill="#ffb8b8"/>
    <path id="Path_651" data-name="Path 651" d="M425.486,465.13,396.13,477.816a12.391,12.391,0,0,1-12.07-1.295l-37.33-26.747a10.017,10.017,0,1,1,12.029-16.014l32.009,25.192,25.442-9.843Z" transform="translate(-194.166 -169.341)" fill="#ccc"/>
    <path id="Path_652" data-name="Path 652" d="M342.99,401.14c2.931-3.673,8.407-3.87,12.434-6.293,5.274-3.173,7.454-10.265,5.755-16.18s-6.712-10.526-12.458-12.731-12.14-2.232-18.2-1.166c-9.026,1.587-17.912,5.8-23.417,13.126s-6.906,18.057-1.917,25.744c2.293,3.533,5.832,6.45,6.748,10.561,1.2,5.4-2.584,10.6-6.64,14.362-4.621,4.282-9.922,7.868-13.971,12.695s-6.748,11.421-4.9,17.444c1.548,5.046,6.052,8.764,10.991,10.626s10.318,2.131,15.6,2.234c5.124.1,10.567-.024,14.884-2.788,4.621-2.958,7.089-8.569,7.271-14.053s-1.65-10.856-4.106-15.763c-1.464-2.924-3.166-5.758-4.139-8.881s-1.141-6.665.416-9.541c1.637-3.023,4.95-4.845,8.323-5.508.175-.034.361-.065.555-.093a7.157,7.157,0,0,0,6.127-8.346C341.954,404.447,341.987,402.4,342.99,401.14Z" transform="translate(-192.316 -167.138)" fill="#2f2e41"/>
    <path id="Path_653" data-name="Path 653" d="M482.639,565.757h-11.86l-5.642-45.745h17.5Z" transform="translate(-15.175 -16.966)" fill="#a0616a"/>
    <path id="Path_654" data-name="Path 654" d="M461.726,563.8H484.6v14.4H447.325A14.4,14.4,0,0,1,461.726,563.8Z" transform="translate(-14.594 -18.394)" fill="#2f2e41"/>
    <path id="Path_655" data-name="Path 655" d="M571.006,552.01l-10.787,4.927-24.14-39.265L552,510.4Z" transform="translate(-17.49 -16.652)" fill="#a0616a"/>
    <path id="Path_656" data-name="Path 656" d="M14.4,0H37.274V14.4H0A14.4,14.4,0,0,1,14.4,0Z" transform="translate(520.513 546.709) rotate(-24.548)" fill="#2f2e41"/>
    <path id="Path_657" data-name="Path 657" d="M725.113,566.783a9.728,9.728,0,0,0,.775-14.9l13.942-31.633-17.711,3-10.524,29.579a9.78,9.78,0,0,0,13.519,13.948Z" transform="translate(-206.135 -172.233)" fill="#a0616a"/>
    <path id="Path_658" data-name="Path 658" d="M670.872,709.469h-11.33a4.37,4.37,0,0,1-4.342-4.038l-6.179-164.994a4.353,4.353,0,0,1,4.765-4.648l65.525,6.959a4.354,4.354,0,0,1,3.93,4.25l1.373,72.781a3.377,3.377,0,0,0,.226,1.154l26.879,69.7a4.352,4.352,0,0,1-2.557,5.65l-11.481,4.23a4.354,4.354,0,0,1-5.376-2.094l-33.019-64.2a4.335,4.335,0,0,1-.391-1.105l-5.641-27.177a3.386,3.386,0,0,0-6.679.3L675.2,705.61a4.352,4.352,0,0,1-4.325,3.859Z" transform="translate(-204.165 -172.739)" fill="#2f2e41"/>
    <circle id="Ellipse_331" data-name="Ellipse 331" cx="23.76" cy="23.76" r="23.76" transform="translate(448.589 191.17)" fill="#a0616a"/>
    <path id="Path_659" data-name="Path 659" d="M692.748,551.678A84.8,84.8,0,0,1,647.4,537.943l-.231-.159.024-.28,9.089-105.846a14.918,14.918,0,0,1,14.123-13.6c11.779-.541,27.6.141,36.069,6.449,12.8,9.533,18.968,23.888,16.925,39.384-4.237,32.135.563,75.484,1.124,80.32l.041.349-.319.146a74.744,74.744,0,0,1-31.5,6.975Z" transform="translate(-204.105 -168.894)" fill="#6c63ff"/>
    <path id="Path_660" data-name="Path 660" d="M726.454,545.212a4.843,4.843,0,0,1-3.561-1.569l-5.2-5.67a4.862,4.862,0,0,1-1.073-4.639l11.851-40.111-18.032-37.867a8.522,8.522,0,0,1,15.2-7.7l24.469,39.7a11.561,11.561,0,0,1,.7,10.833l-19.937,44.175a4.825,4.825,0,0,1-3.643,2.786A4.883,4.883,0,0,1,726.454,545.212Z" transform="translate(-206.142 -169.718)" fill="#6c63ff"/>
    <path id="Path_661" data-name="Path 661" d="M553.765,468.852a9.728,9.728,0,0,0,14.509-3.461l34.282,4.446-7.879-16.144-31.347-1.747a9.78,9.78,0,0,0-9.566,16.906Z" transform="translate(-200.927 -169.979)" fill="#a0616a"/>
    <path id="Path_662" data-name="Path 662" d="M629.976,476.554a12.994,12.994,0,0,1-1.784-.123l-53.933-7.48a5.36,5.36,0,0,1-4.112-3.01,5.472,5.472,0,0,1-.307-.8h0a5.383,5.383,0,0,1,.556-4.287l4.463-7.4a5.4,5.4,0,0,1,4.6-2.6h.007l47.01.054,35.11-31.456a9.514,9.514,0,0,1,13.04,13.849l-35.033,38.964A12.928,12.928,0,0,1,629.976,476.554Z" transform="translate(-201.575 -168.865)" fill="#6c63ff"/>
    <path id="Path_663" data-name="Path 663" d="M679.094,402.689c2.171-5.025,4.008-11.717-.156-15.27-2.416-2.061-5.9-2.065-9.06-2.321-8.917-.722-18.1-4.825-22.453-12.637s-1.924-19.429,6.3-22.954c5.542-2.376,11.9-.757,17.7.888l17.418,4.939c5.175,1.468,10.609,3.086,14.335,6.967,5.942,6.189,5.5,16.65.778,23.815s-11.827,14.637-19.964,17.357Z" transform="translate(-204.044 -166.623)" fill="#2f2e41"/>
    <path id="Path_664" data-name="Path 664" d="M904.521,739.427H190.314a1.152,1.152,0,1,1,0-2.3H904.521a1.152,1.152,0,0,1,0,2.3Z" transform="translate(-189.162 -179.308)" fill="#3f3d56"/>
  </g>
</svg>
