<svg xmlns="http://www.w3.org/2000/svg" width="36.167" height="41.333" viewBox="0 0 36.167 41.333">
  <path id="Icon_awesome-book" data-name="Icon awesome-book" d="M36.167,29.063V1.938A1.933,1.933,0,0,0,34.229,0H7.75A7.752,7.752,0,0,0,0,7.75V33.583a7.752,7.752,0,0,0,7.75,7.75H34.229A1.933,1.933,0,0,0,36.167,39.4V38.1a1.953,1.953,0,0,0-.718-1.51,18,18,0,0,1,0-6.03A1.924,1.924,0,0,0,36.167,29.063ZM10.333,10.818a.486.486,0,0,1,.484-.484H27.932a.486.486,0,0,1,.484.484v1.615a.486.486,0,0,1-.484.484H10.818a.486.486,0,0,1-.484-.484Zm0,5.167a.486.486,0,0,1,.484-.484H27.932a.486.486,0,0,1,.484.484V17.6a.486.486,0,0,1-.484.484H10.818a.486.486,0,0,1-.484-.484ZM30.79,36.167H7.75A2.583,2.583,0,1,1,7.75,31H30.79A29.063,29.063,0,0,0,30.79,36.167Z" fill="#0eb582"/>
</svg>
