<svg xmlns="http://www.w3.org/2000/svg" width="59.8" height="59.8" viewBox="0 0 59.8 59.8">
  <g id="Icon_ionic-ios-chatbubbles" data-name="Icon ionic-ios-chatbubbles" transform="translate(-3.375 -3.375)">
    <path id="Path_618" data-name="Path 618" d="M53.415,42.561a3.483,3.483,0,0,1,.474-1.754,4.841,4.841,0,0,1,.3-.446,23.292,23.292,0,0,0,3.967-12.981C58.2,14.127,47.018,3.375,33.19,3.375c-12.061,0-22.123,8.208-24.481,19.1A23.1,23.1,0,0,0,8.177,27.4,24.385,24.385,0,0,0,32.759,51.7,29.6,29.6,0,0,0,39.543,50.6c1.624-.446,3.234-1.035,3.651-1.193a3.8,3.8,0,0,1,1.337-.244,3.737,3.737,0,0,1,1.452.288l8.151,2.889a1.944,1.944,0,0,0,.561.144,1.144,1.144,0,0,0,1.15-1.15,1.847,1.847,0,0,0-.072-.388Z" transform="translate(5.016)" fill="#6c63ff"/>
    <path id="Path_619" data-name="Path 619" d="M42.259,42.946c-.517.144-1.179.3-1.9.46a26.531,26.531,0,0,1-4.887.647A24.385,24.385,0,0,1,10.893,19.745a27.177,27.177,0,0,1,.216-3.076c.086-.618.187-1.236.331-1.84.144-.647.316-1.294.5-1.926l-1.15,1.021A21.393,21.393,0,0,0,3.375,30.009,21.154,21.154,0,0,0,6.94,41.8c.331.5.517.891.46,1.15s-1.711,8.912-1.711,8.912a1.153,1.153,0,0,0,.388,1.107,1.171,1.171,0,0,0,.733.259,1.031,1.031,0,0,0,.417-.086l8.064-3.177a2.246,2.246,0,0,1,.819-.158,2.269,2.269,0,0,1,.906.187,24.193,24.193,0,0,0,8.726,1.725,22.577,22.577,0,0,0,17.264-7.921s.46-.632.992-1.38C43.467,42.6,42.863,42.788,42.259,42.946Z" transform="translate(0 9.951)" fill="#ff6584"/>
  </g>
</svg>
