<svg xmlns="http://www.w3.org/2000/svg" width="56.255" height="60" viewBox="0 0 56.255 60">
  <path id="Icon_awesome-shield-alt" data-name="Icon awesome-shield-alt" d="M53.923,9.808,31.421.432a5.643,5.643,0,0,0-4.325,0L4.594,9.808A5.619,5.619,0,0,0,1.125,15c0,23.264,13.419,39.344,25.96,44.571a5.643,5.643,0,0,0,4.325,0C41.453,55.387,57.38,40.936,57.38,15A5.627,5.627,0,0,0,53.923,9.808ZM29.264,52.3,29.253,7.652l20.615,8.591c-.387,17.744-9.622,30.6-20.6,36.062Z" transform="translate(-1.125 -0.002)" fill="#6c63ff"/>
</svg>
