<svg xmlns="http://www.w3.org/2000/svg" xmlns:xlink="http://www.w3.org/1999/xlink" width="1920" height="1080" viewBox="0 0 1920 1080">
  <defs>
    <style>
      .cls-1 {
        clip-path: url(#clip-success);
      }

      .cls-2 {
        fill: #ff95a9;
      }

      .cls-3, .cls-39 {
        fill: #fff;
      }

      .cls-29, .cls-37, .cls-38, .cls-4, .cls-5 {
        fill: #6c63ff;
      }

      .cls-5 {
        opacity: 0.12;
      }

      .cls-6 {
        fill: url(#linear-gradient);
      }

      .cls-7 {
        fill: #444176;
      }

      .cls-10, .cls-29, .cls-31, .cls-8 {
        opacity: 0.1;
      }

      .cls-9 {
        fill: #565387;
      }

      .cls-11 {
        fill: #ced2df;
      }

      .cls-12 {
        fill: #88455e;
      }

      .cls-13 {
        fill: #ec8c9c;
      }

      .cls-14 {
        fill: #ebf1f6;
      }

      .cls-15, .cls-31 {
        fill: #0eb582;
      }

      .cls-16 {
        fill: url(#linear-gradient-2);
      }

      .cls-17 {
        fill: url(#linear-gradient-3);
      }

      .cls-18 {
        fill: #ffbdc6;
      }

      .cls-19 {
        fill: #7679b4;
      }

      .cls-20 {
        fill: #a66477;
      }

      .cls-21 {
        fill: #f2f1f2;
      }

      .cls-22 {
        fill: #565388;
      }

      .cls-23 {
        fill: url(#linear-gradient-4);
      }

      .cls-24 {
        fill: #493545;
      }

      .cls-25 {
        opacity: 0.05;
      }

      .cls-26 {
        fill: #3e3d77;
      }

      .cls-27 {
        fill: #c77485;
      }

      .cls-28 {
        fill: #fa92a5;
      }

      .cls-30, .cls-33 {
        fill: none;
        stroke-miterlimit: 10;
      }

      .cls-30 {
        stroke: #535461;
        stroke-width: 2px;
      }

      .cls-32 {
        fill: #dee3f3;
        opacity: 0.5;
      }

      .cls-33 {
        stroke: #6c63ff;
      }

      .cls-34 {
        fill: #a8a8a8;
      }

      .cls-35 {
        opacity: 0.2;
      }

      .cls-36 {
        fill: #ffd037;
      }

      .cls-37 {
        font-size: 46px;
      }

      .cls-37, .cls-38 {
        font-family: OpenSans, Open Sans;
      }

      .cls-38 {
        font-size: 38px;
      }

      .cls-39 {
        font-size: 22px;
        font-family: Arial-BoldMT, Arial;
        font-weight: 700;
      }

      .cls-40 {
        fill: #fdfdfd;
      }

      .cls-41 {
        filter: url(#Rectangle_1090);
      }

      .cls-42 {
        filter: url(#Rectangle_1816);
      }
    </style>
    <filter id="Rectangle_1816" x="0" y="-43" width="1920" height="1172" filterUnits="userSpaceOnUse">
      <feOffset dy="3" input="SourceAlpha"/>
      <feGaussianBlur stdDeviation="35" result="blur"/>
      <feFlood flood-opacity="0.129"/>
      <feComposite operator="in" in2="blur"/>
      <feComposite in="SourceGraphic"/>
    </filter>
    <linearGradient id="linear-gradient" x1="0.5" y1="1" x2="0.5" gradientUnits="objectBoundingBox">
      <stop offset="0" stop-color="gray" stop-opacity="0.251"/>
      <stop offset="0.54" stop-color="gray" stop-opacity="0.122"/>
      <stop offset="1" stop-color="gray" stop-opacity="0.102"/>
    </linearGradient>
    <linearGradient id="linear-gradient-2" x1="0.495" y1="1.014" x2="0.495" y2="0" xlink:href="#linear-gradient"/>
    <linearGradient id="linear-gradient-3" x1="0.5" y1="1" x2="0.5" y2="0" xlink:href="#linear-gradient"/>
    <linearGradient id="linear-gradient-4" x1="0.5" y1="1" x2="0.5" y2="0" xlink:href="#linear-gradient"/>
    <filter id="Rectangle_1090" x="837" y="811" width="217" height="81" filterUnits="userSpaceOnUse">
      <feOffset dy="3" input="SourceAlpha"/>
      <feGaussianBlur stdDeviation="3" result="blur-2"/>
      <feFlood flood-opacity="0.161"/>
      <feComposite operator="in" in2="blur-2"/>
      <feComposite in="SourceGraphic"/>
    </filter>
    <clipPath id="clip-success">
      <rect width="1920" height="1080"/>
    </clipPath>
  </defs>
  <g id="success" class="cls-1">
    <rect class="cls-40" width="1920" height="1080"/>
    <path id="Path_908" data-name="Path 908" class="cls-2" d="M0,0H1920V1080H0Z" transform="matrix(-0.485, 0.875, -0.875, -0.485, 2569.711, 77.163)"/>
    <g class="cls-42" transform="matrix(1, 0, 0, 1, 0, 0)">
      <rect id="Rectangle_1816-2" data-name="Rectangle 1816" class="cls-3" width="1710" height="962" rx="35" transform="translate(105 59)"/>
    </g>
    <g id="Group_430" data-name="Group 430" transform="translate(0 -49)">
      <g id="undraw_celebration_0jvk" transform="translate(680.439 249.079)">
        <circle id="Ellipse_370" data-name="Ellipse 370" class="cls-4" cx="27.36" cy="27.36" r="27.36" transform="translate(28.617 11.508)"/>
        <path id="Path_916" data-name="Path 916" class="cls-5" d="M191.166,213.8c11.488,25.947-3.166,55.826-20.415,78.325-5.773,7.545-12.147,15.454-12.947,24.918-.965,11.576,6.874,22.216,16.172,29.173a68.1,68.1,0,0,0,60.311,10.2c17.443-5.526,32.109-18.009,49.706-23.04,29.426-8.428,60.617,5.544,85.817,22.952,17.838,12.306,36.941,27.3,58.445,24.665,15.131-1.854,27.972-12.476,36.688-24.982,4.208-6.038,7.868-12.806,13.995-16.879a35.032,35.032,0,0,1,12.2-4.626c39.071-8.351,80.538,12.029,119.091,1.548,26.042-7.062,46.8-27.66,59.716-51.359s18.938-50.459,23.958-76.972c3.566-18.832,6.527-39.177-1.671-56.5-8.675-18.338-28.755-29.455-48.935-31.538s-40.419,3.666-59.01,11.776c-23.229,10.158-46,24.376-71.351,24.423-17.267.035-33.734-6.591-50.241-11.647-27.6-8.445-56.3-12.641-84.9-16.514-27.383-3.708-55.038-7.156-82.586-4.967-19.492,1.548-36.705,9-55.62,12.447-12.329,2.248-24.718.589-36.817,4.355-14.9,4.661-30.226,15.46-31.05,32.468C170.939,188.222,185.075,200.039,191.166,213.8Z" transform="translate(-138.532 -119.24)"/>
        <path id="Path_917" data-name="Path 917" class="cls-6" d="M610.383,290.287c-2.513-6.55-8.992-21.946-13.259-18.891-5.391,3.861,5.391,20.916,5.391,20.916.306,3.131-5.756,9.646-9,12.894V304.8a1.414,1.414,0,0,1-.141.353l-.271-.147a1.766,1.766,0,0,1-.383.7,6.878,6.878,0,0,0-.029-.7c-.624,2.642-11.511,5.991-11.511,5.991h-.8c-3.025,0-10.9-.683-14.548-6.521a32.286,32.286,0,0,0-7.139-8.327,6.079,6.079,0,0,0-3.384-1.283,43.541,43.541,0,0,1-19.874-6.839l-.3-.206-.065.188c-.383-.547-.753-1.13-1.1-1.73h0l-.177-.324a14.783,14.783,0,0,0,8.151-13.147V272.5a10.067,10.067,0,0,0,1.354-5.044v-1.766l2.3-2.048a9.463,9.463,0,0,0,2.678-3.213,3.808,3.808,0,0,0,.282-1.648,2.854,2.854,0,0,0-1.083-2.554c-1.766-1.218-4.708,0-5.985-1.695-.588-.765-.482-1.807-.771-2.707-.589-1.83-2.707-2.819-4.667-2.848a20.161,20.161,0,0,0-5.72,1.218,33.587,33.587,0,0,1-12.182,1.142,7.956,7.956,0,0,0-3.337.118,4.6,4.6,0,0,0-2.707,3.149,7.4,7.4,0,0,0-.259,1.613,10.146,10.146,0,0,0-2.554,6.715v4.526a10.14,10.14,0,0,0,2.442,6.586,14.713,14.713,0,0,0,6.162,10.734v.359l.076.047a24.331,24.331,0,0,1-.647,4.161v-.3s-8.239,4.384-17.067,4.49h-.971a6.574,6.574,0,0,0-4.708,1.766c-2.613,2.46-7.192,6.35-10,6.35-.589,0-15.443,2.9-17.9,3.384l-4.6-4.5-.141.265-.271-.265a11.184,11.184,0,0,0-1.495.218,35.622,35.622,0,0,1-8.151-17.979s10.164-11.576,6.427-22.363c-3.19-9.193-11.976,10.511-14.472,16.449a4.743,4.743,0,0,0-.153,3.266l8.257,26.612a12.483,12.483,0,0,0-.653,6.474h-.094l6.015,7.715a31.757,31.757,0,0,0,11.605,1.895,40.571,40.571,0,0,0,15.148-2.907h1.395l-.265.1h7.162l4.555,13.777c-.153,1.253-2.354,18.75-4.12,22.664a9.834,9.834,0,0,0-.694,4.12,31.453,31.453,0,0,0,1.312,7.974l3.99-.147-.153.312c-3.378,6.927-9.022,19.268-12.359,30.8l-5.809,11.77,4.355,52.79h.177l.335.053h0c.471.071,1.177.177,2.107.294l-.341.589-9.6,15.89s-6.844,14.013,8.3,11.37c0,0,5.6-1.624,7.88-11.182l9.958-9.34s.465-6.2-2.354-8.68c-.177-2.866-.624-11.235.065-13.247.83-2.436-3.531-30.455-3.531-30.455s15.76-32.692,25.306-33.5a5.232,5.232,0,0,1,2.066.271c7.845,2.554,17.349,21.522,20.145,27.425h0l.129.271v.053l.106.229v.065l.094.2v.053l.082.182v.041l.071.147v.059l.053.112v.047l.035.082v.1h0l.029.071,1.242,36.753h0l.124.065H546l-.106.759-.541,3.8s6.844,14.419,6.427,16.243,4.561,9.14,11.611,7.109,2.854-13.477,2.854-13.477l-6.791-13.995-.3-.624a13.349,13.349,0,0,0,1.907-1.418s-2.072-15.025,0-18.273,2.7-18.073,2.7-18.073-1.454-10.152-3.943-14.619l-10.428-37.223c3.125,2.907,5.555,4.043,7.586,3.967h.336a5.068,5.068,0,0,0,2.554-.636,7.2,7.2,0,0,0,1.177-.83,1.855,1.855,0,0,0,.194-.194h0c2.9-2.436-3.319-11.982-6.844-17.655-3.4-5.473,1.283-20.345,1.636-21.451a5.618,5.618,0,0,1,1.006-.588,6.209,6.209,0,0,1,2.307-.5c3.378.118,7.533,2.06,12.677,3.037a59.807,59.807,0,0,0,10.823.842h.212c1.442,0,2.748-.029,3.808-.071a6.433,6.433,0,0,0,2.766-.747h0a8.351,8.351,0,0,0,1.966-1.589l9.028-10.2-.235.112a5.072,5.072,0,0,0,0-3.59l9.54-16.478A6.268,6.268,0,0,0,610.383,290.287Z" transform="translate(-256.166 -172.618)"/>
        <path id="Path_918" data-name="Path 918" class="cls-7" d="M526.2,618.313l-9.61,9.21c-2.2,9.416-7.609,11.011-7.609,11.011-14.613,2.6-8.01-11.182-8.01-11.182l9.269-15.684,1.142-1.936s6.609-2,11.011-.8a3.768,3.768,0,0,1,1.5.812C526.652,612.139,526.2,618.313,526.2,618.313Z" transform="translate(-279.162 -320.576)"/>
        <path id="Path_919" data-name="Path 919" class="cls-7" d="M633.4,617.964c-6.809,2-11.611-5.2-11.182-7.009s-6.221-16-6.221-16l.518-3.743L617,587.75l11.182.8,1.054,2.213,6.556,13.8S640.211,615.963,633.4,617.964Z" transform="translate(-327.108 -312.018)"/>
        <path id="Path_920" data-name="Path 920" class="cls-8" d="M531.524,611.289c-1.053,1.807-9.593.895-13.753.33l1.142-1.936s6.609-2,11.011-.8a3.767,3.767,0,0,1,1.5.812C531.482,610.671,531.524,611.289,531.524,611.289Z" transform="translate(-286.688 -320.556)"/>
        <path id="Path_921" data-name="Path 921" class="cls-8" d="M629.6,590.743c-5.726,3.813-11.823.93-12.741.453l.483-3.466,11.182.8Z" transform="translate(-327.462 -312.01)"/>
        <path id="Path_922" data-name="Path 922" class="cls-9" d="M585.879,504.638c-2,3.2,0,18.02,0,18.02-6.609,6.009-14.413,1.6-14.413,1.6l-1.177-36.235s-13.012-29.832-22.222-29.031-24.423,33.033-24.423,33.033,4.2,27.625,3.4,30.014,0,14.012,0,14.012c-1.4,2.4-16.013,0-16.013,0L506.83,484l5.579-11.617c3.207-11.37,8.657-23.54,11.917-30.367,1.618-3.4,2.7-5.467,2.7-5.467l10.652-2.219,34.575-7.168,12.423,45.221c2.4,4.4,3.8,14.413,3.8,14.413S587.88,501.436,585.879,504.638Z" transform="translate(-282.186 -245.937)"/>
        <g id="Group_423" data-name="Group 423" class="cls-10" transform="translate(224.621 181.199)">
          <path id="Path_923" data-name="Path 923" d="M604.9,546.505l-1.177-36.235s-13.012-29.832-22.222-29.031a5.016,5.016,0,0,0-1.206.271c8.981,2.984,20.227,28.761,20.227,28.761l1.177,36.235a14.126,14.126,0,0,0,7.963,1.454,14.168,14.168,0,0,1-4.761-1.454Z" transform="translate(-537.034 -449.383)"/>
          <path id="Path_924" data-name="Path 924" d="M514.193,536.054,509.992,484l5.6-11.635c3.207-11.37,8.657-23.54,11.917-30.367,1.618-3.4,2.7-5.467,2.7-5.467l10.652-2.219,31.562-6.562-.171-.63-34.593,7.192-10.652,2.219s-1.083,2.072-2.7,5.467c-3.272,6.827-8.71,19.021-11.917,30.367l-5.6,11.611,4.2,52.054s7.98,1.312,12.712,1.024A94.6,94.6,0,0,1,514.193,536.054Z" transform="translate(-506.79 -427.12)"/>
        </g>
        <path id="Path_925" data-name="Path 925" class="cls-11" d="M471.033,338.21s-11.411.589-9.81,12.612l3.2.4,4.8-5.2,2.4-4.4v-1Z" transform="translate(-263.355 -209.335)"/>
        <path id="Path_926" data-name="Path 926" class="cls-8" d="M471.033,338.21s-11.411.589-9.81,12.612l3.2.4,4.8-5.2,2.4-4.4v-1Z" transform="translate(-263.355 -209.335)"/>
        <path id="Path_927" data-name="Path 927" class="cls-11" d="M693.3,345.69s9.416,5,7.009,10.811l-3,1.177-4-2.2-.589-5.2.4-3.6Z" transform="translate(-358.677 -212.413)"/>
        <path id="Path_928" data-name="Path 928" class="cls-8" d="M693.3,345.69s9.416,5,7.009,10.811l-3,1.177-4-2.2-.589-5.2.4-3.6Z" transform="translate(-358.677 -212.413)"/>
        <rect id="Rectangle_1821" data-name="Rectangle 1821" class="cls-12" width="32.833" height="24.823" rx="12.412" transform="translate(253.746 81.623)"/>
        <path id="Path_929" data-name="Path 929" class="cls-13" d="M465.752,310.581l-7.009,11.182-.589-1.989-9.522-31.026a4.773,4.773,0,0,1,.147-3.219c2.407-5.85,10.893-25.306,13.971-16.213,3.6,10.593-6.209,22.022-6.209,22.022a35.264,35.264,0,0,0,8.375,18.326C465.434,310.269,465.752,310.581,465.752,310.581Z" transform="translate(-258.151 -180.005)"/>
        <path id="Path_930" data-name="Path 930" class="cls-13" d="M691.16,324.367s11.011-10.411,10.593-14.613c0,0-10.411-16.814-5.2-20.6,4.12-3.013,10.375,12.17,12.8,18.626a6.3,6.3,0,0,1-.418,5.3l-13.159,23.3Z" transform="translate(-358.035 -188.989)"/>
        <path id="Path_931" data-name="Path 931" class="cls-13" d="M566.721,299.924s2,12.812-3.8,17.62,16.62,4.779,16.62,4.779l8.01-7.409s-9.21-8.61-6.409-15.013Z" transform="translate(-304.871 -193.571)"/>
        <path id="Path_932" data-name="Path 932" class="cls-8" d="M557.813,324.21s8.61,6.409,17.214-.8l14.012,29.031-.8,35.434s-29.031,15.013-41.043,5.809-2-14.012-2-14.012l-2.8-27.225,3-17.62s5.4-8.41,5.809-8.41S557.813,324.21,557.813,324.21Z" transform="translate(-296.364 -203.245)"/>
        <path id="Path_933" data-name="Path 933" class="cls-14" d="M557.818,323.53s8.61,6.421,17.22-.8l14.012,29.031-.8,35.434S559.218,402.209,547.207,393s-2-14.012-2-14.012l-2.8-27.225,3-17.62s5.4-8.41,5.809-8.41S557.818,323.53,557.818,323.53Z" transform="translate(-296.368 -202.965)"/>
        <path id="Path_934" data-name="Path 934" class="cls-8" d="M525.135,319s-8.163,4.649-17.026,4.42a6.274,6.274,0,0,0-4.526,1.73c-2.525,2.425-6.944,6.262-9.681,6.262-.589,0-17.62,3.4-17.62,3.4l-4.5-4.5s-6.709,13.112-9.91,12.512l5.809,7.609s11.011,4.8,25.424-1h8.41l4.4,13.612s-2.2,18.42-4,22.422.589,11.811.589,11.811l15.813-.589s.8-7.81,2-8.828-4.2-35.434-4.2-35.434-3.6-19.421,9.61-26.424Z" transform="translate(-263.685 -201.431)"/>
        <path id="Path_935" data-name="Path 935" class="cls-8" d="M549.907,439.38a52.276,52.276,0,0,0-1.242,7.221l-12.106.459c1.618-3.4,2.7-5.467,2.7-5.467Z" transform="translate(-294.419 -250.965)"/>
        <path id="Path_936" data-name="Path 936" class="cls-8" d="M472.558,340.454l-7.009,11.182-.589-1.989c2.572-2.554,5.585-7.892,6.785-10.117A11.866,11.866,0,0,0,472.558,340.454Z" transform="translate(-264.957 -209.878)"/>
        <path id="Path_937" data-name="Path 937" class="cls-15" d="M524.843,319s-8.569,4.649-17.426,4.42a6.274,6.274,0,0,0-4.526,1.73c-2.525,2.425-6.944,6.262-9.681,6.262-.589,0-17.62,3.4-17.62,3.4l-4.52-4.508s-6.709,13.112-9.911,12.512l5.809,7.609s11.011,4.8,25.424-1h8.41l4.4,13.606s-2.2,18.42-4,22.422.589,11.811.589,11.811l15.813-.588s.8-7.81,2-8.828-4.2-35.434-4.2-35.434-3.6-19.421,9.61-26.424Z" transform="translate(-263.393 -201.431)"/>
        <path id="Path_938" data-name="Path 938" class="cls-8" d="M596.7,316.94a38.958,38.958,0,0,0,19.074,6.944,5.8,5.8,0,0,1,3.266,1.265,31.614,31.614,0,0,1,6.891,8.239c4.4,7.209,15.213,6.409,15.213,6.409s10.511-3.3,11.111-5.885c0,0,.3,14.124,6.909,10.711l-8.692,10.016a6.132,6.132,0,0,1-4.384,2.113,64.442,64.442,0,0,1-13.73-.759c-7.209-1.4-12.412-4.8-16.214-1.8,0,0-5,15.613-1.6,21.222s9.416,15.013,6.609,17.42-6.209,2.2-11.811-3.6-6.209-15.613-6.209-15.613l1.4-25.224s-5.4-19.021-10.593-22.822Z" transform="translate(-318.031 -200.583)"/>
        <path id="Path_939" data-name="Path 939" class="cls-8" d="M660.5,344.506l-8.716,10.058a6.125,6.125,0,0,1-2.1,1.565h0a6.1,6.1,0,0,1-2.272.536,63.686,63.686,0,0,1-13.73-.759c-6.744-1.312-11.735-4.373-15.466-2.307a5.461,5.461,0,0,0-.753.5s-5,15.613-1.6,21.222,9.416,15.013,6.609,17.42a6.474,6.474,0,0,1-1.565,1.018c-2.519,1.136-5.644.153-10.246-4.62-5.6-5.809-6.209-15.613-6.209-15.613l1.4-25.224s-5.4-19.021-10.593-22.823l2.289-8.21a41.563,41.563,0,0,0,19.185,6.744A5.8,5.8,0,0,1,620,325.28a31.637,31.637,0,0,1,6.892,8.239c4.4,7.209,15.213,6.409,15.213,6.409a58.426,58.426,0,0,0,7.574-3.013h0a11.543,11.543,0,0,0,3.531-2.354,1.767,1.767,0,0,0,.383-.706S653.9,347.908,660.5,344.506Z" transform="translate(-318.574 -200.719)"/>
        <path id="Path_940" data-name="Path 940" class="cls-15" d="M659.81,344.575l-8.71,10.069a6.125,6.125,0,0,1-1.7,1.365h0a6.109,6.109,0,0,1-2.672.736,63.681,63.681,0,0,1-13.73-.759c-6.5-1.265-11.382-4.161-15.06-2.507a5.445,5.445,0,0,0-1.177.7s-5,15.613-1.6,21.222,9.416,15.013,6.609,17.42a6.943,6.943,0,0,1-1.177.818c-2.589,1.43-5.791.589-10.646-4.42-5.6-5.809-6.209-15.613-6.209-15.613l1.4-25.224s-5.4-19.021-10.593-22.823l2.4-8.61.288.2a41.561,41.561,0,0,0,19.185,6.744,5.8,5.8,0,0,1,3.266,1.265,31.636,31.636,0,0,1,6.891,8.239c4.4,7.209,15.213,6.409,15.213,6.409a58.435,58.435,0,0,0,7.574-3.013h0c1.818-.93,3.3-1.948,3.531-2.878v.506C653.078,336.853,653.96,347.582,659.81,344.575Z" transform="translate(-318.281 -200.587)"/>
        <path id="Path_941" data-name="Path 941" class="cls-8" d="M584.563,300.45H569.85a36,36,0,0,1,.277,7.062,15.125,15.125,0,0,0,15.549,1.118C584.263,306.017,583.4,303.051,584.563,300.45Z" transform="translate(-308.118 -193.797)"/>
        <circle id="Ellipse_371" data-name="Ellipse 371" class="cls-13" cx="14.613" cy="14.613" r="14.613" transform="translate(256.047 86.932)"/>
        <path id="Path_942" data-name="Path 942" class="cls-8" d="M571.858,273.026c1.63-.194,3.26-.771,4.867-.447,1.46.294,2.7,1.3,4.161,1.607,2.813.589,5.426-1.483,7.551-3.413l4.59-4.178a9.367,9.367,0,0,0,2.589-3.166,3.178,3.178,0,0,0-.777-3.743c-1.677-1.177-4.567,0-5.779-1.671-.547-.753-.465-1.766-.747-2.666-.588-1.8-2.613-2.784-4.508-2.807a19.94,19.94,0,0,0-5.52,1.177,31.78,31.78,0,0,1-11.77,1.124,7.521,7.521,0,0,0-3.219.112,4.5,4.5,0,0,0-2.613,3.1c-.906,3.2.641,8.363,2.2,11.229S568.756,273.408,571.858,273.026Z" transform="translate(-304.234 -174.083)"/>
        <path id="Path_943" data-name="Path 943" class="cls-12" d="M571.858,272.346c1.63-.194,3.26-.771,4.867-.447,1.46.294,2.7,1.3,4.161,1.607,2.813.589,5.426-1.483,7.551-3.413l4.59-4.178a9.367,9.367,0,0,0,2.589-3.166,3.178,3.178,0,0,0-.777-3.743c-1.677-1.177-4.567,0-5.779-1.671-.547-.753-.465-1.766-.747-2.666-.588-1.8-2.613-2.784-4.508-2.807a19.942,19.942,0,0,0-5.52,1.177,31.78,31.78,0,0,1-11.77,1.124,7.521,7.521,0,0,0-3.219.112,4.5,4.5,0,0,0-2.613,3.1c-.906,3.2.641,8.363,2.2,11.229S568.756,272.7,571.858,272.346Z" transform="translate(-304.234 -173.803)"/>
        <path id="Path_944" data-name="Path 944" class="cls-8" d="M536.55,394s3.2.4,4.8,2.4a8.627,8.627,0,0,0,4.4,2.6" transform="translate(-294.415 -232.292)"/>
        <path id="Path_945" data-name="Path 945" class="cls-8" d="M487.48,349.09s2.613,5.832,1,6.421-1,4.8-1,4.8" transform="translate(-274.177 -213.812)"/>
        <g id="Group_424" data-name="Group 424" class="cls-10" transform="translate(214.022 117.664)">
          <path id="Path_946" data-name="Path 946" d="M488.962,337.865s17.014-3.4,17.6-3.4c2.742,0,7.156-3.837,9.681-6.262a6.178,6.178,0,0,1,2.742-1.524h-.218a6.273,6.273,0,0,0-4.526,1.73c-2.525,2.425-6.945,6.262-9.681,6.262-.477,0-11.364,2.16-15.784,3.037Z" transform="translate(-488.78 -322.252)"/>
          <path id="Path_947" data-name="Path 947" d="M560.291,319.907v-.747a42.479,42.479,0,0,1-13.041,4.173A40.3,40.3,0,0,0,560.291,319.907Z" transform="translate(-512.84 -319.16)"/>
          <path id="Path_948" data-name="Path 948" d="M526.722,418.366s-2.4-7.81-.589-11.811,4-22.422,4-22.422l-4.39-13.612h-8.433l-.512.2h6.915l4.384,13.618s-2.2,18.42-4,22.422.589,11.811.589,11.811l15.813-.589v-.124Z" transform="translate(-500.31 -340.294)"/>
        </g>
        <g id="Group_425" data-name="Group 425" class="cls-10" transform="translate(285.661 144)">
          <path id="Path_949" data-name="Path 949" d="M628.542,427.785a6.935,6.935,0,0,1-1.177.818c-2.589,1.43-5.791.589-10.646-4.42-4.449-4.608-5.744-11.77-6.091-14.483l-.118,2.072s.589,9.81,6.209,15.613c4.855,5.026,8.057,5.85,10.646,4.42a6.939,6.939,0,0,0,1.177-.818c.842-.724.889-2.083.447-3.778A1.852,1.852,0,0,1,628.542,427.785Z" transform="translate(-610.51 -382.752)"/>
          <path id="Path_950" data-name="Path 950" d="M670.712,364.2l-5.667,6.55a6.127,6.127,0,0,1-1.695,1.365h0a6.109,6.109,0,0,1-2.672.736,63.685,63.685,0,0,1-13.73-.759c-6.5-1.265-11.382-4.161-15.06-2.507a5.446,5.446,0,0,0-1.177.7s-3.231,10.087-2.737,16.955a66.215,66.215,0,0,1,2.737-13.753,5.444,5.444,0,0,1,1.177-.7c3.684-1.654,8.557,1.242,15.06,2.507a64.43,64.43,0,0,0,13.73.759,6.109,6.109,0,0,0,2.672-.736h0a6.127,6.127,0,0,0,1.695-1.348l8.716-10.058A3.431,3.431,0,0,1,670.712,364.2Z" transform="translate(-617.675 -363.91)"/>
        </g>
        <path id="Path_951" data-name="Path 951" class="cls-16" d="M265.74,486.89a.453.453,0,0,0,.536.071A1.824,1.824,0,0,1,265.74,486.89Z" transform="translate(-182.98 -270.515)"/>
        <path id="Path_952" data-name="Path 952" class="cls-17" d="M267.835,300.557c-1.059-.306-2.572-.806-4.39-1.442a23.024,23.024,0,0,0,4.067-8.192l-.153.059c.053-.182.106-.359.153-.547-3.49,1.418-7.351-.983-9.811-4.067s-4.12-6.909-6.815-9.746a31.2,31.2,0,0,0-3.613-3.113,5,5,0,0,0-2.619-1.283c-1.571-.047-2.8,1.495-4.314,1.948a5.886,5.886,0,0,1-3.007-.112c-3.9-.895-7.651-2.548-11.635-2.984a13.636,13.636,0,0,0-6.315.712c-2,.759-2.913,2.272-4.532,3.484-1.766,1.3-5.214,1.271-7.268,1.5a52.082,52.082,0,0,1-7.509.312,17.576,17.576,0,0,0-4.32.159c-2.984.653-5.379,3.025-7.615,5.3a3.925,3.925,0,0,0-1.259,1.971,2.49,2.49,0,0,0,0,.653,4.243,4.243,0,0,0,.3,1.736,22.952,22.952,0,0,0,2.89,5.75,16.606,16.606,0,0,1,2.5,4.084,7.927,7.927,0,0,1,.383,2.354,17.122,17.122,0,0,1-.265,2.531,31.781,31.781,0,0,1-1.936,6.738,12.24,12.24,0,0,0-1.13,3.531,5.63,5.63,0,0,0,0,.753c-.147,3.884,3.772,6.68,4.532,10.54a6.3,6.3,0,0,1,.112.971,6.576,6.576,0,0,1-3.478,5.7c.177.071.359.13.541.188a4.906,4.906,0,0,1-.541.294,10.971,10.971,0,0,0,1.13.365,26.249,26.249,0,0,0-5.714,7.062c-6.809,12.677-52.925,37.506-52.925,37.506l.683.388-.553.359c-3.99,2.654-13.353,10.393-4.891,20.18,0,0,6.609-10.428,11.241-14.872.206-.2.412-.383.589-.553a1.354,1.354,0,0,1,.177,1.071l30.32-17.037s10.776-7.545,13.783-9.245a24.805,24.805,0,0,1,6.833-2.943l-.353.147a13.845,13.845,0,0,1,3.478-.494c5.367.082,11.182,4.014,13.094,19.58,2.566,20.845,1.377,24.606.553,25.118a1.513,1.513,0,0,1-.3-.053.511.511,0,0,0,.082.059,1.576,1.576,0,0,1-.33-.059.471.471,0,0,0,.447.106.418.418,0,0,0,.335-.041h0a3.494,3.494,0,0,0,.406,0,4.329,4.329,0,0,1-.041.589c-.041,0-.241.112,0,.124h0c-.065,1.177-.059,2.454,0,3.79-2.666.147-5.332.306-7.651.447l.206-1.1.094-.494c2.048-.165,3.99-.765,4.22-2.425.5-3.649-4.508-5.6-8.769-5.838s-29.814,1.46-29.814,1.46-3.831,4.961,8.322,6.474l1.124.589a135.079,135.079,0,0,1,14.313,10.169l.43.341-1.389,1.13c7.515,1.7,14.783,30.42,18.791,43.55s12.777,12.653,20.045,10.705c6.809-1.824,7.651-21.6,7.762-24.082v-.253l12.112,14.96.918,1.136q.53.277,1.048.518c9.169,4.361,19.3-4,16.419-13.536-2.913-9.61-7.433-23.823-10.446-29.832-2.525-5.032-5.785-13.389-7.762-18.621a6.3,6.3,0,0,0,.747-.359s-.047-.235-.124-.665l.124-.065s-2.943-15.137-3.072-25.895v-.936c2.189-.5,3.578-.694,3.578-.694l.041-.471-.253.053,1.218-13.942s4.473-9.516,1.048-13.477a8.322,8.322,0,0,1-2.007-4.12c-.589-3.643,0-9.722,7.974-14.772,12.276-7.786,17.067-14.124,17.067-14.124S275.35,302.769,267.835,300.557Zm-24.382,9.675v-6.444c2.278-.112,4.6.153,6.891,0a17.441,17.441,0,0,0,3.325-.559l.553.383a60.618,60.618,0,0,1-10.77,6.621Zm-34.81,101.012c.9.624,1.807,1.271,2.7,1.924.553,3.178,1.042,5.42,1.077,5.579A44.055,44.055,0,0,0,208.643,411.244Z" transform="translate(-125.1 -181.669)"/>
        <path id="Path_953" data-name="Path 953" class="cls-18" d="M280.527,500.32,280,503.2l-.406,2.2-.742,4.025-7.192,5.032s-.647-.553-1.718-1.43a126.05,126.05,0,0,0-13.689-10,15.3,15.3,0,0,0-3.761-1.736Z" transform="translate(-177.528 -276.042)"/>
        <path id="Path_954" data-name="Path 954" class="cls-8" d="M280.523,500.32l-.53,2.878a22.361,22.361,0,0,1-4.743-.241l-16.778.241c-.794-.047-1.536-.112-2.23-.182a15.306,15.306,0,0,0-3.761-1.736Z" transform="translate(-177.524 -276.042)"/>
        <path id="Path_955" data-name="Path 955" class="cls-19" d="M271.179,498.441s8.392,1.436,8.869-2.16-4.314-5.491-8.38-5.762-28.531,1.448-28.531,1.448-4.314,5.75,11.264,6.709Z" transform="translate(-173.454 -271.997)"/>
        <path id="Path_956" data-name="Path 956" class="cls-8" d="M280.527,500.32,280,503.2l-.406,2.2-.742,4.025-7.192,5.032s-.647-.553-1.718-1.43a126.05,126.05,0,0,0-13.689-10,15.3,15.3,0,0,0-3.761-1.736Z" transform="translate(-177.528 -276.042)"/>
        <path id="Path_957" data-name="Path 957" class="cls-8" d="M280.523,500.32l-.53,2.878a22.361,22.361,0,0,1-4.743-.241l-16.778.241c-.794-.047-1.536-.112-2.23-.182a15.306,15.306,0,0,0-3.761-1.736Z" transform="translate(-177.524 -276.042)"/>
        <path id="Path_958" data-name="Path 958" class="cls-8" d="M271.179,498.441s8.392,1.436,8.869-2.16-4.314-5.491-8.38-5.762-28.531,1.448-28.531,1.448-4.314,5.75,11.264,6.709Z" transform="translate(-173.454 -271.997)"/>
        <rect id="Rectangle_1822" data-name="Rectangle 1822" class="cls-20" width="43.862" height="52.013" transform="translate(72.196 108.265)"/>
        <rect id="Rectangle_1823" data-name="Rectangle 1823" class="cls-8" width="43.862" height="52.013" transform="translate(72.196 108.265)"/>
        <path id="Path_959" data-name="Path 959" class="cls-18" d="M148.749,451.48a7.027,7.027,0,0,0-2.672,1.889c-4.432,4.379-10.752,14.648-10.752,14.648-8.1-9.64.865-17.261,4.708-19.88.93-.636,1.554-.977,1.554-.977Z" transform="translate(-127.965 -254.167)"/>
        <path id="Path_960" data-name="Path 960" class="cls-18" d="M283.062,331.09s2.16,15.1,9.587,18.7-9.587,10.3-9.587,10.3l-23.252-8.628s13.183-4.314,10.546-17.02Z" transform="translate(-180.54 -206.405)"/>
        <path id="Path_961" data-name="Path 961" class="cls-18" d="M237.4,485.45l-.53,2.878-.406,2.2-.742,4.025-7.192,5.032s-.647-.553-1.718-1.43a126.048,126.048,0,0,0-13.689-10,15.3,15.3,0,0,0-3.761-1.736Z" transform="translate(-159.78 -269.923)"/>
        <path id="Path_962" data-name="Path 962" class="cls-8" d="M237.393,485.45l-.53,2.878a22.367,22.367,0,0,1-4.743-.241l-16.778.241c-.794-.047-1.536-.112-2.23-.182a15.3,15.3,0,0,0-3.761-1.736Z" transform="translate(-159.776 -269.923)"/>
        <path id="Path_963" data-name="Path 963" class="cls-19" d="M228.005,483.574s8.392,1.436,8.869-2.16-4.314-5.514-8.392-5.75-28.525,1.436-28.525,1.436-4.314,5.75,11.264,6.709Z" transform="translate(-155.686 -265.887)"/>
        <path id="Path_964" data-name="Path 964" class="cls-8" d="M248.622,493.971,247.88,498l-7.192,5.032s-.647-.553-1.718-1.43l9.51-7.8Z" transform="translate(-171.965 -273.359)"/>
        <path id="Path_965" data-name="Path 965" class="cls-15" d="M295.423,541.387q-.494-.241-1-.512l-.877-1.118-11.582-14.713v.259c-.076,2.442-.912,21.922-7.421,23.717-6.95,1.919-15.342,2.4-19.174-10.546s-10.787-41.225-17.979-42.9l10.664-8.751s7.062,8.239,9.946,16.172c-.106-.506-4.985-23.287-.959-27.313h34.993s5.391,15.384,9.11,23.011c2.884,5.92,7.209,19.915,10,29.384A11.256,11.256,0,0,1,295.423,541.387Z" transform="translate(-171.314 -265.902)"/>
        <path id="Path_966" data-name="Path 966" class="cls-8" d="M307.034,459.545c-5.4,3.2-29.125,1.895-36.858,1.377l-2.1-.153c-.229,0,.035-.129.035-.129l.218-2.178,5.75-14.619L304.88,426a26.653,26.653,0,0,0-.783,8.057C304.25,444.638,307.034,459.545,307.034,459.545Z" transform="translate(-183.902 -245.46)"/>
        <path id="Path_967" data-name="Path 967" class="cls-21" d="M306.857,458.343c-5.4,3.2-29.125,1.9-36.859,1.377l-2.1-.153h-.347l.383-.1,1.9-.5,4.073-16.3,30.8-17.856a26.655,26.655,0,0,0-.783,8.057C304.073,443.431,306.857,458.343,306.857,458.343Z" transform="translate(-183.725 -244.97)"/>
        <path id="Path_968" data-name="Path 968" class="cls-8" d="M304.167,432.806c-6.262,1.442-20.045,5.685-25.341,15.89-3.531,6.815-6.474,9.74-8.575,10.964l-2.1-.153.035-.129,1.895-.5,4.073-16.3,30.8-17.855A26.657,26.657,0,0,0,304.167,432.806Z" transform="translate(-183.972 -244.933)"/>
        <path id="Path_969" data-name="Path 969" class="cls-8" d="M147.124,447.17l7.192,4.314a7.026,7.026,0,0,0-2.672,1.889c-.589-1.766-4.367-4.19-6.073-5.226C146.5,447.511,147.124,447.17,147.124,447.17Z" transform="translate(-133.532 -254.171)"/>
        <path id="Path_970" data-name="Path 970" class="cls-8" d="M265.646,484.295a.43.43,0,0,1-.506-.065A1.73,1.73,0,0,0,265.646,484.295Z" transform="translate(-182.733 -269.421)"/>
        <path id="Path_971" data-name="Path 971" class="cls-22" d="M232.6,335.611s-6.474.718-11.029-4.072c0,0-19.174,5.514-25.647,17.979s-50.577,36.911-50.577,36.911,7.651,4.314,6.95,6.474l29-16.779s10.3-7.433,13.183-9.11,18.7-11.982,22.052,16.061,0,24.718,0,24.718,4.8,1.677,11.77-11.77,28.525-16.537,28.525-16.537l1.177-14.124s4.278-9.369,1-13.277a8.3,8.3,0,0,1-1.919-4.055c-.547-3.59,0-9.575,7.651-14.548,11.77-7.651,16.3-13.9,16.3-13.9s.241-4.555-6.95-6.709-36.435-13.9-36.435-13.9l-.959,4.073,23.011,16.3s-11.505,9.346-20.6,9.11C239.076,328.413,240.754,335.369,232.6,335.611Z" transform="translate(-133.441 -193.188)"/>
        <path id="Path_972" data-name="Path 972" class="cls-8" d="M291.148,338.145a47.087,47.087,0,0,1-1.324-5.885l-12.706,3.378a14.007,14.007,0,0,1-.288,7.327,13.665,13.665,0,0,0,14.318-4.826Z" transform="translate(-187.544 -206.887)"/>
        <circle id="Ellipse_372" data-name="Ellipse 372" class="cls-18" cx="13.665" cy="13.665" r="13.665" transform="translate(79.388 108.501)"/>
        <path id="Path_973" data-name="Path 973" class="cls-8" d="M269.567,273.916c3.79.43,7.4,2.06,11.129,2.943a5.5,5.5,0,0,0,2.878.112c1.448-.447,2.625-1.966,4.12-1.919a4.331,4.331,0,0,1,2.507,1.265,30.081,30.081,0,0,1,3.455,3.066c2.572,2.8,4.173,6.562,6.521,9.6s6.05,5.4,9.387,4.008c-2.266,8.828-9.7,15.578-17.744,16.125-3.207.218-6.474-.447-9.6.494a8.4,8.4,0,0,1-2.425.588c-1.766,0-3.225-1.642-4.343-3.237-2.613-3.755-4.708-8.016-7.651-11.435a6.254,6.254,0,0,0-3.49-2.413,6.463,6.463,0,0,0-3.861,1.083,18.329,18.329,0,0,0-5.65,3.92,7.834,7.834,0,0,0-1.907,6.891c.347,1.306,1.148,2.484,1.177,3.855,0,2.178-1.895,3.772-2.277,5.885a22.7,22.7,0,0,0-.094,2.684c-.171,2.907-2.066,5.3-4.055,7.115a5.118,5.118,0,0,0-1.854,2.572c-.153.747,0,1.542-.1,2.3-.288,1.889-2.172,2.842-3.837,3.09a11.123,11.123,0,0,1-5.756-.683c2.354-1.1,3.761-4.237,3.219-7.062-.742-3.89-4.649-6.68-4.32-10.646a12.318,12.318,0,0,1,1.083-3.5,32.047,32.047,0,0,0,1.848-6.638,11.247,11.247,0,0,0-.112-5.3,16.722,16.722,0,0,0-2.389-4.025,22.847,22.847,0,0,1-2.766-5.667,3.973,3.973,0,0,1-.265-1.871,3.878,3.878,0,0,1,1.177-1.942c2.142-2.242,4.437-4.579,7.286-5.226a16.335,16.335,0,0,1,4.12-.159,48.409,48.409,0,0,0,7.186-.306c1.966-.23,5.3-.2,6.956-1.483,1.548-1.177,2.425-2.678,4.337-3.431A12.7,12.7,0,0,1,269.567,273.916Z" transform="translate(-169.251 -182.829)"/>
        <path id="Path_974" data-name="Path 974" class="cls-8" d="M308.48,513.76s7.91,15.578,5.514,20.374" transform="translate(-200.567 -281.572)"/>
        <path id="Path_975" data-name="Path 975" class="cls-8" d="M324.685,572.018,313.1,557.305v.259s-.671-4.755,1.536-3.154c4.832,3.5,12.565,9.228,12.73,10.217S325.8,569.582,324.685,572.018Z" transform="translate(-202.43 -298.163)"/>
        <g id="Group_426" data-name="Group 426" class="cls-10" transform="translate(12.15 105.74)">
          <path id="Path_976" data-name="Path 976" d="M303.473,348.864s.977,4.049-2.183,6.073c4.867-.836,5.079-4.62,4.932-6.268A15.334,15.334,0,0,1,303.473,348.864Z" transform="translate(-209.759 -319.38)"/>
          <path id="Path_977" data-name="Path 977" d="M148.4,408.517s44.1-24.447,50.577-36.911c4.643-8.945,15.831-14.307,21.775-16.625-4.337,1.454-18.932,7.027-24.417,17.585-6.474,12.465-50.577,36.911-50.577,36.911Z" transform="translate(-145.76 -321.976)"/>
          <path id="Path_978" data-name="Path 978" d="M311.91,326.484c7.5-2.354,14.678-8.163,14.678-8.163l-23.011-16.3.524-2.236-2.2-.883-.959,4.072,23.011,16.3A55.526,55.526,0,0,1,311.91,326.484Z" transform="translate(-209.615 -298.9)"/>
          <path id="Path_979" data-name="Path 979" d="M319.83,437.712a57.012,57.012,0,0,1,9.022-2.278l.041-.465A61.058,61.058,0,0,0,319.83,437.712Z" transform="translate(-217.388 -354.891)"/>
          <path id="Path_980" data-name="Path 980" d="M258.84,451.508h-.212a.43.43,0,0,1-.506-.065,1.765,1.765,0,0,0,.506.065c.789-.459,1.972-4.037-.506-24.753-2.648-22.116-13.041-20.38-18.732-17.838,5.815-1.6,13.818-.218,16.1,18.8,2.478,20.716,1.295,24.3.506,24.753A5.3,5.3,0,0,0,258.84,451.508Z" transform="translate(-184.288 -343.575)"/>
          <path id="Path_981" data-name="Path 981" d="M267.246,483.895a1.762,1.762,0,0,1-.506-.065A.43.43,0,0,0,267.246,483.895Z" transform="translate(-195.542 -374.997)"/>
        </g>
        <path id="Path_982" data-name="Path 982" class="cls-20" d="M269.567,273.126c3.79.43,7.4,2.06,11.129,2.943a5.5,5.5,0,0,0,2.878.112c1.448-.447,2.625-1.966,4.12-1.919a4.331,4.331,0,0,1,2.507,1.265,30.083,30.083,0,0,1,3.455,3.066c2.572,2.8,4.173,6.562,6.521,9.6s6.05,5.4,9.387,4.008c-2.266,8.828-9.7,15.578-17.744,16.125-3.207.218-6.474-.447-9.6.494a8.4,8.4,0,0,1-2.425.589c-1.766,0-3.225-1.642-4.343-3.237-2.613-3.755-4.708-8.016-7.651-11.435a6.254,6.254,0,0,0-3.49-2.413,6.463,6.463,0,0,0-3.861,1.083,18.33,18.33,0,0,0-5.65,3.919,7.835,7.835,0,0,0-1.907,6.891c.347,1.306,1.148,2.484,1.177,3.855,0,2.177-1.895,3.772-2.278,5.885a22.723,22.723,0,0,0-.094,2.684c-.171,2.907-2.066,5.3-4.055,7.115a5.118,5.118,0,0,0-1.854,2.572c-.153.747,0,1.542-.1,2.3-.288,1.889-2.172,2.842-3.837,3.09a11.123,11.123,0,0,1-5.756-.683c2.354-1.1,3.761-4.237,3.219-7.062-.742-3.89-4.649-6.68-4.32-10.646a12.318,12.318,0,0,1,1.083-3.5,32.045,32.045,0,0,0,1.848-6.638,11.246,11.246,0,0,0-.112-5.3,16.721,16.721,0,0,0-2.389-4.025,22.845,22.845,0,0,1-2.766-5.667,3.973,3.973,0,0,1-.265-1.871,3.878,3.878,0,0,1,1.177-1.942c2.142-2.242,4.437-4.579,7.286-5.226a16.338,16.338,0,0,1,4.12-.159,48.4,48.4,0,0,0,7.186-.306c1.966-.23,5.3-.2,6.956-1.483,1.548-1.177,2.425-2.678,4.337-3.431A12.694,12.694,0,0,1,269.567,273.126Z" transform="translate(-169.251 -182.504)"/>
        <path id="Path_983" data-name="Path 983" class="cls-23" d="M871.387,210.354h0v-.218a.5.5,0,0,0-.035-.224h-.094v-.488c-.235-5.456-7.78-17.067-10.805-13.677-2.648,2.978,1.348,10.511,3.384,13.9l.182.306-.1-.065s-8.422,25.118-9.416,26.095-7.927,20.727-17.067,22.952c-1.807.43-3.307.818-4.567,1.177l.1-.335a36.424,36.424,0,0,0,1.607-5.885c.294-2.142,0-4.738-1.083-5.779-.53-.518-1.177-.589-1.612-1.412a6.518,6.518,0,0,1-.447-2.266l-.777-9.522.542-.165c3.272-1.048,6.444-3.531,6.815-6.874a3.516,3.516,0,0,1-.347.112,5.961,5.961,0,0,0,.1-.589c-2.748,1.083-5.3-1.766-7.945-3.043-4.361-2.136-9.346-.124-13.848.365-5.1.559-9.946-1.56-15.16-1.177-2.837.218-5.991,2.142-5.838,4.938.088,1.536,1.177,2.837,1.624,4.308,1.13,3.56-1.383,7.133-3.584,10.169a15.139,15.139,0,0,0-3.084,6.768c-5.067-5.3-10.546-11.417-11.182-13.718L764.09,210.89s-.347.371-.906.918c-.088-.271-.194-.588-.312-.906-1.871-5.244-7.168-17.95-13.883-15.619s2.784,15.354,6.915,20.545l.589.718a1.86,1.86,0,0,1-1.048-.047l16.349,28.043s2.972,5.367,5.7,6.827c0,0,20.31,25.606,20.557,30.726s9.134,18.779,9.134,18.779,2.972,22.193-2.23,26.095h.859q-.371.362-.759.795c-3.855,4.273-8.781,13.43-2.048,29,9.9,22.952,11.394,31.944,11.394,31.944s-18.832.977-22.54,1.707c-3.284.647-16.049,1.1-18.968,1.177-1.042-1.212-4.12-3.9-8.274,0-5.2,4.879-8.916,21.186-8.916,21.186s-1.983,13.171,4.708,9.752c0,0,7.927-10.976,10.152-11.464,1.106-.241,2.278-1.871,3.172-3.443l.047.029h0c.053,0,.271-.118.624-.259h0c1.648-.653,6.185-2.225,9.763-1.442,1.96.43,10.364.53,19.174.506-1.989,4.767-5.555,17.067-5.555,17.067s-1.489,11.47,3.455,11c3.531-.347,8.945-9.369,11.77-14.519,2.048-1.5,7.916-6.88,12.253-6.474l29.226-11.217s6.933-3.9,3.219-16.826c-2.943-10.275-11.317-31.309-14.624-39.507h0l-.1-.212c-.8-1.983-1.283-3.16-1.283-3.16h0a48.374,48.374,0,0,1-2.654-11.6c-.029-.312-.053-.63-.077-.942a5.2,5.2,0,0,0,1.148-.665s-2.725-27.554,0-30.485h0l.047-.053h0v-.035h0l.047-.059h0l.106-.135h0l.129-.165h0c.147-.194.324-.435.524-.73h0c1.56-2.283,4.467-7.5,3.631-13.654h0q-.053-.4-.13-.806h0a16.81,16.81,0,0,0-1.695-4.779,13.273,13.273,0,0,1-.218-1.889v-1.671a5.66,5.66,0,0,1,.088-.847v-.106a1.053,1.053,0,0,1,.053-.324v-.135a1.543,1.543,0,0,1,.071-.318V273.1c.035-.141.071-.282.118-.424v-.071q.053-.177.118-.347l.053-.135.118-.283.059-.141c.047-.106.1-.212.153-.318l.041-.088q.106-.194.224-.383l.065-.1.194-.277.094-.124.206-.247.094-.106c.106-.112.212-.224.33-.33,3.219-2.943,17.585-24.629,17.585-24.629s3.466-4.879,3.466-8.045C865.879,236.984,872.005,216.563,871.387,210.354ZM832.822,392.646c-.353-3.343-.706-7.486-1.03-11.77l5.6,8.734S836.865,392.269,832.822,392.646Z" transform="translate(-380.871 -150.406)"/>
        <path id="Path_984" data-name="Path 984" class="cls-24" d="M781.724,525.951s-3.355-5.3-8.392-.477-8.628,20.851-8.628,20.851-1.918,12.947,4.555,9.587c0,0,7.651-10.787,9.828-11.264s4.555-6.474,4.555-6.474Z" transform="translate(-388.189 -285.559)"/>
        <path id="Path_985" data-name="Path 985" class="cls-24" d="M846.212,548.908s-4.555-2.16-5.991-.477-6.232,18.456-6.232,18.456-1.436,11.029,3.354,10.546,13.183-17.75,13.183-17.75Z" transform="translate(-416.725 -295.575)"/>
        <path id="Path_986" data-name="Path 986" class="cls-25" d="M846.212,548.908s-4.555-2.16-5.991-.477-6.232,18.456-6.232,18.456-1.436,11.029,3.354,10.546,13.183-17.75,13.183-17.75Z" transform="translate(-416.725 -295.575)"/>
        <path id="Path_987" data-name="Path 987" class="cls-26" d="M869.017,473.882l10.3,16.061s-.718,3.6-6.95,2.878l-21.334,13.424s-1.854,16.343,4.073,14.86c.959-.241,7.651-7.192,12.465-6.709l28.29-11.029s6.709-3.837,3.113-16.537-15.484-42.149-15.484-42.149L864.7,455.191Z" transform="translate(-423.71 -253.146)"/>
        <path id="Path_988" data-name="Path 988" class="cls-25" d="M869.017,473.882l10.3,16.061s-.718,3.6-6.95,2.878l-21.334,13.424s-1.854,16.343,4.073,14.86c.959-.241,7.651-7.192,12.465-6.709l28.29-11.029s6.709-3.837,3.113-16.537-15.484-42.149-15.484-42.149L864.7,455.191Z" transform="translate(-423.71 -253.146)"/>
        <path id="Path_989" data-name="Path 989" class="cls-26" d="M849.786,485.521c1.436,9.11-6.709,9.828-6.709,9.828s-36.676.718-40.99-.241-10.07,1.677-10.07,1.677c-7.433-4.555-1.436-15.819-1.436-15.819s15.343-.477,18.938-1.177,21.81-1.695,21.81-1.695-1.436-8.869-11.029-31.4c-6.515-15.3-1.766-24.306,1.983-28.5a15.783,15.783,0,0,1,3.29-2.9l29.484,1.436a38.238,38.238,0,0,0,.165,4.455,47.447,47.447,0,0,0,3.914,14.713c-1.677,0-12.465,10.069-12.465,10.069S848.344,476.417,849.786,485.521Z" transform="translate(-398.006 -241.057)"/>
        <path id="Path_990" data-name="Path 990" class="cls-8" d="M792.738,481.938s15.342-.477,18.938-1.177,21.81-1.677,21.81-1.677-1.436-8.869-11.029-31.4c-6.515-15.3-1.766-24.306,1.983-28.5a15.787,15.787,0,0,1,3.29-2.9l27.319,1.33v-.853l-29.484-1.436a15.781,15.781,0,0,0-3.29,2.9c-3.731,4.2-8.5,13.2-1.983,28.5,9.616,22.511,11.041,31.38,11.041,31.38s-18.244.959-21.81,1.677-18.938,1.177-18.938,1.177-5.991,11.27,1.436,15.843c0,0,.224-.106.588-.259C787.67,491.466,792.738,481.938,792.738,481.938Z" transform="translate(-398.007 -241.069)"/>
        <rect id="Rectangle_1824" data-name="Rectangle 1824" class="cls-24" width="14.86" height="37.629" transform="translate(423.732 86.267)"/>
        <rect id="Rectangle_1825" data-name="Rectangle 1825" class="cls-8" width="14.86" height="37.629" transform="translate(423.732 86.267)"/>
        <path id="Path_991" data-name="Path 991" class="cls-24" d="M880.093,251.982c.512.141,1.089.159,1.436.865a5.3,5.3,0,0,1,.347,1.766l.936,11.629a6.471,6.471,0,0,0,.435,2.225c.394.789,1.047.883,1.56,1.389,1.03,1.024,1.33,3.59,1.048,5.679A37.309,37.309,0,0,1,884.3,281.3c-.8,2.707-1.33,5.75-2.454,8.033s-3.166,3.531-4.485,1.613-1.142-5.791-1.389-8.963c-.412-5.3-2.478-9.863-2.619-15.2-.118-4.314,1.042-8.339,1.766-12.429.518-2.807.547-6.215,1.3-8.739C877.05,248.621,878.251,251.476,880.093,251.982Z" transform="translate(-433.003 -171.236)"/>
        <path id="Path_992" data-name="Path 992" class="cls-8" d="M880.093,251.982c.512.141,1.089.159,1.436.865a5.3,5.3,0,0,1,.347,1.766l.936,11.629a6.471,6.471,0,0,0,.435,2.225c.394.789,1.047.883,1.56,1.389,1.03,1.024,1.33,3.59,1.048,5.679A37.309,37.309,0,0,1,884.3,281.3c-.8,2.707-1.33,5.75-2.454,8.033s-3.166,3.531-4.485,1.613-1.142-5.791-1.389-8.963c-.412-5.3-2.478-9.863-2.619-15.2-.118-4.314,1.042-8.339,1.766-12.429.518-2.807.547-6.215,1.3-8.739C877.05,248.621,878.251,251.476,880.093,251.982Z" transform="translate(-433.003 -171.236)"/>
        <path id="Path_993" data-name="Path 993" class="cls-27" d="M766.455,215.917l-5.75,4.8s-.683-.8-1.7-2.1c-4-5.1-13.183-17.9-6.691-20.192s11.623,10.193,13.436,15.348C766.208,215.081,766.455,215.917,766.455,215.917Z" transform="translate(-382.271 -151.702)"/>
        <path id="Path_994" data-name="Path 994" class="cls-27" d="M946.651,214.34c-2.4,3.6-5.75,0-5.75,0s-.43-.641-1.036-1.677c-1.972-3.337-5.838-10.734-3.278-13.665,2.943-3.349,10.234,8.08,10.458,13.442A3.191,3.191,0,0,1,946.651,214.34Z" transform="translate(-458.677 -151.803)"/>
        <path id="Path_995" data-name="Path 995" class="cls-27" d="M854.08,288.631s4.8,15.342,3.355,19.892,10.311,9.846,10.311,9.846h13.424s4.8-9.828,3.6-12.706-11.505-5.032-11.505-5.032-5.991,0-5.75-16.061Z" transform="translate(-425.075 -187.263)"/>
        <path id="Path_996" data-name="Path 996" class="cls-8" d="M772.711,226.842l-5.75,4.8s-.683-.8-1.7-2.1c2.089-.371,5.332-3.419,6.75-4.843C772.463,226.007,772.711,226.842,772.711,226.842Z" transform="translate(-388.527 -162.627)"/>
        <path id="Path_997" data-name="Path 997" class="cls-8" d="M949.536,224.149c-2.4,3.6-5.75,0-5.75,0s-.43-.641-1.036-1.677l.077-.241c1.554,1.112,6.385.165,7.1,0a3.189,3.189,0,0,1-.394,1.919Z" transform="translate(-461.562 -161.611)"/>
        <path id="Path_998" data-name="Path 998" class="cls-8" d="M878.957,421.177c-7.415,3.384-31.509-2.642-32.957-3a15.781,15.781,0,0,1,3.29-2.9l29.484,1.436a38.25,38.25,0,0,0,.182,4.461Z" transform="translate(-421.75 -241.049)"/>
        <path id="Path_999" data-name="Path 999" class="cls-28" d="M820.338,276.511s-5.75,1.919-13.9-5.514c0,0-18.244-17.979-19.421-22.293l-14.124-24.717S766.9,230.46,764.5,229.5l15.819,27.566s2.878,5.3,5.514,6.709c0,0,19.656,25.171,19.892,30.2s8.857,18.509,8.857,18.509,2.878,21.81-2.16,25.647c0,0,28.043,7.192,34.034,2.4,0,0-2.637-27.072,0-29.961,0,0,8.151-9.587,2.637-20.133,0,0-1.177-5.75,1.919-8.628s17.02-24.211,17.02-24.211,3.355-4.8,3.355-7.91c0,0,6.232-21.092,5.3-26.607,0,0-5.514,1.177-7.192,0,0,0-8.151,24.718-9.11,25.647s-7.651,20.374-16.537,22.534-10.3,3.113-10.3,3.113,17.255,10.787,8.869,15.578S820.338,276.511,820.338,276.511Z" transform="translate(-388.214 -161.961)"/>
        <path id="Path_1000" data-name="Path 1000" class="cls-8" d="M868.261,292.979a45.787,45.787,0,0,1-.347-6.809l-13.424,4.072a18.124,18.124,0,0,1,.842,2.754c1.536.677,3.608,2.278,5.391,2.278A12.224,12.224,0,0,0,868.261,292.979Z" transform="translate(-425.244 -187.921)"/>
        <circle id="Ellipse_373" data-name="Ellipse 373" class="cls-27" cx="12.465" cy="12.465" r="12.465" transform="translate(422.773 81.711)"/>
        <path id="Path_1001" data-name="Path 1001" class="cls-8" d="M832.089,246.5c-2.742.212-5.8,2.107-5.65,4.855.082,1.512,1.118,2.79,1.571,4.237,1.089,3.5-1.336,7.015-3.466,10s-4.12,6.95-2.3,10.117a24.955,24.955,0,0,0,1.683,2.2c2.254,3.043,2.225,7.15,3.225,10.805a18.956,18.956,0,0,0,22.269,13.536,11.853,11.853,0,0,1-2.5-8.015c.135-2.1.812-4.284,0-6.221-1.048-2.489-4.12-3.472-5.7-5.65s-1.477-5.2-.712-7.792,2.089-5,2.725-7.651a23.032,23.032,0,0,1,.589-2.289c1.106-3.143,4.414-4.967,7.651-5.75s6.638-.83,9.8-1.86,6.232-3.443,6.6-6.756c-2.66,1.065-5.126-1.713-7.692-2.99-4.226-2.1-9.045-.124-13.4.359C841.817,248.191,837.109,246.137,832.089,246.5Z" transform="translate(-411.682 -171.529)"/>
        <path id="Path_1002" data-name="Path 1002" class="cls-24" d="M831.679,245.692c-2.742.212-5.8,2.107-5.65,4.855.082,1.512,1.118,2.79,1.571,4.237,1.089,3.5-1.336,7.015-3.466,10s-4.12,6.95-2.3,10.116a24.93,24.93,0,0,0,1.683,2.2c2.254,3.043,2.225,7.15,3.225,10.805a18.956,18.956,0,0,0,22.269,13.536,11.853,11.853,0,0,1-2.5-8.016c.135-2.1.812-4.284,0-6.221-1.048-2.489-4.12-3.472-5.7-5.65s-1.477-5.2-.712-7.792,2.089-5,2.725-7.651a23,23,0,0,1,.589-2.289c1.106-3.143,4.414-4.967,7.651-5.75s6.638-.83,9.8-1.86,6.232-3.443,6.6-6.756c-2.66,1.065-5.126-1.713-7.692-2.99-4.226-2.1-9.045-.124-13.4.359C841.419,247.375,836.729,245.3,831.679,245.692Z" transform="translate(-411.514 -171.196)"/>
        <path id="Path_1003" data-name="Path 1003" class="cls-8" d="M885.65,326.3s4.991,4.455,5.973,6.421" transform="translate(-438.066 -204.434)"/>
        <path id="Path_1004" data-name="Path 1004" class="cls-8" d="M890.758,371.51s-6.232,0-9.11.718-9.828,0-9.828,0" transform="translate(-432.375 -223.038)"/>
        <g id="Group_427" data-name="Group 427" class="cls-10" transform="translate(376.28 61.102)">
          <path id="Path_1005" data-name="Path 1005" d="M890.649,325.788a5.991,5.991,0,0,1-1.724.659,6.591,6.591,0,0,0,4.6-.659c8.392-4.8-8.869-15.578-8.869-15.578H881.78S899.041,321,890.649,325.788Z" transform="translate(-812.753 -258.915)"/>
          <path id="Path_1006" data-name="Path 1006" d="M953.063,223.485a2.507,2.507,0,0,0-.059-.435,28.162,28.162,0,0,1-2.984.453,13.217,13.217,0,0,0,3.043-.018Z" transform="translate(-840.833 -223.05)"/>
          <path id="Path_1007" data-name="Path 1007" d="M815.3,342.63c5.032-3.837,2.16-25.647,2.16-25.647s-8.628-13.424-8.869-18.456-19.892-30.2-19.892-30.2c-2.636-1.436-5.514-6.709-5.514-6.709s-16.3-26.607-18.7-27.566l15.819,27.566s2.878,5.3,5.514,6.709c0,0,19.656,25.171,19.892,30.2S814.578,317,814.578,317s2.878,21.81-2.16,25.647c0,0,17.237,4.42,27.572,4.02C829.632,346.3,815.3,342.63,815.3,342.63Z" transform="translate(-764.49 -227.576)"/>
          <path id="Path_1008" data-name="Path 1008" d="M859.172,314.062l-.141-.182a3.792,3.792,0,0,1-.5.112C858.754,314.021,858.965,314.045,859.172,314.062Z" transform="translate(-803.186 -260.425)"/>
        </g>
        <g id="Group_428" data-name="Group 428" class="cls-10" transform="translate(458.013 61.072)">
          <path id="Path_1009" data-name="Path 1009" d="M935.493,223l-.147.029c-.253,7.362-5.361,24.659-5.361,24.659,0,3.113-3.354,7.91-3.354,7.91s-13.9,21.334-17.02,24.211-1.919,8.628-1.919,8.628l.029.059c-.094-1.936.141-4.938,2.125-6.774,3.113-2.878,17.02-24.211,17.02-24.211s3.354-4.8,3.354-7.91C930.219,249.636,936.452,228.544,935.493,223Z" transform="translate(-905.055 -223)"/>
          <path id="Path_1010" data-name="Path 1010" d="M903.37,359c.359,2.036.118-.118.241,1.919,0,0,5.885-6.9,4.278-15.437C908.372,353.107,903.37,359,903.37,359Z" transform="translate(-903.37 -273.399)"/>
        </g>
        <ellipse id="Ellipse_374" data-name="Ellipse 374" class="cls-29" cx="251.689" cy="24.176" rx="251.689" ry="24.176" transform="translate(24.78 340.969)"/>
        <path id="Path_1011" data-name="Path 1011" class="cls-30" d="M426.751,633.051s-8.569-29.1,1.607-50.518a45.962,45.962,0,0,0,3.719-28.837,77.3,77.3,0,0,0-4.084-13.536" transform="translate(-247.846 -292.435)"/>
        <path id="Path_1012" data-name="Path 1012" class="cls-4" d="M432.935,512.32c0,3.566-6.474,13.907-6.474,13.907s-6.474-10.34-6.474-13.907a6.474,6.474,0,1,1,12.912,0Z" transform="translate(-246.444 -278.119)"/>
        <path id="Path_1013" data-name="Path 1013" class="cls-4" d="M451.037,543.493c-1.936,3-12.977,8.163-12.977,8.163s.2-12.188,2.136-15.184a6.474,6.474,0,1,1,10.84,7.021Z" transform="translate(-253.888 -289.542)"/>
        <path id="Path_1014" data-name="Path 1014" class="cls-4" d="M448.621,599.4c-3.184,1.607-15.3.494-15.3.494s6.327-10.422,9.51-12.029a6.474,6.474,0,1,1,5.814,11.529Z" transform="translate(-251.937 -311.685)"/>
        <path id="Path_1015" data-name="Path 1015" class="cls-4" d="M438.445,643.449c-2.866,2.119-15.025,3.078-15.025,3.078s4.473-11.341,7.345-13.465a6.474,6.474,0,0,1,7.651,10.381Z" transform="translate(-247.864 -330.275)"/>
        <path id="Path_1016" data-name="Path 1016" class="cls-4" d="M413.388,557.8c2.56,2.484,14.477,5.061,14.477,5.061s-2.943-11.835-5.479-14.324a6.474,6.474,0,1,0-9,9.263Z" transform="translate(-242.786 -294.992)"/>
        <path id="Path_1017" data-name="Path 1017" class="cls-4" d="M401.333,608.159c3.184,1.607,15.3.494,15.3.494s-6.3-10.423-9.487-12a6.474,6.474,0,0,0-5.814,11.529Z" transform="translate(-237.482 -315.477)"/>
        <path id="Path_1018" data-name="Path 1018" class="cls-4" d="M396.975,659.011c2.866,2.119,15.025,3.078,15.025,3.078s-4.473-11.341-7.345-13.465A6.474,6.474,0,1,0,397,659.005Z" transform="translate(-235.713 -336.398)"/>
        <path id="Path_1019" data-name="Path 1019" class="cls-31" d="M432.935,512.32c0,3.566-6.474,13.907-6.474,13.907s-6.474-10.34-6.474-13.907a6.474,6.474,0,1,1,12.912,0Z" transform="translate(-246.444 -278.119)"/>
        <path id="Path_1020" data-name="Path 1020" class="cls-31" d="M451.037,543.493c-1.936,3-12.977,8.163-12.977,8.163s.2-12.188,2.136-15.184a6.474,6.474,0,1,1,10.84,7.021Z" transform="translate(-253.888 -289.542)"/>
        <path id="Path_1021" data-name="Path 1021" class="cls-31" d="M448.621,599.4c-3.184,1.607-15.3.494-15.3.494s6.327-10.422,9.51-12.029a6.474,6.474,0,1,1,5.814,11.529Z" transform="translate(-251.937 -311.685)"/>
        <path id="Path_1022" data-name="Path 1022" class="cls-31" d="M438.445,643.449c-2.866,2.119-15.025,3.078-15.025,3.078s4.473-11.341,7.345-13.465a6.474,6.474,0,0,1,7.651,10.381Z" transform="translate(-247.864 -330.275)"/>
        <path id="Path_1023" data-name="Path 1023" class="cls-31" d="M413.388,557.8c2.56,2.484,14.477,5.061,14.477,5.061s-2.943-11.835-5.479-14.324a6.474,6.474,0,1,0-9,9.263Z" transform="translate(-242.786 -294.992)"/>
        <path id="Path_1024" data-name="Path 1024" class="cls-31" d="M401.333,608.159c3.184,1.607,15.3.494,15.3.494s-6.3-10.423-9.487-12a6.474,6.474,0,0,0-5.814,11.529Z" transform="translate(-237.482 -315.477)"/>
        <path id="Path_1025" data-name="Path 1025" class="cls-31" d="M396.975,659.011c2.866,2.119,15.025,3.078,15.025,3.078s-4.473-11.341-7.345-13.465A6.474,6.474,0,1,0,397,659.005Z" transform="translate(-235.713 -336.398)"/>
        <path id="Path_1026" data-name="Path 1026" class="cls-30" d="M721.391,633.761s-8.569-29.1,1.607-50.518a45.963,45.963,0,0,0,3.719-28.837,77.3,77.3,0,0,0-4.084-13.536" transform="translate(-369.087 -292.727)"/>
        <path id="Path_1027" data-name="Path 1027" class="cls-4" d="M727.567,513.688c0,3.566-6.474,13.907-6.474,13.907s-6.474-10.34-6.474-13.907a6.474,6.474,0,0,1,12.912,0Z" transform="translate(-367.689 -279.075)"/>
        <path id="Path_1028" data-name="Path 1028" class="cls-4" d="M745.687,544.193c-1.936,3-12.977,8.163-12.977,8.163s.2-12.188,2.136-15.184a6.474,6.474,0,1,1,10.84,7.021Z" transform="translate(-375.133 -289.829)"/>
        <path id="Path_1029" data-name="Path 1029" class="cls-4" d="M743.3,600.091c-3.184,1.607-15.3.494-15.3.494s6.326-10.423,9.51-12.029a6.474,6.474,0,1,1,5.791,11.535Z" transform="translate(-373.195 -311.965)"/>
        <path id="Path_1030" data-name="Path 1030" class="cls-4" d="M733.085,644.149c-2.866,2.119-15.025,3.078-15.025,3.078s4.473-11.341,7.344-13.465a6.474,6.474,0,0,1,7.651,10.381Z" transform="translate(-369.104 -330.564)"/>
        <path id="Path_1031" data-name="Path 1031" class="cls-4" d="M708.047,558.5c2.56,2.484,14.477,5.061,14.477,5.061s-2.943-11.835-5.479-14.324a6.474,6.474,0,1,0-9,9.263Z" transform="translate(-364.035 -295.28)"/>
        <path id="Path_1032" data-name="Path 1032" class="cls-4" d="M695.956,608.838c3.184,1.607,15.3.494,15.3.494s-6.327-10.423-9.51-12.029a6.474,6.474,0,0,0-5.815,11.529Z" transform="translate(-358.706 -315.745)"/>
        <path id="Path_1033" data-name="Path 1033" class="cls-4" d="M692.273,660.189c2.866,2.119,15.025,3.078,15.025,3.078s-4.473-11.341-7.345-13.465a6.474,6.474,0,0,0-7.651,10.381Z" transform="translate(-357.606 -337.164)"/>
        <path id="Path_1034" data-name="Path 1034" class="cls-29" d="M727.567,513.688c0,3.566-6.474,13.907-6.474,13.907s-6.474-10.34-6.474-13.907a6.474,6.474,0,0,1,12.912,0Z" transform="translate(-367.689 -279.075)"/>
        <path id="Path_1035" data-name="Path 1035" class="cls-29" d="M745.687,544.193c-1.936,3-12.977,8.163-12.977,8.163s.2-12.188,2.136-15.184a6.474,6.474,0,1,1,10.84,7.021Z" transform="translate(-375.133 -289.829)"/>
        <path id="Path_1036" data-name="Path 1036" class="cls-29" d="M743.3,600.091c-3.184,1.607-15.3.494-15.3.494s6.326-10.423,9.51-12.029a6.474,6.474,0,1,1,5.791,11.535Z" transform="translate(-373.195 -311.965)"/>
        <path id="Path_1037" data-name="Path 1037" class="cls-29" d="M733.085,644.149c-2.866,2.119-15.025,3.078-15.025,3.078s4.473-11.341,7.344-13.465a6.474,6.474,0,0,1,7.651,10.381Z" transform="translate(-369.104 -330.564)"/>
        <path id="Path_1038" data-name="Path 1038" class="cls-29" d="M708.047,558.5c2.56,2.484,14.477,5.061,14.477,5.061s-2.943-11.835-5.479-14.324a6.474,6.474,0,1,0-9,9.263Z" transform="translate(-364.035 -295.28)"/>
        <path id="Path_1039" data-name="Path 1039" class="cls-29" d="M695.956,608.838c3.184,1.607,15.3.494,15.3.494s-6.327-10.423-9.51-12.029a6.474,6.474,0,0,0-5.815,11.529Z" transform="translate(-358.706 -315.745)"/>
        <path id="Path_1040" data-name="Path 1040" class="cls-29" d="M692.273,660.189c2.866,2.119,15.025,3.078,15.025,3.078s-4.473-11.341-7.345-13.465a6.474,6.474,0,0,0-7.651,10.381Z" transform="translate(-357.606 -337.164)"/>
        <path id="Path_1041" data-name="Path 1041" class="cls-32" d="M768.533,130.931h-3.7a2.589,2.589,0,1,0,0-5.173H734.87a2.589,2.589,0,0,0,0,5.173h3.7a2.589,2.589,0,0,0,0,5.173h-5.173a2.589,2.589,0,1,0,0,5.173h29.943a2.589,2.589,0,1,0,0-5.173h5.2a2.589,2.589,0,0,0,0-5.173Z" transform="translate(-374.298 -121.912)"/>
        <path id="Path_1042" data-name="Path 1042" class="cls-32" d="M480.641,157.435h-2.813a1.972,1.972,0,1,0,0-3.937H455.04a1.972,1.972,0,0,0,0,3.937h2.813a1.972,1.972,0,1,0,0,3.937h-3.937a1.972,1.972,0,1,0,0,3.937H476.7a1.972,1.972,0,1,0,0-3.937h3.937a1.972,1.972,0,0,0,0-3.937Z" transform="translate(-259.557 -133.327)"/>
        <path id="Path_1043" data-name="Path 1043" class="cls-33" d="M174.637,634s10.3,20.215,1.907,31.273.765,41.2.765,41.2" transform="translate(-144.82 -331.049)"/>
        <path id="Path_1044" data-name="Path 1044" class="cls-4" d="M177,618.322a11.912,11.912,0,0,1-2.86,7.062,10.149,10.149,0,0,1,0-14.124A11.911,11.911,0,0,1,177,618.322Z" transform="translate(-144.111 -321.692)"/>
        <path id="Path_1045" data-name="Path 1045" class="cls-33" d="M181.215,634s-10.3,20.215-1.907,31.273-.765,41.2-.765,41.2" transform="translate(-146.06 -331.049)"/>
        <path id="Path_1046" data-name="Path 1046" class="cls-4" d="M179.67,618.322a11.912,11.912,0,0,0,2.86,7.062,10.149,10.149,0,0,0,0-14.124A11.911,11.911,0,0,0,179.67,618.322Z" transform="translate(-147.563 -321.692)"/>
        <path id="Path_1047" data-name="Path 1047" class="cls-8" d="M179.67,618.322a11.912,11.912,0,0,0,2.86,7.062,10.149,10.149,0,0,0,0-14.124A11.911,11.911,0,0,0,179.67,618.322Z" transform="translate(-147.563 -321.692)"/>
        <path id="Path_1048" data-name="Path 1048" class="cls-33" d="M190.857,634s10.3,20.215,1.907,31.273.765,41.2.765,41.2" transform="translate(-151.494 -331.049)"/>
        <path id="Path_1049" data-name="Path 1049" class="cls-4" d="M193.17,618.322a11.912,11.912,0,0,1-2.86,7.062,10.149,10.149,0,0,1,0-14.124A11.911,11.911,0,0,1,193.17,618.322Z" transform="translate(-150.765 -321.692)"/>
        <path id="Path_1050" data-name="Path 1050" class="cls-4" d="M189.576,645.842a11.89,11.89,0,0,1-6.956,3.1,10.133,10.133,0,0,1,9.787-10.164A12.015,12.015,0,0,1,189.576,645.842Z" transform="translate(-148.777 -333.016)"/>
        <path id="Path_1051" data-name="Path 1051" class="cls-4" d="M190.036,669.542a11.891,11.891,0,0,1-6.956,3.1,10.133,10.133,0,0,1,9.787-10.164A11.883,11.883,0,0,1,190.036,669.542Z" transform="translate(-148.967 -342.768)"/>
        <path id="Path_1052" data-name="Path 1052" class="cls-4" d="M165.255,685.095a11.885,11.885,0,0,1,2.466,7.2,10.136,10.136,0,0,1-9.251-10.658A11.887,11.887,0,0,1,165.255,685.095Z" transform="translate(-138.84 -350.653)"/>
        <path id="Path_1053" data-name="Path 1053" class="cls-4" d="M168.782,635.878a11.888,11.888,0,0,1,4.3,6.285,10.131,10.131,0,0,1-11.764-7.8A11.768,11.768,0,0,1,168.782,635.878Z" transform="translate(-140.013 -331.162)"/>
        <path id="Path_1054" data-name="Path 1054" class="cls-8" d="M168.782,635.878a11.888,11.888,0,0,1,4.3,6.285,10.131,10.131,0,0,1-11.764-7.8A11.768,11.768,0,0,1,168.782,635.878Z" transform="translate(-140.013 -331.162)"/>
        <path id="Path_1055" data-name="Path 1055" class="cls-33" d="M197.415,634s-10.3,20.215-1.907,31.273-.765,41.2-.765,41.2" transform="translate(-152.726 -331.049)"/>
        <path id="Path_1056" data-name="Path 1056" class="cls-4" d="M195.87,618.322a11.912,11.912,0,0,0,2.86,7.062,10.149,10.149,0,0,0,0-14.124A11.911,11.911,0,0,0,195.87,618.322Z" transform="translate(-154.229 -321.692)"/>
        <path id="Path_1057" data-name="Path 1057" class="cls-8" d="M195.87,618.322a11.912,11.912,0,0,0,2.86,7.062,10.149,10.149,0,0,0,0-14.124A11.911,11.911,0,0,0,195.87,618.322Z" transform="translate(-154.229 -321.692)"/>
        <path id="Path_1058" data-name="Path 1058" class="cls-4" d="M195.213,649.179a12.052,12.052,0,0,0-2.943,7.062,11.875,11.875,0,0,0,6.992-3.019,12.052,12.052,0,0,0,2.943-7.062A11.875,11.875,0,0,0,195.213,649.179Z" transform="translate(-152.748 -336.053)"/>
        <path id="Path_1059" data-name="Path 1059" class="cls-8" d="M195.213,649.179a12.052,12.052,0,0,0-2.943,7.062,11.875,11.875,0,0,0,6.992-3.019,12.052,12.052,0,0,0,2.943-7.062A11.875,11.875,0,0,0,195.213,649.179Z" transform="translate(-152.748 -336.053)"/>
        <path id="Path_1060" data-name="Path 1060" class="cls-4" d="M204.323,681.989a12.053,12.053,0,0,0-2.943,7.062,11.875,11.875,0,0,0,6.992-3.019,12.052,12.052,0,0,0,2.943-7.062A11.836,11.836,0,0,0,204.323,681.989Z" transform="translate(-156.497 -349.554)"/>
        <path id="Path_1061" data-name="Path 1061" class="cls-33" d="M193,669.895s6.2-9.769,14.9-10" transform="translate(-153.048 -341.703)"/>
        <path id="Path_1062" data-name="Path 1062" class="cls-33" d="M174.351,659.865s-6.2-9.769-14.9-10" transform="translate(-139.243 -337.575)"/>
        <path id="Path_1063" data-name="Path 1063" class="cls-33" d="M183.4,683.565s6.2-9.769,14.9-10" transform="translate(-149.098 -347.328)"/>
        <circle id="Ellipse_375" data-name="Ellipse 375" class="cls-4" cx="1.607" cy="1.607" r="1.607" transform="translate(52.946 316.528)"/>
        <circle id="Ellipse_376" data-name="Ellipse 376" class="cls-4" cx="1.607" cy="1.607" r="1.607" transform="translate(18.753 310.76)"/>
        <path id="Path_1064" data-name="Path 1064" class="cls-33" d="M180.731,689s-6.2-9.769-14.9-10" transform="translate(-141.868 -349.566)"/>
        <circle id="Ellipse_377" data-name="Ellipse 377" class="cls-4" cx="1.607" cy="1.607" r="1.607" transform="translate(22.508 327.921)"/>
        <circle id="Ellipse_378" data-name="Ellipse 378" class="cls-4" cx="1.607" cy="1.607" r="1.607" transform="translate(47.714 324.708)"/>
        <path id="Path_1065" data-name="Path 1065" class="cls-34" d="M208.371,726.889s-14.936-2.99-18.927-6.974-21.9-10.952-23.9-5.973-26.889,21.91-9.958,24.9,39.836,3.984,44.815,1.989S208.371,726.889,208.371,726.889Z" transform="translate(-135.239 -363.233)"/>
        <path id="Path_1066" data-name="Path 1066" class="cls-35" d="M155.592,747.175c16.931,2.99,39.836,3.984,44.815,1.989,3.79-1.518,6.427-8.828,7.468-12.194l.5.106s-2.99,11.953-7.968,13.942-27.884.995-44.815-1.989c-4.885-.865-6.285-2.89-5.756-5.45C150.248,745.227,151.955,746.533,155.592,747.175Z" transform="translate(-135.244 -373.42)"/>
        <path id="Path_1067" data-name="Path 1067" class="cls-15" d="M1010.444,641.78s4.932,6.474-2.278,16.184-13.153,17.956-10.746,24.029c0,0,10.876-18.085,19.727-18.338S1020.183,652.65,1010.444,641.78Z" transform="translate(-483.834 -334.251)"/>
        <path id="Path_1068" data-name="Path 1068" class="cls-8" d="M1010.639,641.78a7.986,7.986,0,0,1,1.006,2.025c8.639,10.146,13.236,19.615,4.938,19.856-7.733.224-17.008,14.048-19.233,17.544a7.515,7.515,0,0,0,.265.794s10.876-18.085,19.727-18.338S1020.379,652.65,1010.639,641.78Z" transform="translate(-484.029 -334.251)"/>
        <path id="Path_1069" data-name="Path 1069" class="cls-36" d="M1034.687,654.731c0,2.272-.253,4.12-.588,4.12s-.589-1.842-.589-4.12.318-1.177.63-1.177S1034.687,652.465,1034.687,654.731Z" transform="translate(-498.908 -338.986)"/>
        <path id="Path_1070" data-name="Path 1070" class="cls-36" d="M1038.141,659.263c-1.995,1.089-3.731,1.766-3.878,1.465s1.342-1.383,3.337-2.466,1.206-.294,1.359,0S1040.13,658.175,1038.141,659.263Z" transform="translate(-499.214 -340.805)"/>
        <path id="Path_1071" data-name="Path 1071" class="cls-15" d="M967.931,641.78s-4.932,6.474,2.278,16.184,13.153,17.956,10.746,24.029c0,0-10.876-18.085-19.727-18.338S958.191,652.65,967.931,641.78Z" transform="translate(-467.369 -334.251)"/>
        <path id="Path_1072" data-name="Path 1072" class="cls-8" d="M967.931,641.78a7.989,7.989,0,0,0-1.006,2.025c-8.639,10.146-13.236,19.615-4.938,19.856,7.733.224,17.008,14.048,19.233,17.544a7.488,7.488,0,0,1-.265.794s-10.876-18.085-19.727-18.338S958.191,652.65,967.931,641.78Z" transform="translate(-467.369 -334.251)"/>
        <path id="Path_1073" data-name="Path 1073" class="cls-36" d="M960.09,654.731c0,2.272.253,4.12.589,4.12s.589-1.842.589-4.12-.318-1.177-.63-1.177S960.09,652.465,960.09,654.731Z" transform="translate(-468.697 -338.986)"/>
        <path id="Path_1074" data-name="Path 1074" class="cls-36" d="M953.89,659.263c2,1.089,3.731,1.766,3.878,1.465s-1.342-1.383-3.337-2.466-1.206-.294-1.359,0S951.895,658.175,953.89,659.263Z" transform="translate(-465.645 -340.805)"/>
        <path id="Path_1075" data-name="Path 1075" class="cls-34" d="M962.76,703.462s13.789-.424,17.944-3.384,21.186-6.474,22.24-1.766,20.722,23.605,5.155,23.729-36.17-2.425-40.319-4.949S962.76,703.462,962.76,703.462Z" transform="translate(-469.796 -356.568)"/>
        <path id="Path_1076" data-name="Path 1076" class="cls-35" d="M1008.376,725.611c-15.566.124-36.17-2.425-40.319-4.949-3.16-1.924-4.42-8.828-4.838-12.011h-.459s.871,11.123,5.02,13.648,24.753,5.079,40.319,4.949c4.5-.035,6.044-1.636,5.962-4C1013.437,724.687,1011.748,725.582,1008.376,725.611Z" transform="translate(-469.796 -361.767)"/>
        <path id="Path_1077" data-name="Path 1077" class="cls-32" d="M276.662,190.261h-3.7a2.589,2.589,0,1,0,0-5.173H243.023a2.589,2.589,0,0,0,0,5.173h3.7a2.589,2.589,0,0,0,0,5.173h-5.173a2.589,2.589,0,0,0,0,5.173h29.943a2.589,2.589,0,1,0,0-5.173h5.173a2.589,2.589,0,0,0,0-5.173Z" transform="translate(-172.01 -146.326)"/>
      </g>
      <g id="Group_429" data-name="Group 429" transform="translate(-23.6 -125.625)">
        <text id="thank_you_for_joining_skill_embassy" data-name="thank you for joining skill embassy" class="cls-37" transform="translate(983.6 866.625)"><tspan x="-380.994" y="0">Thank You For Joining Skill Embassy</tspan></text>
        <text id="we_will_get_back_to_you_soon_" data-name="we will get back to you soon!" class="cls-38" transform="translate(989.6 934.625)"><tspan x="-268.848" y="0">We Will Get Back To You Soon!</tspan></text>
      </g>
    </g>
    <g id="next" transform="translate(870.471 835.15)">
      <g class="cls-41" transform="matrix(1, 0, 0, 1, -870.47, -835.15)">
        <rect id="Rectangle_1090-2" data-name="Rectangle 1090" class="cls-15" width="199" height="63" rx="4" transform="translate(846 817)"/>
      </g>
      <text id="GO_to_home" data-name="GO to home" class="cls-39" transform="translate(75.53 21.85)"><tspan x="-71.301" y="0">GO TO HOME</tspan></text>
    </g>
    <g id="Icon_ionic-ios-close-circle-outline" data-name="Icon ionic-ios-close-circle-outline" transform="translate(1694.742 113.292)">
      <path id="Path_912" data-name="Path 912" class="cls-4" d="M28.684,26.314l-5.532-5.532,5.532-5.532a1.677,1.677,0,1,0-2.372-2.372L20.78,18.41l-5.532-5.532a1.677,1.677,0,0,0-2.372,2.372l5.532,5.532-5.532,5.532a1.622,1.622,0,0,0,0,2.372,1.666,1.666,0,0,0,2.372,0l5.532-5.532,5.532,5.532a1.685,1.685,0,0,0,2.372,0A1.666,1.666,0,0,0,28.684,26.314Z" transform="translate(4.428 4.426)"/>
      <path id="Path_913" data-name="Path 913" class="cls-4" d="M25.208,6.314a18.887,18.887,0,1,1-13.362,5.532A18.769,18.769,0,0,1,25.208,6.314m0-2.939A21.833,21.833,0,1,0,47.042,25.208,21.83,21.83,0,0,0,25.208,3.375Z"/>
    </g>
  </g>
</svg>
