<svg xmlns="http://www.w3.org/2000/svg" xmlns:xlink="http://www.w3.org/1999/xlink" width="871.572" height="658.61" viewBox="0 0 871.572 658.61">
  <defs>
    <linearGradient id="linear-gradient" x1="0.5" y1="1" x2="0.5" gradientUnits="objectBoundingBox">
      <stop offset="0" stop-color="gray" stop-opacity="0.251"/>
      <stop offset="0.54" stop-color="gray" stop-opacity="0.122"/>
      <stop offset="1" stop-color="gray" stop-opacity="0.102"/>
    </linearGradient>
    <linearGradient id="linear-gradient-2" x1="0.5" x2="0.5" y2="0" xlink:href="#linear-gradient"/>
    <linearGradient id="linear-gradient-3" x1="0.5" x2="0.5" y2="0" xlink:href="#linear-gradient"/>
    <linearGradient id="linear-gradient-4" x1="1.096" x2="1.096" y2="0" xlink:href="#linear-gradient"/>
    <linearGradient id="linear-gradient-5" x1="0.5" x2="0.5" y2="0" xlink:href="#linear-gradient"/>
  </defs>
  <g id="undraw_team_spirit_hrr4" transform="translate(0.013 -0.004)">
    <path id="Path_665" data-name="Path 665" d="M43.44,426.65c13.79,53.741,42.985,100.2,89.127,122.712,95.929,46.8,312.142,22.661,473.534-5.041,83.5-14.333,156.849-53.856,210.161-109.55Z" transform="translate(-34.035 -115.227)" fill="#6c63ff" opacity="0.1"/>
    <path id="Path_666" data-name="Path 666" d="M896.6,78.609H808.045c-4.214,0-7.661-3.141-7.661-6.979s3.44-6.979,7.661-6.979h15.322c-4.214,0-7.661-3.141-7.661-6.979s3.44-6.971,7.661-6.971H812.435c-4.214,0-7.661-3.141-7.661-6.979s3.44-6.979,7.661-6.979h46.218A130.941,130.941,0,0,0,822.6,27.687c-126.029-14.763-171.029-5-186.925,5.041A185.477,185.477,0,0,1,570.9,58.614c-77.758,14.625-223.176,32.222-354.982-5.638C150.413,34.168,101.728,66,72.54,119.1H911.973c-1.1-15.444-4.374-29.709-10.4-42.188A8.029,8.029,0,0,1,896.6,78.609Z" transform="translate(-40.842 -20.14)" fill="#0eb582" opacity="0.1"/>
    <path id="Path_667" data-name="Path 667" d="M33.049,280.23a324.776,324.776,0,0,0,3.44,93.761l777.487,25.924a331.837,331.837,0,0,0,54.017-75.077Zm307.484,66.887H325.212c4.206,0,7.661,3.141,7.661,6.979s-3.447,6.971-7.661,6.971H236.7c-4.206,0-7.661-3.133-7.661-6.971s3.447-6.979,7.661-6.979H252.02c-4.206,0-7.661-3.141-7.661-6.979s3.447-6.979,7.661-6.979H241.073c-4.206,0-7.661-3.133-7.661-6.971s3.447-6.979,7.661-6.979h88.552c4.213,0,7.661,3.141,7.661,6.979s-3.44,6.971-7.661,6.971h10.909c4.214,0,7.661,3.141,7.661,6.979S344.77,347.117,340.534,347.117Z" transform="translate(-31.16 -80.977)" fill="#6c63ff" opacity="0.1"/>
    <path id="Path_668" data-name="Path 668" d="M902.944,149.94,54.12,168.763c-10.342,24.2-17.183,51.558-20.34,79.918H888.067A305.656,305.656,0,0,0,900.4,197.744C902.944,181.074,903.963,164.955,902.944,149.94ZM206.127,211.618H190.8c4.206,0,7.661,3.141,7.661,6.979s-3.447,6.979-7.661,6.979H102.261c-4.206,0-7.661-3.141-7.661-6.979s3.447-6.979,7.661-6.979h15.322c-4.206,0-7.661-3.133-7.661-6.971s3.447-6.979,7.661-6.979H106.635c-4.206,0-7.661-3.141-7.661-6.979s3.447-6.979,7.661-6.979h88.552c4.214,0,7.661,3.141,7.661,6.979s-3.44,6.979-7.661,6.979h10.94c4.206,0,7.661,3.141,7.661,6.979S210.333,211.618,206.127,211.618Z" transform="translate(-31.776 -50.501)" fill="#0eb582" opacity="0.1"/>
    <ellipse id="Ellipse_332" data-name="Ellipse 332" cx="57.633" cy="12.939" rx="57.633" ry="12.939" transform="translate(451.307 561.581)" fill="#f50057" opacity="0.1"/>
    <ellipse id="Ellipse_333" data-name="Ellipse 333" cx="103.973" cy="8.534" rx="103.973" ry="8.534" transform="translate(538.886 607.079)" fill="#f50057" opacity="0.1"/>
    <ellipse id="Ellipse_334" data-name="Ellipse 334" cx="103.973" cy="12.939" rx="103.973" ry="12.939" transform="translate(121.422 589.735)" fill="#f50057" opacity="0.1"/>
    <ellipse id="Ellipse_335" data-name="Ellipse 335" cx="78.233" cy="12.939" rx="78.233" ry="12.939" transform="translate(305.689 524.962)" fill="#f50057" opacity="0.1"/>
    <ellipse id="Ellipse_336" data-name="Ellipse 336" cx="62.628" cy="12.939" rx="62.628" ry="12.939" transform="translate(343.135 632.735)" fill="#f50057" opacity="0.1"/>
    <path id="Path_669" data-name="Path 669" d="M562.524,278.1c-1.655-11.139-11.775-37.132-11.775-37.132h0q-.264-1.149-.6-2.3c-7.178-24.668-17.114-26.813-17.114-26.813l-35.592-7.661a2.757,2.757,0,0,1,.766.712,4.943,4.943,0,0,0-.559.084,13.942,13.942,0,0,1-3.118-6.742c-.069-.368-.13-.766-.176-1.141a25.036,25.036,0,0,0-2.038-37.638c-.375-.291-.766-.575-1.142-.843,1.678-1.785,1.731-4.267.475-6.749-2.8-5.822-8.9-9.507-15.169-11.307-4.788-1.371-9.959-1.816-14.724-.314a53.184,53.184,0,0,0-7.707,3.578c-4.727,2.36-9.959,4.229-13.491,8.113a3.959,3.959,0,0,0-1.348,3.256,8.788,8.788,0,0,0,1.341,2.367,7.144,7.144,0,0,1,.069,5.93,57.458,57.458,0,0,0-2.2,5.7c-.483,1.977-.3,4.305,1.187,5.723a25.2,25.2,0,0,0,2.222,1.532,11.653,11.653,0,0,1,2.122,2.383q2.114,2.835,4.214,5.692a58.644,58.644,0,0,1,5.278,8.021,39.093,39.093,0,0,0,3.263,6.129,9.086,9.086,0,0,0,1.4,1.471l-.414-.161a6.381,6.381,0,0,0,4.681,1.908h.214a1.287,1.287,0,0,0,.858-.352v.766c.084,2.735.069,5.646-.123,8.381l-.329-.169a2.873,2.873,0,0,0-3.064.322l-32.766,26.292s-7.125,9.745-6.129,26.568L415.3,288.928s-7.178,21.4-1.655,36.688,8.726,24.024,8.726,24.024,2.206,17.367,5.523,18.784,4.75,2.183,4.75,2.183l.659,4.152h0s.222.406.613,1.088c2.413,4.2,11.353,19.014,16.547,17.428a66.423,66.423,0,0,1,.843,12.173l5.14,34.512s3.585,9.385,3.363,14.3,4.183,11.928,4.183,11.928a22.792,22.792,0,0,0-2.206,16.05c2.1,9.193,4.75,51.542,4.75,51.542l3.83,10.266-.107,12.035a11.491,11.491,0,0,1-2.375,5.363c-2.482,2.7-2.3,5.815-8.282,9.5s-9.775,5.079-9.775,9.959a12.81,12.81,0,0,1-.184,2.03c-.552,3.585-1.624,5.531,9.377,6.573a29,29,0,0,0,21.542-7.2s1.9-3.447,10.848-4.842c0,0,3.064-.161,3.225-2.865.061-.935.046-2.72,0-4.688-.146-3.746-.506-8.121-.981-8.335-.6-.268-1.639-4.037-2-5.4h2.49s2.3-17.367,0-28.613-.222-19.221-.222-19.221l-.444-29.7s-3.064-3.279-.659-9.07,0-34.4,0-34.4.889-10.266,3.424-12.671.122-15.038,0-15.7l4.52,15.161s1.984,30.138,6.19,35.592l1.21,13.652s8.611,12.564,6.956,19.328,1.77,31.233,1.77,31.233v25.013s-3.869,10.043,1.532,13.652l2.3-.092c-.766.712-1.356,1.785-2.252,2.712-1.034,1.065-1.624,5.117-1.953,8.6-.276,2.949-.368,5.485-.368,5.485a9.032,9.032,0,0,0,6.627,3.93c4.328.253,18.593,11.1,18.593,11.1s14.088,0,17.735-.766l.214-.054a4.788,4.788,0,0,0,2.75-2.245,5.746,5.746,0,0,0,.659-4.129c-.452-2.153-2.16-4.512-5.945-6.519-9.415-4.964-10.817-9.614-10.817-9.614l-6.182-9.277h.881s-.544-9.829,6.182-20.861l-.437-48.593s2.758-16.708-1.984-25.779c0,0-.391-9.607,2.781-12.556s-4.221-32.758-4.221-32.758-1.532-16-3.332-30.605h0c7.454,7.071,15.184-18.386,16.486-22.914h.191l-.084-.329c.054-.214.084-.322.084-.322h0s-1.655-5.884-.444-4.688,4.2-3.279,4.2-3.279-.444-24.354,4.75-36.627S562.524,278.1,562.524,278.1Zm-22.217,15.5.038-.069c.766,14.87-.146,46.6-.146,46.6s-1.027,4.068-2.122,8.856l-.766-30.146h0l-.766-28.4Zm-95.079-10.25s3.754,46.954,0,53.726c-1.065,1.931-1.961,5.363-2.7,9.277-1.241-3.256-3.869-10.9-2.926-14.954,1.218-5.24-2.429-19.007-2.429-19.328s-.329-7.661,2.3-13.269.9-8.036.9-8.036S442.577,281.566,445.228,283.343Z" transform="translate(-120.142 -48.016)" fill="url(#linear-gradient)"/>
    <path id="Path_670" data-name="Path 670" d="M461.392,458.235c-3.271,14.38-16.279-7.362-19.244-12.579-.383-.682-.6-1.08-.6-1.08l1.41-6.611,7.454-3.064a20.823,20.823,0,0,1,3.34,2.176C457.837,440.286,463.912,447.1,461.392,458.235Z" transform="translate(-127.158 -117.157)" fill="#d38884"/>
    <path id="Path_671" data-name="Path 671" d="M592.634,433.525a1,1,0,0,1-.084.322,1.628,1.628,0,0,1-.1.345c-1.279,4.489-8.864,29.763-16.187,22.745-8.013-7.661-4.121-25.373-4.121-25.373h.054l16.854-1.724,3.34,3.432h0Z" transform="translate(-157.485 -115.973)" fill="#d38884"/>
    <path id="Path_672" data-name="Path 672" d="M554.972,558.493l.429,48.264c-6.611,10.955-6.067,20.684-6.067,20.684l-21.788.858c-5.317-3.578-1.532-13.544-1.532-13.544V589.9s-3.363-24.277-1.739-31-6.826-19.152-6.826-19.152l-1.2-13.552c-4.122-5.416-6.075-35.332-6.075-35.332l-4.42-15.107c.122.651,2.421,13.261,0,15.582S502.4,503.91,502.4,503.91s2.382,28.407,0,34.145.643,9,.643,9l.437,29.487s-2.061,7.914.214,19.076,0,28.406,0,28.406H480.317l.107-12.035L476.64,601.8s-2.6-42.058-4.665-51.167a22.86,22.86,0,0,1,2.16-15.935s-4.328-6.933-4.114-11.813-3.34-14.188-3.34-14.188l-5.041-34.252a66.539,66.539,0,0,0-2.5-19.512c-2.926-9.76-7.263-22.554-7.263-22.554l4.9.437,24.7,2.2s60.054-4.037,62.743-.682a11.27,11.27,0,0,1,1.134,3.5c2.7,12.112,6.259,50.056,6.259,50.056s7.263,29.594,4.144,32.52-2.735,12.457-2.735,12.457C557.692,541.869,554.972,558.493,554.972,558.493Z" transform="translate(-129.575 -116.567)" fill="#444053"/>
    <path id="Path_673" data-name="Path 673" d="M506.6,699.42c-.169,2.689-3.164,2.85-3.164,2.85-8.779,1.379-10.649,4.8-10.649,4.8a28.2,28.2,0,0,1-21.136,7.155c-10.8-1.042-9.752-2.965-9.193-6.527a13.5,13.5,0,0,0,.176-2.007c0-4.88,3.739-6.267,9.591-9.959s5.692-6.749,8.128-9.43,2.689-7.883,2.689-7.883c2.758-4.8,9.752.766,9.752.766.329,1.7,10.725,1.463,10.725,1.463s1.379,5.531,2.091,5.853c.467.214.82,4.55.958,8.274C506.651,696.723,506.666,698.493,506.6,699.42Z" transform="translate(-131.976 -173.661)" fill="#b07473"/>
    <path id="Path_674" data-name="Path 674" d="M506.6,705.015c-.169,2.689-3.164,2.85-3.164,2.85-8.779,1.379-10.649,4.8-10.649,4.8a28.2,28.2,0,0,1-21.136,7.155c-10.8-1.042-9.752-2.965-9.193-6.527,4.826,1.2,14.05,2.865,19.436-.061,7.485-4.06,12.855-6.895,12.855-6.895l11.828-5.953C506.651,702.318,506.666,704.088,506.6,705.015Z" transform="translate(-131.976 -179.256)" opacity="0.1"/>
    <path id="Path_675" data-name="Path 675" d="M592.8,714.838a4.673,4.673,0,0,1-2.7,2.229l-.207.054c-3.577.766-17.405.766-17.405.766s-13.981-10.81-18.21-11.055a8.893,8.893,0,0,1-6.5-3.907s.084-2.513.352-5.439c.329-3.463.9-7.485,1.923-8.542,1.869-1.953,2.3-4.6,6.5-2.927,0,0,6.006-10.587,13.085-2.406l7.324,11.108s1.379,4.6,10.656,9.584c3.708,1.992,5.363,4.336,5.83,6.473A5.709,5.709,0,0,1,592.8,714.838Z" transform="translate(-152.007 -174.608)" fill="#b07473"/>
    <path id="Path_676" data-name="Path 676" d="M592.8,720.022c-.827.7-1.739,1.448-2.7,2.229l-.207.054c-3.577.766-17.405.766-17.405.766s-13.981-10.809-18.21-11.055a8.893,8.893,0,0,1-6.5-3.907s.084-2.513.352-5.439c4.305,1.287,10.825,3.562,12.571,6.014,2.681,3.731,10.825,8.94,10.825,8.94s15.184-1.463,21.925-1.662A5.708,5.708,0,0,1,592.8,720.022Z" transform="translate(-152.007 -179.792)" opacity="0.1"/>
    <path id="Path_677" data-name="Path 677" d="M517.056,223.766,497.061,244.9s-24.231-1.785-20-8.94c2.153-3.647,2.49-11.277,2.3-17.911-.176-6.4-.835-11.844-.835-11.844s33.984-16.915,31.41-1.141a25.96,25.96,0,0,0-.092,9C511.288,222.035,517.056,223.766,517.056,223.766Z" transform="translate(-135.349 -61.822)" fill="#d38884"/>
    <path id="Path_678" data-name="Path 678" d="M510.5,205.066a25.963,25.963,0,0,0-.092,9,24.944,24.944,0,0,1-17.789,7.423c-4.6,0-9.568-3.777-13.284-5.96-.176-6.4-.215-9.323-.215-9.323S513.1,189.292,510.5,205.066Z" transform="translate(-135.947 -61.822)" opacity="0.1"/>
    <path id="Path_679" data-name="Path 679" d="M514.126,186.526A25.043,25.043,0,1,1,504.7,166.96,25.043,25.043,0,0,1,514.126,186.526Z" transform="translate(-132.419 -53.203)" fill="#d38884"/>
    <path id="Path_680" data-name="Path 680" d="M546.508,437.963c-6.236,14.839-46.348,15.145-46.348,15.145v-16.18l-2.429-.161c1.05,4.635-1.471,15.935-1.471,15.935-31.7,4.474-39.431-13.59-39.431-13.59l1.1-6.182,24.7,2.2s60.054-4.037,62.743-.682A11.269,11.269,0,0,1,546.508,437.963Z" transform="translate(-130.733 -116.696)" opacity="0.1"/>
    <path id="Path_681" data-name="Path 681" d="M500.16,403.121v-16.18l-2.429-.153c1.05,4.6-1.471,15.935-1.471,15.935-23.856,3.363-34.137-6.029-37.76-10.886a14.822,14.822,0,0,1-1.67-2.7l9.683-54.469,2.3-80.163,3.47-14.065.8-6.749v-.077h.084l2.467,1.057,14.763,6.382,16.77-12.663.245-.176.835-.636,1.387,1.111,3.448,2.766,11.055,71.392S543.291,357.815,546.876,380c.146.889.26,1.716.352,2.49C549.6,402.746,500.16,403.121,500.16,403.121Z" transform="translate(-130.733 -68.662)" fill="#0eb582"/>
    <circle id="Ellipse_337" data-name="Ellipse 337" cx="1.425" cy="1.425" r="1.425" transform="translate(360.035 172.547)" fill="#67647e"/>
    <circle id="Ellipse_338" data-name="Ellipse 338" cx="1.425" cy="1.425" r="1.425" transform="translate(360.694 185.555)" fill="#67647e"/>
    <circle id="Ellipse_339" data-name="Ellipse 339" cx="1.425" cy="1.425" r="1.425" transform="translate(362.119 206.615)" fill="#67647e"/>
    <circle id="Ellipse_340" data-name="Ellipse 340" cx="1.425" cy="1.425" r="1.425" transform="translate(364.471 229.298)" fill="#67647e"/>
    <circle id="Ellipse_341" data-name="Ellipse 341" cx="1.425" cy="1.425" r="1.425" transform="translate(365.896 250.596)" fill="#67647e"/>
    <circle id="Ellipse_342" data-name="Ellipse 342" cx="1.425" cy="1.425" r="1.425" transform="translate(367.321 273.28)" fill="#67647e"/>
    <circle id="Ellipse_343" data-name="Ellipse 343" cx="1.425" cy="1.425" r="1.425" transform="translate(366.754 295.718)" fill="#67647e"/>
    <path id="Path_682" data-name="Path 682" d="M474.034,344.367s-1.593,20.861-4.52,26.928-4.229,23.09-4.229,23.09l-6.8-.766a14.829,14.829,0,0,1-1.67-2.7l9.683-54.469,2.3-80.163,3.478-14.073.8-6.749.092-.038a2.742,2.742,0,0,1,2.421.038l.322.169q-.146.414-.276.85c-2.651,8.3-3.639,23.588-3.639,23.588s3.83,27.97,4.229,40.978S474.034,344.367,474.034,344.367Z" transform="translate(-130.73 -70.437)" opacity="0.1"/>
    <path id="Path_683" data-name="Path 683" d="M453.754,437.1a3.924,3.924,0,0,1-.26.506c-2.635,4.451-9.316,7.278-11.346,8.052-.383-.682-.6-1.08-.6-1.08l1.41-6.611,7.454-3.064a20.826,20.826,0,0,1,3.34,2.2Z" transform="translate(-127.158 -117.157)" opacity="0.1"/>
    <path id="Path_684" data-name="Path 684" d="M429.18,298.81,423,302.495l-5.631,25.043s-7.048,21.244-1.632,36.42,8.565,23.864,8.565,23.864,2.168,17.237,5.424,18.647,4.658,2.168,4.658,2.168l.651,4.122s8.825-3,11.943-8.274-2.3-18.386-2.3-18.386-4.658-11.17-3.463-16.371-2.39-18.861-2.39-19.152-.322-7.592,2.3-13.177.873-7.967.873-7.967L440.365,313.5Z" transform="translate(-120.641 -85.324)" fill="#f6f8fb"/>
    <path id="Path_685" data-name="Path 685" d="M562.27,385.407s-16.371,6.175-21.573.766-4.666-30.789-4.666-30.789-4.98-46.831-8.128-54.522-1.532-63.2-1.532-63.2-2.114-7.178-3.961-9.055a2,2,0,0,0-.391-.314l.636.138,2.222.475,3.448,2.766L539.38,303.06s19.152,54.967,22.737,77.153Z" transform="translate(-145.981 -68.828)" opacity="0.1"/>
    <path id="Path_686" data-name="Path 686" d="M592.918,434.171h-.184c-2.061.268-20.248,2.467-20.324-1.318a11.049,11.049,0,0,1,.069-1.31l16.854-1.724,3.34,3.432h0c.061.222.107.414.153.567Z" transform="translate(-157.768 -115.969)" opacity="0.1"/>
    <path id="Path_687" data-name="Path 687" d="M575.466,266.07l11.951,6.236s9.959,25.786,11.553,36.841c0,0,7.377,29.617,2.3,41.8S596.61,387.3,596.61,387.3s-2.926,4.443-4.122,3.256.437,4.658.437,4.658-20.432,2.712-20.516-1.3,4.688-23.2,4.688-23.2,1.3-45.636-.544-52.791S575.466,266.07,575.466,266.07Z" transform="translate(-157.768 -77.665)" fill="#f6f8fb"/>
    <path id="Path_688" data-name="Path 688" d="M526.871,329.52s-6.726,16.471-8.894,17.559.437,5.416.437,5.416S530.663,335.373,526.871,329.52Z" transform="translate(-144.834 -92.507)" opacity="0.1"/>
    <path id="Path_689" data-name="Path 689" d="M521.406,254.1c.077-.314-8.021,7.944-10.189,9.193S519.131,263.214,521.406,254.1Z" transform="translate(-143.384 -74.863)" opacity="0.1"/>
    <path id="Path_690" data-name="Path 690" d="M491.86,327.82s-12.357,7.99-10.725,11.154S491.86,327.82,491.86,327.82Z" transform="translate(-136.383 -92.109)" opacity="0.1"/>
    <path id="Path_691" data-name="Path 691" d="M524.47,480.07s10.518,6.765,26.882,8.427Z" transform="translate(-146.555 -127.723)" opacity="0.1"/>
    <path id="Path_692" data-name="Path 692" d="M491.5,501.3s9.752,12.257,14.2,12.572S491.5,501.3,491.5,501.3Z" transform="translate(-138.842 -132.689)" opacity="0.1"/>
    <path id="Path_693" data-name="Path 693" d="M505.737,564c-.437.215-5.531,11.055-10.725,11.384S505.737,564,505.737,564Z" transform="translate(-139.42 -147.355)" opacity="0.1"/>
    <path id="Path_694" data-name="Path 694" d="M568.33,594.9s9.668-2.168,11.821,4.765C580.151,599.644,579.5,597.476,568.33,594.9Z" transform="translate(-156.814 -154.508)" opacity="0.1"/>
    <path id="Path_695" data-name="Path 695" d="M559.84,646.5s11.713-2.39,14.2.866S559.84,646.5,559.84,646.5Z" transform="translate(-154.828 -166.455)" opacity="0.1"/>
    <path id="Path_696" data-name="Path 696" d="M513.078,654c0,.107-11.92,2.39-11.491,3.907s12.717,1.3,13.154-1.088A2.3,2.3,0,0,0,513.078,654Z" transform="translate(-141.199 -168.407)" opacity="0.1"/>
    <path id="Path_697" data-name="Path 697" d="M554.75,667.21s19.589-2.39,18.386,1.731S554.75,667.21,554.75,667.21Z" transform="translate(-153.637 -171.336)" opacity="0.1"/>
    <path id="Path_698" data-name="Path 698" d="M420.89,352.44c.107.322,12.9,2.061,14.632,6.182,0,0-12.572-5.861-14.556-5.861" transform="translate(-122.326 -97.868)" opacity="0.1"/>
    <path id="Path_699" data-name="Path 699" d="M441.355,396.16s-10.626,3.363-9.867,8.427S430.408,402.243,441.355,396.16Z" transform="translate(-124.796 -108.095)" opacity="0.1"/>
    <path id="Path_700" data-name="Path 700" d="M437.92,428.48s3.869-5.309,7.554-4.336S437.92,428.48,437.92,428.48Z" transform="translate(-126.309 -114.613)" opacity="0.1"/>
    <path id="Path_701" data-name="Path 701" d="M504.715,166.959a6.026,6.026,0,0,1-1.241.927c-3.064,1.785-3.907,4.535-5.363,7.707-1.356,2.9-2.85,5.975-5.585,7.623-3.532,2.13-8.182,1.348-11.851,3.2a9.193,9.193,0,0,0-4.9,9.063,26.146,26.146,0,0,0,1.042,4.152,29.608,29.608,0,0,1,1.118,9.017,1.537,1.537,0,0,1,0,.268,25.036,25.036,0,1,1,26.813-41.959Z" transform="translate(-132.43 -53.202)" opacity="0.1"/>
    <path id="Path_702" data-name="Path 702" d="M500.246,154.985c-2.75-5.776-8.733-9.438-14.885-11.223-4.7-1.356-9.8-1.8-14.456-.306A53.023,53.023,0,0,0,463.344,147c-4.643,2.344-9.745,4.2-13.238,8.052a4.034,4.034,0,0,0-1.325,3.233,9.028,9.028,0,0,0,1.31,2.344,7.113,7.113,0,0,1,.069,5.891,54.039,54.039,0,0,0-2.16,5.661c-.475,1.969-.291,4.275,1.164,5.677a21.221,21.221,0,0,0,2.191,1.532,11.534,11.534,0,0,1,2.076,2.36l4.137,5.654a57.344,57.344,0,0,1,5.179,7.96,37.937,37.937,0,0,0,3.2,6.075c1.379,1.831,3.524,3.3,5.807,3.1a1.126,1.126,0,0,0,.919-.437,1.212,1.212,0,0,0,.115-.575,29.406,29.406,0,0,0-1.1-8.986,25.939,25.939,0,0,1-1.042-4.152,9.231,9.231,0,0,1,4.9-9.063c3.677-1.854,8.327-1.073,11.851-3.195,2.743-1.655,4.236-4.727,5.585-7.661,1.479-3.172,2.3-5.922,5.363-7.707S501.77,158.026,500.246,154.985Z" transform="translate(-128.612 -48.766)" fill="#585268"/>
    <path id="Path_703" data-name="Path 703" d="M501.63,693.06s3.83,4.88,2.835,7.661S501.63,693.06,501.63,693.06Z" transform="translate(-141.212 -177.544)" opacity="0.1"/>
    <path id="Path_704" data-name="Path 704" d="M569.28,706.957s.85-6.542,4.26-6.6,3.578-.352,6.182.651,5.049,2.559,4.267,2.789-4.482-3.739-8.281-1.708A27.361,27.361,0,0,0,569.28,706.957Z" transform="translate(-157.036 -179.23)" opacity="0.1"/>
    <path id="Path_705" data-name="Path 705" d="M483.66,251.114l10.725-7.515s-15.689-9.27-17.559-7.967-3.156,13.023-3.156,13.023Z" transform="translate(-134.672 -70.516)" opacity="0.1"/>
    <path id="Path_706" data-name="Path 706" d="M483.6,250.44l10.725-7.661s-15.69-9.27-17.559-7.967-3.156,13.667-3.156,13.667Z" transform="translate(-134.658 -70.324)" fill="#e1e7ef"/>
    <path id="Path_707" data-name="Path 707" d="M483.6,250.44l10.725-7.661s-15.69-9.27-17.559-7.967-3.156,13.667-3.156,13.667Z" transform="translate(-134.658 -70.324)" fill="#0f936b"/>
    <path id="Path_708" data-name="Path 708" d="M467.341,234.788l-.322-.161a2.781,2.781,0,0,0-3.011.314l-32.176,26.1s-6.994,9.676-6.021,26.369l18.976,26.882s2.168-9.1,4.765-7.37c0,0,3.685,46.616,0,53.335s-5.309,31.869-5.309,31.869l12.464,1.41s1.3-17.022,4.229-23.09,4.52-26.928,4.52-26.928,2.635-30.306,2.2-43.315-4.229-40.978-4.229-40.978S464.491,242.832,467.341,234.788Z" transform="translate(-123.455 -70.239)" fill="#f6f8fb"/>
    <path id="Path_709" data-name="Path 709" d="M517.808,244.679,504.44,239.73s17.022-18.647,19.152-8.3Z" transform="translate(-141.869 -68.831)" opacity="0.1"/>
    <path id="Path_710" data-name="Path 710" d="M517.808,243.829,504.44,238.88s17.022-18.647,19.152-8.3Z" transform="translate(-141.869 -68.632)" fill="#e1e7ef"/>
    <path id="Path_711" data-name="Path 711" d="M517.808,243.829,504.44,238.88s17.022-18.647,19.152-8.3Z" transform="translate(-141.869 -68.632)" fill="#0f936b"/>
    <path id="Path_712" data-name="Path 712" d="M521.32,228.117a.766.766,0,0,1,.552.123Z" transform="translate(-145.818 -68.785)" opacity="0.1"/>
    <path id="Path_713" data-name="Path 713" d="M523,226.426l35.47,7.661s9.76,2.168,16.808,26.667-9.653,54.515-9.653,54.515l-3.685-3.133,1.846,71.545s-16.371,6.175-21.573.766-4.658-30.812-4.658-30.812-4.987-46.823-8.136-54.522-1.532-63.195-1.532-63.195S524.992,226,523,226.426Z" transform="translate(-146.211 -68.389)" fill="#f6f8fb"/>
    <path id="Path_714" data-name="Path 714" d="M565.218,285.842c-.5.46-1.08,22.109,1.088,38.588a210.282,210.282,0,0,0,6.129,29.7l-3.218-66.014S566.735,284.432,565.218,285.842Z" transform="translate(-155.977 -82.215)" opacity="0.1"/>
    <path id="Path_715" data-name="Path 715" d="M559.7,261.6c.866.544,4.666,9.538,2.927,13.223S559.7,261.6,559.7,261.6Z" transform="translate(-154.795 -76.62)" opacity="0.1"/>
    <path id="Path_716" data-name="Path 716" d="M505.893,156.3a19.582,19.582,0,0,0-7.8-8.167,18.548,18.548,0,0,1,5.845,6.895c1.532,3.064,1.08,6.129-1.9,7.806s-3.907,4.535-5.363,7.707c-1.356,2.9-2.85,5.975-5.592,7.661-3.524,2.13-8.174,1.341-11.851,3.195a9.254,9.254,0,0,0-4.9,9.07,26.05,26.05,0,0,0,1.049,4.145,29.633,29.633,0,0,1,1.118,9.017,1.208,1.208,0,0,1-.122.575,1.1,1.1,0,0,1-.912.437,5.279,5.279,0,0,1-2.674-.5,6.221,6.221,0,0,0,4.6,1.8.9.9,0,0,0,1.027-1.011,29.4,29.4,0,0,0-1.111-9.017,25.167,25.167,0,0,1-1.05-4.152,9.231,9.231,0,0,1,4.9-9.063c3.677-1.854,8.327-1.073,11.851-3.195,2.743-1.655,4.236-4.727,5.585-7.661,1.479-3.172,2.3-5.922,5.363-7.707S507.425,159.338,505.893,156.3Z" transform="translate(-134.466 -50.078)" opacity="0.1"/>
    <path id="Path_717" data-name="Path 717" d="M755.273,257.879c-10.557-.207-19.872-7.661-25.151-16.77a16.854,16.854,0,0,1-2.543-7.178,8.286,8.286,0,0,1,.291-1.716,17.8,17.8,0,0,0,.766-2.628,4.594,4.594,0,0,0,0-1.073v-.061a6.338,6.338,0,0,0-2.3-5.156c-1.41-1.325-3.179-2.3-4.65-3.616-4.535-3.984-5.914-10.373-6-16.456V202.9c.054-2.6.26-5.217.238-7.822a32.875,32.875,0,0,0-.192-4.428c-.437-3.685-1.839-7.439-4.734-9.791-7.554-6.129-20.255.253-28.077-5.539-1.9-1.417-3.44-3.509-5.746-4.06a9.68,9.68,0,0,0-5.248.712c-5.761,1.9-12.188,4.4-14.441,9.959-1.287,3.195-.927,6.841-2.107,10.074-.766,2.168-2.229,4.03-3.294,6.083a9.522,9.522,0,0,0-1.226,5.079,5.73,5.73,0,0,0,.375,2.7,6.9,6.9,0,0,0,1.877,2.689A8.931,8.931,0,0,1,652,210.359c-1.471,1.8-3.731,3.064-5.263,4.857-2.835,3.286-2.727,7.753-1.333,11.614s3.914,7.377,5.654,11.139c.766,1.632,1.348,3.455.575,5.079A14.57,14.57,0,0,1,649.086,246a9.292,9.292,0,0,0-2.3,5.133c-17.245,3.938-17.26,17.8-17.26,17.8h0l-9.316,23.427s-1.494,3.945-3.248,9.155l-11.024-1.977,7.661,12.824c-1.448,5.225-2.474,10.066-2.137,12.5,0,0-3.424,16.088,2.666,18.9l13.437,6.044a7.959,7.959,0,0,0,1.862.835l.544.245a1.44,1.44,0,0,0,1.256,0h.184a1.808,1.808,0,0,0,.766-.115,1.534,1.534,0,0,0,.674-.728.224.224,0,0,1,0-.077l4.022-1.164,3.409,4.037c1.532,1.08,3.064,2.015,4.512,2.858l-5.278,52.416s-.85,69.714-3.424,85.6a44.5,44.5,0,0,0-.6,12.625l-.1.169c.636,4.482,2.3,5.363,2.3,5.363v-.061a.509.509,0,0,0,.1.061,45.137,45.137,0,0,1,2.758-5.914v1.149c-.054,5.914-.237,14.2-.85,19.581-1.042,9.193,2.666,39.492,2.666,39.492l1.279,27.579a25.5,25.5,0,0,1-3.141,13.437c-3.064,5.508-6.979,13.261-7.262,16.7a3.45,3.45,0,0,0,0,.559h0l-6.573,7.906s-2.566,3.968,3.233,5.57c3.118.866,8.5,0,12.817-1.019a8.565,8.565,0,0,0,6.642-8.335,29.491,29.491,0,0,1,5.424-10.411l1.08,6.351,7.232,1.793.927-17.405a7.657,7.657,0,0,0,.5-3.064h0c1.425-12.38-3.355-11.269-3.355-11.269a.665.665,0,0,1,.23.429l-.23-.421h0c-2.934-5.792-1.532-15.322-1.532-15.322s3.83-27.579,5.14-34.865c.943-5.148.552-22,.238-31.41a11.205,11.205,0,0,0-.038-1.141c11.215-.146,24.959-.521,34.6-1.456v1.134L697.8,576.679a35.769,35.769,0,0,1-2.5,12.12.663.663,0,0,1-.084.222,52.86,52.86,0,0,0-3.531,17.076l-.828,20.684v.575h0c-1.44.552-3.715,2.153-3.777,6.8-.1,6.8,11.89,4.535,11.89,4.535,11.981,0,12.081-12.472,12.081-12.472s.375-11.438.95-19.091-1.808-5.968-1.808-5.968l-.184,21.772V604.013l.184-2.766v-.077h0v-.59l1.509-22.454s11.039-37.416,12.748-44.594c1.218-5.1.712-20.47.314-28.966a6.755,6.755,0,0,0-.061-1.126c3.424-.307,6.45-.337,7.661-.337h.559s-.567-60.092-2-82.737-3.708-43.368-9.415-49.6c-3.447-3.769-8.251-15.406-11.491-24.024a120.179,120.179,0,0,0,21.121,6.895c18.072,3.784,15.6-11.905,15.6-11.905l-1.831-29.671h.123a151.284,151.284,0,0,0-1.992-23.2,68.252,68.252,0,0,0-4.658-16.854c1.961-.766,3.9-1.586,5.8-2.428,4.911-2.168,10.442-5.24,11.146-10.534h-.237A6.84,6.84,0,0,0,755.273,257.879Zm-112.025,42.9h0c.038,3.064-.077,8.381-.26,14.257l-5.738-7.661L643,298.045ZM720.133,316.339Zm2.39,11.591-9.561-3.064a42.9,42.9,0,0,1,5.906-7.309l.827-.766-.3.061.46-.421.276-.061-.437.421.521-.107a16.311,16.311,0,0,0,3.256,6.55c3.432,3.746-.942,4.7-.942,4.7Z" transform="translate(-165.611 -55.455)" fill="url(#linear-gradient-2)"/>
    <path id="Path_718" data-name="Path 718" d="M648.172,715.66l-1.119,21.205-7.132-1.785-1.5-8.818Z" transform="translate(-149.338 -167.401)" fill="#a27772"/>
    <path id="Path_719" data-name="Path 719" d="M648.172,715.66l-1.119,21.205-7.132-1.785-1.5-8.818Z" transform="translate(-149.338 -167.401)" opacity="0.1"/>
    <path id="Path_720" data-name="Path 720" d="M716.48,725.841l10.878,2.252,8.067-7.125V700.89l.184-2.743v-.084h0v-.582l1.5-22.316S748,638.017,749.69,630.885c1.2-5.056.7-20.317.3-28.751-.161-3.455-.3-5.769-.3-5.769l-24.017-5.815-.506,18.463L723.413,673.7a35.845,35.845,0,0,1-2.459,12.035l-.084.222a52.646,52.646,0,0,0-3.486,16.946l-.812,20.569v.567Z" transform="translate(-191.468 -153.565)" fill="#cc818c"/>
    <path id="Path_721" data-name="Path 721" d="M741.45,730.145v.567h0v-.582Z" transform="translate(-197.309 -186.215)" opacity="0.1"/>
    <path id="Path_722" data-name="Path 722" d="M716.48,765.141l10.878,2.252,8.067-7.125V758.56a2.3,2.3,0,0,1-1.157,1.839l-.115.069a21.681,21.681,0,0,1-12.211,2.413l-4.244-.36a3.975,3.975,0,0,0-1.126.276v.567Z" transform="translate(-191.468 -192.865)" opacity="0.1"/>
    <path id="Path_723" data-name="Path 723" d="M733.035,754.506l.115-.061a2.3,2.3,0,0,0,1.172-1.992l.176-21.611s2.344-1.678,1.777,5.922-.935,18.953-.935,18.953-.092,12.38-11.913,12.38c0,0-11.821,2.252-11.729-4.5s4.88-7.033,4.88-7.033l4.244.368A21.629,21.629,0,0,0,733.035,754.506Z" transform="translate(-190.35 -186.345)" fill="#b07473"/>
    <path id="Path_724" data-name="Path 724" d="M642.52,723.406c.276,4.88,14.632,2.061,14.632,2.061l9.66-18.754s8.067-6.2,4.03-11.637a8.66,8.66,0,0,1-.59-.927l-.038-.046h0c-.084-.138-.161-.283-.237-.437h0c-2.9-5.746-1.471-15.169-1.471-15.169s3.746-27.4,5.064-34.619c.927-5.1.544-21.841.237-31.2-.122-3.892-.237-6.5-.237-6.5l-23.833-6.381V606.9c-.054,5.876-.237,14.1-.843,19.443-1.026,9.094,2.628,39.208,2.628,39.208l1.264,27.4a25.382,25.382,0,0,1-3.064,13.338c-2.988,5.47-6.895,13.177-7.163,16.586a3.346,3.346,0,0,0-.038.529Z" transform="translate(-174.168 -155.727)" fill="#cc818c"/>
    <path id="Path_725" data-name="Path 725" d="M642.518,752.217c.276,4.88,14.632,2.061,14.632,2.061l9.66-18.754s8.067-6.2,4.03-11.637a8.71,8.71,0,0,1-.59-.927c-.13,2.842-3.248,9.959-3.248,9.959s-7.975,15.958-10.511,19.612-13.552-.682-13.966-.835a3.358,3.358,0,0,0-.008.521Z" transform="translate(-174.166 -184.538)" opacity="0.1"/>
    <path id="Path_726" data-name="Path 726" d="M667.8,722.292s4.719-1.1,3.31,11.192h0a7.914,7.914,0,0,1-3.731,7.025c-3.378,2.122-8.588,6.688-11.223,15.567h0a8.488,8.488,0,0,1-6.55,8.274c-4.259,1-9.568,1.869-12.641,1.011-5.723-1.594-3.187-5.531-3.187-5.531l6.565-7.791s11.445,4.5,13.973.843,10.511-19.6,10.511-19.6S669.2,723.327,667.8,722.292Z" transform="translate(-171.992 -184.376)" fill="#b07473"/>
    <path id="Path_727" data-name="Path 727" d="M728.326,593.52l-.506,18.463c6.4-.62,10.978-1.486,11.759-2.7,1.693-2.62,7.837-3.723,13.062-4.175-.161-3.455-.3-5.769-.3-5.769Z" transform="translate(-194.121 -154.26)" opacity="0.1"/>
    <path id="Path_728" data-name="Path 728" d="M651.94,609.829a8.763,8.763,0,0,1,2.628-3.172c2.528-1.4,2.252,9.009,2.252,9.009s8.427.076,19.191-.061c-.123-3.892-.238-6.512-.238-6.512L651.94,602.72S651.986,605.677,651.94,609.829Z" transform="translate(-176.371 -156.412)" opacity="0.1"/>
    <path id="Path_729" data-name="Path 729" d="M647.632,562.11s2.819-7.661,5.363-9.025,2.252,9,2.252,9,61.915.567,65.01-4.221,21.106-4.5,21.106-4.5-.559-59.663-1.969-82.171-3.654-43.062-9.285-49.252c-3.639-4.007-8.818-16.969-12.02-25.61-1.739-4.719-2.9-8.159-2.9-8.159l-59.1,3.371-.483,4.788-6.274,62.758s-.843,69.231-3.378,84.99S647.632,562.11,647.632,562.11Z" transform="translate(-174.783 -106.226)" fill="#444053"/>
    <g id="Group_381" data-name="Group 381" transform="translate(470.436 281.944)" opacity="0.1">
      <path id="Path_730" data-name="Path 730" d="M719.587,557.866c3.064-4.78,21.106-4.5,21.106-4.5s-.559-59.663-1.969-82.171-3.654-43.062-9.285-49.252c-3.654-4.022-8.818-16.969-12.02-25.61-1.463-3.968-2.513-7.025-2.8-7.9l4.6-.26s1.157,3.44,2.9,8.159c3.2,8.641,8.373,21.6,12.012,25.61,5.631,6.19,7.883,26.736,9.285,49.252s1.976,82.171,1.976,82.171-18.011-.276-21.113,4.5c-2.643,4.083-48.2,4.275-61.425,4.236C679.819,562.064,717.2,561.559,719.587,557.866Z" transform="translate(-649.359 -388.17)"/>
      <path id="Path_731" data-name="Path 731" d="M648.2,603.4c1.141-.636,1.708,1.126,1.992,3.264a44.163,44.163,0,0,0-2.658,5.761s-1.632-.881-2.3-5.363A10.426,10.426,0,0,1,648.2,603.4Z" transform="translate(-645.24 -438.484)"/>
    </g>
    <path id="Path_732" data-name="Path 732" d="M668.631,197.155c-4.091,5.577.046,13.506-4.344,18.93-1.448,1.793-3.677,3.064-5.186,4.826-2.8,3.264-2.689,7.7-1.318,11.53s3.83,7.324,5.577,11.062c.766,1.616,1.333,3.432.567,5.041a14.278,14.278,0,0,1-2.513,2.934c-2.819,3.149-2.9,7.523-1.379,11.231s4.413,6.895,7.27,10.036c1.126,1.233,2.551,2.6,4.428,2.559a6.129,6.129,0,0,0,2.781-.912,28.345,28.345,0,0,0,12.9-36.994c-2.375-5.692-6.335-11.147-6.374-17.16,0-4.773,2.452-9.331,2.888-14.081.529-5.776-2.888-14.946-9.859-17.467C674.53,192.4,670.708,194.29,668.631,197.155Z" transform="translate(-177.519 -59.565)" fill="#585268"/>
    <path id="Path_733" data-name="Path 733" d="M668.631,197.155c-4.091,5.577.046,13.506-4.344,18.93-1.448,1.793-3.677,3.064-5.186,4.826-2.8,3.264-2.689,7.7-1.318,11.53s3.83,7.324,5.577,11.062c.766,1.616,1.333,3.432.567,5.041a14.278,14.278,0,0,1-2.513,2.934c-2.819,3.149-2.9,7.523-1.379,11.231s4.413,6.895,7.27,10.036c1.126,1.233,2.551,2.6,4.428,2.559a6.129,6.129,0,0,0,2.781-.912,28.345,28.345,0,0,0,12.9-36.994c-2.375-5.692-6.335-11.147-6.374-17.16,0-4.773,2.452-9.331,2.888-14.081.529-5.776-2.888-14.946-9.859-17.467C674.53,192.4,670.708,194.29,668.631,197.155Z" transform="translate(-177.519 -59.565)" opacity="0.1"/>
    <path id="Path_734" data-name="Path 734" d="M717.743,464.55c-8.189.429-15.9,3.953-23.067,7.937s-14.111,8.5-21.826,11.323" transform="translate(-181.262 -124.092)" opacity="0.1"/>
    <path id="Path_735" data-name="Path 735" d="M713.072,489.74a33.762,33.762,0,0,0-21.259,10.342c-1.992,2.107-3.708,4.466-5.784,6.489a25.7,25.7,0,0,1-11.4,6.458" transform="translate(-181.679 -129.984)" opacity="0.1"/>
    <path id="Path_736" data-name="Path 736" d="M712.846,508.91a37.17,37.17,0,0,0-17.1,10.311c-1.256,1.356-2.4,2.8-3.654,4.16-6.78,7.278-16.356,11.139-25.6,14.793" transform="translate(-179.775 -134.469)" opacity="0.1"/>
    <path id="Path_737" data-name="Path 737" d="M716.165,242.939a168.109,168.109,0,0,0,1.685,19.551c.766,4.6,1.839,8.733,3.378,10.564,4.5,5.363-21.948,12.526-21.948,12.526l-15.62-12.1s12.38-11.4,6.611-22.515S716.165,242.939,716.165,242.939Z" transform="translate(-183.791 -72.162)" fill="#cc818c"/>
    <path id="Path_738" data-name="Path 738" d="M658.79,396.329h62.474c-1.739-4.719-2.9-8.159-2.9-8.159l-59.1,3.371Z" transform="translate(-177.974 -106.226)" opacity="0.1"/>
    <path id="Path_739" data-name="Path 739" d="M649.816,368.085h66.8c-1.877-6.719,0-12.932,2.674-17.712a39.146,39.146,0,0,1,6.994-9.07l.46-.421,23.32-5.163,1.257-.276s.192-42.4-14.824-48.225a87.785,87.785,0,0,1-24.017-13.69L691.844,279.9l-15.2-7.661c-4.88,5.248-17.827,3.187-17.827,3.187-21.2,2.436-21.2,18.386-21.2,18.386S650,322.7,650.942,322.7,649.816,368.085,649.816,368.085Z" transform="translate(-173.022 -79.108)" fill="#f6f8fb"/>
    <path id="Path_740" data-name="Path 740" d="M678.066,359.627s-13.621-3.018-18.256-8.3" transform="translate(-178.212 -97.609)" opacity="0.1"/>
    <path id="Path_741" data-name="Path 741" d="M768.467,341.51l-15.8,12.947a26.921,26.921,0,0,0,.521,3.064l.46-.421,23.32-5.163Z" transform="translate(-199.933 -95.312)" opacity="0.1"/>
    <path id="Path_742" data-name="Path 742" d="M717.46,385.856s3.455,1.946,8.749,4.5h9.078c-1.877-6.719,0-12.932,2.674-17.712l-16-5.179C727.4,372.534,717.46,385.856,717.46,385.856Z" transform="translate(-191.697 -101.384)" opacity="0.1"/>
    <path id="Path_743" data-name="Path 743" d="M641.266,293.76l-9.377,5.064L622.7,322.09s-9.568,25.511-8.634,32.268c0,0-3.371,15.95,2.628,18.761l15.628,7.079a1.456,1.456,0,0,0,1.877-2.007c-2.229-4.221-4.681-10.825-.766-14.456l-4.5-9.377L645.2,327.713l5.439-9.193Z" transform="translate(-167.29 -84.142)" fill="#f6f8fb"/>
    <path id="Path_744" data-name="Path 744" d="M677.053,353.236c.812,3.31,3.555,8.427,12.633,10.335l9.959,8.159,10.6,4.8,4.321,1.953,1.831-13.23-4.16-2.3-4.849-2.651s-10.94-19.819-28.261-11.491A3.83,3.83,0,0,0,677.053,353.236Z" transform="translate(-182.217 -96.543)" opacity="0.1"/>
    <path id="Path_745" data-name="Path 745" d="M677.8,351.78c.812,3.317,3.547,8.427,12.625,10.334l9.959,8.159,10.6,4.8,4.313,1.953,1.831-13.23-4.16-2.3-4.811-2.628s-10.947-19.819-28.269-11.453a3.831,3.831,0,0,0-2.091,4.359Z" transform="translate(-182.395 -96.212)" fill="#cc818c"/>
    <circle id="Ellipse_344" data-name="Ellipse 344" cx="24.201" cy="24.201" r="24.201" transform="translate(490.722 139.536)" opacity="0.1"/>
    <circle id="Ellipse_345" data-name="Ellipse 345" cx="24.201" cy="24.201" r="24.201" transform="translate(490.722 138.977)" fill="#cc818c"/>
    <path id="Path_746" data-name="Path 746" d="M720.658,293.091l-7.278-14.142s10.649-4.305,11.422-9.293,10.2,5.845,8.166,9.438S720.658,293.091,720.658,293.091Z" transform="translate(-190.743 -78.202)" opacity="0.1"/>
    <path id="Path_747" data-name="Path 747" d="M720.658,291.621l-7.278-14.142s10.649-4.305,11.422-9.293,10.2,5.853,8.166,9.438S720.658,291.621,720.658,291.621Z" transform="translate(-190.743 -77.859)" fill="#f6f8fb"/>
    <path id="Path_748" data-name="Path 748" d="M636.269,345.255l40.212,54.063s-14.824,8.067-35.24-6.374l-8.818-10.511L607.25,340Z" transform="translate(-165.918 -94.958)" fill="#f50057"/>
    <path id="Path_749" data-name="Path 749" d="M634.512,380.977l3.662-.1s22.37-21.711,27.863-10.725S652.1,391.4,652.1,391.4l-5.907,3.187-7.7,2.3-4.926-6.611Z" transform="translate(-172.074 -101.286)" fill="#cc818c"/>
    <path id="Path_750" data-name="Path 750" d="M638.367,396.256a5.466,5.466,0,0,1,.092,3.784,1.532,1.532,0,0,1-.667.728,1.706,1.706,0,0,1-.766.107,7.7,7.7,0,0,1-5.049-2.5,23.056,23.056,0,0,1-3.271-4.734c-1-1.739-2.03-3.662-1.678-5.638.4-2.153,2.3-3.647,4.16-4.857,3.708-2.452,3.83.406,4.642,3.562S637.516,393.069,638.367,396.256Z" transform="translate(-170.528 -104.835)" opacity="0.1"/>
    <path id="Path_751" data-name="Path 751" d="M637.636,396.256a5.509,5.509,0,0,1,.092,3.784,1.531,1.531,0,0,1-.667.728,1.721,1.721,0,0,1-.766.107,7.66,7.66,0,0,1-5.049-2.5,22.786,22.786,0,0,1-3.279-4.734c-1-1.739-2.03-3.662-1.67-5.638.391-2.153,2.3-3.647,4.152-4.857,3.716-2.452,3.83.406,4.65,3.562S636.778,393.069,637.636,396.256Z" transform="translate(-170.356 -104.835)" fill="#f6f8fb"/>
    <path id="Path_752" data-name="Path 752" d="M623.85,316.974l1.869-3.164-1.632,5.876Z" transform="translate(-145.93 -73.403)" opacity="0.1"/>
    <path id="Path_753" data-name="Path 753" d="M721.19,380.005l4.313,1.954,1.831-13.23-4.16-2.3C726.047,369.724,723.534,375.815,721.19,380.005Z" transform="translate(-192.57 -101.141)" opacity="0.1"/>
    <path id="Path_754" data-name="Path 754" d="M737.732,363.2s-13.927.85-19.842-2.949" transform="translate(-191.798 -99.695)" opacity="0.1"/>
    <g id="Group_382" data-name="Group 382" transform="translate(484.907 194.235)" opacity="0.1">
      <path id="Path_755" data-name="Path 755" d="M739.635,352.236a39.213,39.213,0,0,1,6.994-9.078,18.653,18.653,0,0,1,2.061-1.118l21.711-4.459,1.256-.276s.191-42.4-14.816-48.225A90.186,90.186,0,0,1,733.43,275.9l1.647-.506a87.553,87.553,0,0,0,24.017,13.69c15.015,5.815,14.816,48.225,14.816,48.225h-2.252l-22.216,4.252s-.958.927-1.249,1.2a43.051,43.051,0,0,0-7.1,9.392,23.55,23.55,0,0,0-1.862,17.8h-2.3C735.077,363.23,736.992,357.017,739.635,352.236Z" transform="translate(-680.34 -274.08)"/>
      <path id="Path_756" data-name="Path 756" d="M664.13,277.956c.36-.054.7-.107,1.08-.146a38.847,38.847,0,0,0,4.6.375A41.781,41.781,0,0,1,664.13,277.956Z" transform="translate(-664.13 -274.646)"/>
      <path id="Path_757" data-name="Path 757" d="M701.5,281.364l-13.744-6.956a7.273,7.273,0,0,0,.766-.728l14.341,7.255Z" transform="translate(-669.657 -273.68)"/>
    </g>
    <path id="Path_758" data-name="Path 758" d="M760.945,340l9.193,11.262,1.877,30.582s2.436,15.567-15.383,11.813S718.19,378.3,718.19,378.3s9.959-13.322,4.5-18.386l25.518,8.258s4.313-.942.935-4.688-3.976-10.511-3.976-10.511Z" transform="translate(-191.868 -94.958)" fill="#f6f8fb"/>
    <path id="Path_759" data-name="Path 759" d="M779.42,382.17l5.064,5.815A7.3,7.3,0,0,1,779.42,382.17Z" transform="translate(-206.191 -104.823)" opacity="0.1"/>
    <path id="Path_760" data-name="Path 760" d="M736.99,360.8l7.883,10.128-3.938.942Z" transform="translate(-172.394 -84.395)" opacity="0.1"/>
    <path id="Path_761" data-name="Path 761" d="M665.458,208.44c-.866-2.122-.2-4.6.843-6.6s2.474-3.892,3.256-6.044c1.157-3.2.8-6.826,2.069-9.959,2.229-5.554,8.565-8.036,14.242-9.959a9.575,9.575,0,0,1,5.179-.7c2.3.544,3.792,2.628,5.669,4.03,7.707,5.746,20.24-.582,27.694,5.5,2.85,2.3,4.237,6.06,4.666,9.714s0,7.362-.046,11.047c-.123,6.45,1.088,13.506,5.914,17.781,1.456,1.287,3.172,2.252,4.6,3.585a6.277,6.277,0,0,1,2.3,5.125,17.766,17.766,0,0,1-.766,2.6c-.958,3.363.475,6.895,2.222,9.959,5.209,9.017,14.395,16.448,24.806,16.655-.7,5.255-6.129,8.3-10.993,10.457-6.129,2.75-12.656,5.447-19.4,5.1s-13.789-4.665-14.969-11.315c-.406-2.3-.352-5.064-2.3-6.259-1.2-.728-2.743-.544-4.03-1.088-1.862-.766-2.781-2.858-3.394-4.78a43.029,43.029,0,0,1-2-12.257c-.084-4.934.567-10.319-2.229-14.38-2.589-3.761-7.186-5.669-10.174-9.124-2.758-3.2-5.753-7.063-10.273-7.661C682.083,208.991,669.151,217.487,665.458,208.44Z" transform="translate(-179.44 -56.371)" opacity="0.1"/>
    <path id="Path_762" data-name="Path 762" d="M665.458,206.97c-.866-2.122-.2-4.6.843-6.6s2.474-3.892,3.256-6.044c1.157-3.2.8-6.826,2.069-9.959,2.229-5.562,8.565-8.044,14.242-9.959a9.575,9.575,0,0,1,5.179-.7c2.3.544,3.792,2.628,5.669,4.03,7.707,5.746,20.24-.582,27.694,5.5,2.85,2.3,4.237,6.06,4.666,9.722s0,7.354-.046,11.039c-.123,6.45,1.088,13.506,5.914,17.781,1.456,1.287,3.172,2.252,4.6,3.585a6.277,6.277,0,0,1,2.3,5.125,17.766,17.766,0,0,1-.766,2.6c-.958,3.363.475,6.895,2.222,9.959,5.225,8.986,14.372,16.44,24.783,16.647-.7,5.255-6.129,8.3-10.993,10.465-6.129,2.743-12.656,5.439-19.4,5.094s-13.79-4.665-14.969-11.315c-.406-2.3-.352-5.064-2.3-6.259-1.2-.728-2.743-.544-4.03-1.088-1.862-.766-2.781-2.858-3.394-4.78a42.977,42.977,0,0,1-2-12.257c-.084-4.934.567-10.319-2.229-14.379-2.589-3.761-7.186-5.669-10.174-9.124-2.758-3.2-5.753-7.063-10.273-7.661C682.083,207.521,669.151,216.033,665.458,206.97Z" transform="translate(-179.44 -56.027)" fill="#585268"/>
    <path id="Path_763" data-name="Path 763" d="M686.542,291.551l13.874-11.261s-9.5-5.148-10.633-9.538-8.734,2.084-7.96,6.021S686.542,291.551,686.542,291.551Z" transform="translate(-183.349 -78.417)" opacity="0.1"/>
    <path id="Path_764" data-name="Path 764" d="M687.266,289.343l13.874-11.254s-9.5-5.148-10.587-9.538-8.734,2.084-7.96,6.021S687.266,289.343,687.266,289.343Z" transform="translate(-183.529 -77.902)" fill="#f6f8fb"/>
    <circle id="Ellipse_346" data-name="Ellipse 346" cx="1.103" cy="1.103" r="1.103" transform="translate(517.052 208.507)" opacity="0.1"/>
    <circle id="Ellipse_347" data-name="Ellipse 347" cx="1.103" cy="1.103" r="1.103" transform="translate(517.052 214.636)" opacity="0.1"/>
    <circle id="Ellipse_348" data-name="Ellipse 348" cx="1.103" cy="1.103" r="1.103" transform="translate(517.052 220.757)" opacity="0.1"/>
    <g id="Group_383" data-name="Group 383" transform="translate(485.794 125.877)" opacity="0.1">
      <path id="Path_765" data-name="Path 765" d="M672.45,193.873c1.1-3.011.858-6.389,1.885-9.423a10.3,10.3,0,0,0-1.172,2.16c-1.272,3.164-.911,6.788-2.076,9.959l-.077.184a17.507,17.507,0,0,0,1.44-2.88Z" transform="translate(-666.626 -184.45)"/>
      <path id="Path_766" data-name="Path 766" d="M758.637,274.856c-6.129,2.743-12.656,5.439-19.405,5.095s-13.789-4.666-14.969-11.308c-.406-2.3-.352-5.071-2.3-6.267-1.195-.728-2.743-.544-4.03-1.088-1.862-.766-2.781-2.858-3.394-4.78a42.974,42.974,0,0,1-2-12.257c-.084-4.926.574-10.312-2.222-14.379-2.6-3.761-7.194-5.661-10.181-9.124-2.758-3.195-5.753-7.063-10.273-7.661-6.2-.843-19.152,7.661-22.814-1.394a7.125,7.125,0,0,1,.237-5.232c-.268.452-.529.9-.766,1.364-1.042,2.038-1.7,4.482-.835,6.6,3.685,9.04,16.616.544,22.814,1.394,4.52.613,7.515,4.482,10.273,7.661,2.988,3.463,7.584,5.363,10.174,9.132,2.8,4.06,2.145,9.446,2.229,14.372a42.974,42.974,0,0,0,2,12.257c.613,1.931,1.532,4,3.394,4.78,1.287.544,2.834.368,4.03,1.088,1.976,1.2,1.923,3.991,2.3,6.267,1.2,6.642,8.228,10.963,14.969,11.307s13.238-2.344,19.405-5.094c4.443-1.977,9.392-4.711,10.725-9.193C765.869,271.309,762.1,273.316,758.637,274.856Z" transform="translate(-665.288 -189.598)"/>
    </g>
    <path id="Path_767" data-name="Path 767" d="M919.039,325.9c-16.218-9.331-22.347-11.629-22.378-11.629l-.337-.237a13.492,13.492,0,0,1-4.083-5.163,10.807,10.807,0,0,1,0-1.111.463.463,0,0,0,0,.107c.253-4.941,3.769-9.438,7.1-13.361l8.526-10.028a9.882,9.882,0,0,0,2.2-3.478,8.023,8.023,0,0,0,.23-2.137v-.873c-.046-2.49-.115-4.987-.207-7.477-.077-2.176-.636-4.918-2.812-5.363-1.134-.23-2.635.176-3.233-.766a1.862,1.862,0,0,1-.146-1.295.438.438,0,0,0,0,.107v-.123a28.848,28.848,0,0,0,.8-5.125,6.987,6.987,0,0,0-.352-2.6c-1.256-3.608-5.6-5.094-9.438-5.776s-8.143-1.264-10.549-4.267a31.2,31.2,0,0,0-2.1-2.888,8.282,8.282,0,0,0-3.922-1.938,22.217,22.217,0,0,0-14.272,1.241c-1.854.827-3.715,1.946-5.753,1.823s-3.922-1.593-6.006-1.946c-3.371-.575-6.6,1.9-8.258,4.834a11.824,11.824,0,0,0-1.532,5.7v.337h0a8.335,8.335,0,0,0,2.191,5.822c1.456,1.532,3.616,2.543,4.221,4.528.245.8.184,1.678.406,2.5a2.242,2.242,0,0,0,.092.3l-.107.146a25.28,25.28,0,0,0-5.363,15.582,25.863,25.863,0,0,0,18.171,24.515c0,.253,0,.506,0,.766a11.021,11.021,0,0,1-3.524,8.58l-22.975,9.178s-13.851-1.647-18.846,18.593a34.517,34.517,0,0,0-.858,10.266c.184,3.064-.238,8.427-3.831,15.375-5.677,11.124-4.382,36.657,7.232,39.185,10.963,2.39,15.253,1.394,15.7,1.279v.444c-.184,4.8-1.923,46.118-8.243,51.113-1.747,1.387-1.425,2.3,0,2.949,0,0,0,.268-.038.766-.191,3.064-1.164,14.556-5.363,21.083-4.911,7.584-4.4,51.328-4.4,51.328l-3.348,25.786s2.061,15.927,0,18.708c-1.846,2.474-4.3,61.394-4.811,74.173h-.214a6.22,6.22,0,0,0-4.964,3.064c-2.712,4.4-12.211,12.548-12.211,12.548-2.061,2.927-9.683,5.73-13.713,7.048a8.527,8.527,0,0,0-1.532.674,8.174,8.174,0,0,0-3.463,3.647,3.914,3.914,0,0,0-.368,3.064c1.026,2.52,22.454,4.3,27.878,1.762,4.259-1.984,21.144-4.6,28.154-5.623a5.776,5.776,0,0,0,5.01-5.01,3.3,3.3,0,0,0-.644-2.505h0c-1.34-1.662-2.022-6.205-2.3-9.193a6.212,6.212,0,0,0,1.578-.935,67.3,67.3,0,0,1,3.831-27.05c5.163-13.652,6.711-38.933,5.424-55.365,0,0,15.743-67.753,28.138-74.073h0c.192.245,6.205,7.96,6.971,31.854.766,24.27,9.545,40.2,9.545,40.2s-3.876,41.208,0,56.629L880.9,660.49c-.375-.314-.613-.559-.613-.559s.153.674.36,1.754l-.107.521.222.046c.575,3.064,1.425,8.343,1.073,11.491-.2,1.77-.7,4.2-1.034,6.581-.536,3.746-.682,7.378,1.287,8.174,3.233,1.3,22.217,3.064,25.434-1.1a5.968,5.968,0,0,0,.935-6.244,6.323,6.323,0,0,0-.935-1.593s-5.041-8.236-3.616-14.042a4.275,4.275,0,0,0-.605-3.332,171.267,171.267,0,0,1,4.344-27.242c3.233-12.166,10.043-38.841,5.033-56.376h0q-.283-1.034-.644-2.022a75.717,75.717,0,0,1-2.842-29.579,60.282,60.282,0,0,1,0-25.786c3.1-14.157,5.271-28.062,5.271-28.062s1.708-18.708.214-30.176a7.523,7.523,0,0,0-.1-.766l.812-.184s-4.39-19.466-5.937-31.854c-.368-2.926-.843-6.627-1.364-10.58a27.011,27.011,0,0,0,4.206-1.05c13.935-4.8,18.325-48.264,18.325-48.264v-13.79S935.3,335.256,919.039,325.9ZM815.188,661.632c-.429-.214-.682-.36-.682-.36h0Z" transform="translate(-204.505 -71.529)" fill="url(#linear-gradient-3)"/>
    <path id="Path_768" data-name="Path 768" d="M922.109,641.987c6.044,17.383-1.011,45.6-4.29,58.223s-4.282,27.717-4.282,27.717a58.369,58.369,0,0,1-22.171-.506l5.294-25.947c-3.785-15.368,0-56.438,0-56.438s-8.565-15.873-9.323-40.059c-.766-23.8-6.611-31.5-6.8-31.739h0c-12.089,6.3-27.457,73.82-27.457,73.82,1.256,16.371-.26,41.568-5.294,55.158a68.181,68.181,0,0,0-3.777,26.951c-1.762,1.532-4.213,1.747-6.895,1.318-7.193-1.165-15.82-7.362-15.82-7.362s2.766-73.544,4.788-76.333,0-18.647,0-18.647l3.271-25.695s-.506-43.59,4.282-51.144c4.137-6.527,5.087-18,5.271-21.014v-.766l7.293-8.733s70.541-5.294,75.843,0c1.295,1.295,2.1,4.252,2.574,7.967,1.456,11.43-.214,30.069-.214,30.069s-2.114,13.859-5.141,27.962a61.381,61.381,0,0,0,0,25.7A76.935,76.935,0,0,0,922.109,641.987Z" transform="translate(-215.987 -136.698)" fill="#65617d"/>
    <path id="Path_769" data-name="Path 769" d="M939.009,814.4c-3.149,4.16-21.665,2.4-24.821,1.1-1.923-.766-1.777-4.42-1.256-8.151.329-2.367.812-4.788,1.011-6.55.5-4.535-1.532-13.736-1.532-13.736s4.152,4.413,5.156,0a4.806,4.806,0,0,1,3.6-3.417,9.407,9.407,0,0,1,6.542.406c3.271,1.425,8.726,4.451,7.753,8.542-1.386,5.784,3.524,14,3.524,14a6.363,6.363,0,0,1,.919,1.578,6.045,6.045,0,0,1-.9,6.228Z" transform="translate(-237.298 -198.639)" fill="#a27772"/>
    <path id="Path_770" data-name="Path 770" d="M939.064,821.758c-3.149,4.16-21.665,2.4-24.821,1.1-1.923-.766-1.777-4.42-1.256-8.151,1.992.935,5.363,1.708,11.009,1.187a31.1,31.1,0,0,1,3.961-.123,92.091,92.091,0,0,0,12.028-.245A6.044,6.044,0,0,1,939.064,821.758Z" transform="translate(-237.354 -205.999)" opacity="0.1"/>
    <path id="Path_771" data-name="Path 771" d="M857.905,662.265c1.256,16.371-.26,41.568-5.294,55.158a68.181,68.181,0,0,0-3.777,26.951c-1.762,1.532-4.214,1.747-6.895,1.318,1.532-10.626,8-56.407,12.143-92.582,4.727-41.193,26.813-69.53,26.813-69.53l4.405,4.849C873.273,594.742,857.905,662.265,857.905,662.265Z" transform="translate(-220.815 -151.935)" opacity="0.1"/>
    <path id="Path_772" data-name="Path 772" d="M921.583,331.42l-3.064,15.115L903.45,371.854l-18.578-7.937s-25.281-26.453-9.385-30.23a14.065,14.065,0,0,0,5.271-2.344c3.118-2.352,4.1-5.769,4.114-9.116a27.945,27.945,0,0,0-2.559-10.833l32.5-10.2a52.165,52.165,0,0,0-2.3,13.161c-.253,8.856,3.064,13.215,5.738,15.322A9.761,9.761,0,0,0,921.583,331.42Z" transform="translate(-227.434 -85.88)" fill="#fbbebe"/>
    <path id="Path_773" data-name="Path 773" d="M918.467,301.19a52.159,52.159,0,0,0-2.3,13.161,24.727,24.727,0,0,1-1.892,2.015,25.71,25.71,0,0,1-25.695,5.861A27.948,27.948,0,0,0,886,311.394Z" transform="translate(-231.121 -85.88)" opacity="0.1"/>
    <path id="Path_774" data-name="Path 774" d="M917.555,287.915a25.58,25.58,0,1,1-7.494-18.2A25.7,25.7,0,0,1,917.555,287.915Z" transform="translate(-226.478 -76.765)" fill="#fbbebe"/>
    <path id="Path_775" data-name="Path 775" d="M921.583,340.11l-3.064,15.115L903.45,380.544l-18.578-7.937s-25.281-26.453-9.385-30.23a14.065,14.065,0,0,0,5.271-2.344c-2.865,7.875,8.963,24.262,8.963,24.262,1.379,2.03,4.535.766,4.535.766,7.623-1.157,21.65-23.075,23.94-26.721a9.757,9.757,0,0,0,3.386,1.77Z" transform="translate(-227.434 -94.57)" opacity="0.1"/>
    <path id="Path_776" data-name="Path 776" d="M930.071,528.77c-4.474,1.019-29.226,6.5-38.611,5.125-10.327-1.532-30.406-2.513-30.406-2.513s-12.786.69-16.724-1.111v-.766l7.293-8.733s70.541-5.294,75.843,0C928.791,522.1,929.6,525.054,930.071,528.77Z" transform="translate(-221.374 -136.693)" opacity="0.1"/>
    <path id="Path_777" data-name="Path 777" d="M878.3,365.126s-13.292-18.386-8.281-25.587l-22.454,9.193s-13.514-1.639-18.386,18.532a35.091,35.091,0,0,0-.835,10.235c.184,3.064-.23,8.427-3.7,15.322-5.539,11.085-4.283,36.535,7.056,39.07s15.36,1.256,15.36,1.256-1.532,46.1-8.059,51.4,16.7,4.03,16.7,4.03,20.079,1.011,30.414,2.52,39.3-5.294,39.3-5.294-4.283-19.4-5.8-31.739-5.048-38.634-5.048-38.634l25.695-34.811s4.535-21.037-11.338-30.36-21.841-11.606-21.841-11.606-15.95,25.97-24.262,27.227C882.838,365.877,879.681,367.148,878.3,365.126Z" transform="translate(-216.023 -94.643)" fill="#0eb582"/>
    <path id="Path_778" data-name="Path 778" d="M855.872,382.74s-.245,8.32,1.264,11.591,7.056,21.45,7.056,21.45h-12.6s6.8-7.308,6.3-10.84S855.872,382.74,855.872,382.74Z" transform="translate(-223.072 -104.956)" opacity="0.1"/>
    <path id="Path_779" data-name="Path 779" d="M893.6,453.849s-27.824-6.8-30.414-12.594-9.737-18.761-9.737-18.761l2.934-3.953,13.529,10.618S886,442.005,893.6,443.269,893.6,453.849,893.6,453.849Z" transform="translate(-223.507 -113.33)" fill="#fbbebe"/>
    <path id="Path_780" data-name="Path 780" d="M893.6,453.849s-27.824-6.8-30.414-12.594-9.737-18.761-9.737-18.761l2.934-3.953,13.529,10.618S886,442.005,893.6,443.269,893.6,453.849,893.6,453.849Z" transform="translate(-223.507 -113.33)" opacity="0.05"/>
    <path id="Path_781" data-name="Path 781" d="M921.913,421.829v15.092h-2.421A70.548,70.548,0,0,0,885.22,445.8l-4.538,2.514-1.218.682-7.814-17.62,7.308-6.55h.375c1.785.176,9.515.82,12.794-.283,3.11-1.057,6.971-4.405,16.134-2.068,4.512,1.157,8.373,6.213,12.748,4.635Z" transform="translate(-227.764 -114.06)" fill="#fbbebe"/>
    <path id="Path_782" data-name="Path 782" d="M952.25,380.771l5.033,5.669v13.736S953,443.506,939.4,448.294s-37.891-2.773-37.891-2.773-6.274-16.624-3.34-17.62,25.932-7.079,25.932-7.079-.322-25.419,4.711-32.98c0,0-3.271-23.68,8.067-24.185S952.25,380.771,952.25,380.771Z" transform="translate(-233.785 -100.49)" opacity="0.1"/>
    <path id="Path_783" data-name="Path 783" d="M953.251,380.771l5.041,5.669v13.736s-4.282,43.33-17.888,48.118-37.891-2.773-37.891-2.773-6.274-16.624-3.332-17.62,25.932-7.079,25.932-7.079-.329-25.419,4.712-32.98c0,0-3.279-23.68,8.059-24.185S953.251,380.771,953.251,380.771Z" transform="translate(-234.02 -100.49)" fill="#0eb582"/>
    <path id="Path_784" data-name="Path 784" d="M912.111,298.8a10.126,10.126,0,0,0-.575-4.911,3.739,3.739,0,0,0-4-2.3c-2.153.506-3.064,3.31-5.194,3.984-1.785.567-3.731-.7-4.6-2.36a11.754,11.754,0,0,1-.873-5.485v-6.313c0-2.3-.077-4.765-1.486-6.565-1.754-2.237-5.884-3.218-8.641-3.126a7.331,7.331,0,0,0-4.934,1.984,6.35,6.35,0,0,1-5.187,1.846,4.466,4.466,0,0,1-3.616-3.126v-.077a25.695,25.695,0,1,1,38.2,34.106A69.249,69.249,0,0,0,912.111,298.8Z" transform="translate(-228.082 -76.737)" opacity="0.1"/>
    <path id="Path_785" data-name="Path 785" d="M874.592,270.049a4.5,4.5,0,0,1-3.624-3.133c-.207-.812-.153-1.678-.391-2.482-.59-1.984-2.7-3.011-4.122-4.52-2.834-3.011-2.651-7.96-.644-11.583,1.624-2.919,4.765-5.363,8.059-4.811,2.038.352,3.83,1.8,5.868,1.938s3.83-.988,5.615-1.816a21.159,21.159,0,0,1,13.958-1.241,8.044,8.044,0,0,1,3.831,1.938,33.529,33.529,0,0,1,2.045,2.873c2.344,2.988,6.55,3.578,10.3,4.252s7.983,2.16,9.193,5.761c.82,2.39,0,4.98-.444,7.462a2.253,2.253,0,0,0,.1,1.532c.59.965,2.053.559,3.156.766,2.122.452,2.666,3.187,2.75,5.363q.13,3.723.2,7.454a9.5,9.5,0,0,1-.222,2.758,9.735,9.735,0,0,1-2.137,3.47l-8.32,10c-3.693,4.428-7.607,9.591-6.895,15.322-1.747.766-3.83-.728-4.4-2.559s-.115-3.83.276-5.677a69.592,69.592,0,0,0,1.333-9.844,10.1,10.1,0,0,0-.575-4.9,3.738,3.738,0,0,0-4-2.3c-2.16.506-3.064,3.31-5.194,3.984-1.785.567-3.731-.7-4.6-2.36a11.721,11.721,0,0,1-.873-5.478v-6.32c0-2.3-.077-4.765-1.486-6.565-1.754-2.237-5.884-3.218-8.642-3.126a7.332,7.332,0,0,0-4.926,1.984A6.361,6.361,0,0,1,874.592,270.049Z" transform="translate(-226.049 -71.976)" fill="#7c5c5c"/>
    <path id="Path_786" data-name="Path 786" d="M885.3,381.92l7.891,32.413S899.411,414.295,885.3,381.92Z" transform="translate(-230.957 -104.764)" opacity="0.1"/>
    <path id="Path_787" data-name="Path 787" d="M918.282,374.85s-10.327,16.915-6.3,34.413l1.923.138S910.476,401.3,918.282,374.85Z" transform="translate(-236.981 -103.11)" opacity="0.1"/>
    <path id="Path_788" data-name="Path 788" d="M929,499.545s12.686-4.2,13.606,5.539C942.636,505.084,940.246,498.411,929,499.545Z" transform="translate(-241.179 -132.068)" opacity="0.1"/>
    <path id="Path_789" data-name="Path 789" d="M874.568,426.81s-2.52,17.62,2.015,24.691a55.255,55.255,0,0,1-22.171,3.026L852.88,426.81Z" transform="translate(-223.374 -115.264)" opacity="0.1"/>
    <path id="Path_790" data-name="Path 790" d="M880.682,449.278l-1.218.682-7.814-17.62,7.308-6.55h.375C879.219,426.663,877.181,441.809,880.682,449.278Z" transform="translate(-227.764 -115.026)" opacity="0.1"/>
    <path id="Path_791" data-name="Path 791" d="M872.343,425.83s-2.52,17.62,2.015,24.683a55.093,55.093,0,0,1-22.171,3.026L843.37,425.83Z" transform="translate(-221.149 -115.035)" fill="#0eb582"/>
    <path id="Path_792" data-name="Path 792" d="M834.509,803.476a5.707,5.707,0,0,1-4.9,4.995c-6.841,1.019-23.32,3.624-27.479,5.608-5.294,2.52-26.2.766-27.211-1.762a4,4,0,0,1,.36-3.064,8.075,8.075,0,0,1,3.378-3.631,8.966,8.966,0,0,1,1.532-.674c3.938-1.31,11.376-4.1,13.384-7.025,0,0,9.277-8.113,11.92-12.495a6.052,6.052,0,0,1,4.842-3.018c2.206-.1,4.666,1.011,5.677,5.845,0,0,12.081,6.895,15.322.85,0,0,.505,9.285,2.513,11.828h0a3.371,3.371,0,0,1,.659,2.543Z" transform="translate(-205.102 -198.442)" fill="#a27772"/>
    <path id="Path_793" data-name="Path 793" d="M834.509,809.133a5.707,5.707,0,0,1-4.9,4.995c-6.841,1.019-23.32,3.624-27.479,5.608-5.294,2.52-26.2.766-27.211-1.762a4,4,0,0,1,.36-3.064,8.074,8.074,0,0,1,3.378-3.631c3.409,2.3,10.978,4.474,27.625,1.877,15.881-2.482,23.749-4.911,27.579-6.566h0A3.371,3.371,0,0,1,834.509,809.133Z" transform="translate(-205.102 -204.1)" opacity="0.1"/>
    <g id="Group_384" data-name="Group 384" transform="translate(638.244 181.686)" opacity="0.1">
      <path id="Path_794" data-name="Path 794" d="M942.458,270.365v-.123a22.561,22.561,0,0,0,.766-5.723,37.747,37.747,0,0,1-.766,4.6A2.79,2.79,0,0,0,942.458,270.365Z" transform="translate(-882.554 -258.989)"/>
      <path id="Path_795" data-name="Path 795" d="M909.488,292.257a7.284,7.284,0,0,1,.62,2.88,8.685,8.685,0,0,0-.62-4.014,3.724,3.724,0,0,0-3.991-2.3c-2.16.506-3.064,3.31-5.2,3.984-1.777.567-3.723-.7-4.6-2.36a11.656,11.656,0,0,1-.873-5.485v-6.313c0-2.3-.077-4.765-1.486-6.565-1.762-2.245-5.884-3.218-8.642-3.133a7.339,7.339,0,0,0-4.934,1.992,6.365,6.365,0,0,1-5.194,1.846,4.49,4.49,0,0,1-3.616-3.126c-.207-.812-.153-1.685-.391-2.49-.59-1.977-2.7-3.011-4.121-4.512a8.249,8.249,0,0,1-2.122-5.363,8.587,8.587,0,0,0,2.122,6.458c1.417,1.532,3.532,2.536,4.122,4.512.238.766.184,1.678.391,2.49a4.489,4.489,0,0,0,3.616,3.126,6.365,6.365,0,0,0,5.194-1.846,7.339,7.339,0,0,1,4.934-1.992c2.758-.084,6.895.889,8.642,3.133,1.41,1.8,1.478,4.275,1.486,6.565v6.313a11.594,11.594,0,0,0,.873,5.478c.873,1.647,2.8,2.934,4.6,2.367,2.114-.674,3.064-3.478,5.2-3.984A3.869,3.869,0,0,1,909.488,292.257Z" transform="translate(-864.285 -257.3)"/>
      <path id="Path_796" data-name="Path 796" d="M945.014,293.382a9.682,9.682,0,0,1-2.145,3.463l-8.32,10c-3.5,4.206-7.2,9.078-6.895,14.448.253-4.926,3.685-9.408,6.895-13.315l8.32-10a9.68,9.68,0,0,0,2.145-3.463,9.562,9.562,0,0,0,.222-2.766A7.289,7.289,0,0,1,945.014,293.382Z" transform="translate(-879.104 -265.358)"/>
      <path id="Path_797" data-name="Path 797" d="M921.916,327.7a5.887,5.887,0,0,1-.253-1.348,6.8,6.8,0,0,0,.253,2.482c.567,1.823,2.643,3.333,4.4,2.551a10.764,10.764,0,0,1-.092-1.1C924.475,330.977,922.452,329.491,921.916,327.7Z" transform="translate(-877.701 -273.452)"/>
    </g>
    <path id="Path_798" data-name="Path 798" d="M812.69,789.36s2.635,4.6,12.181.552" transform="translate(-213.973 -200.069)" opacity="0.1"/>
    <path id="Path_799" data-name="Path 799" d="M918,790.82s8.228,9.691,18.6,3.179" transform="translate(-238.606 -200.411)" opacity="0.1"/>
    <path id="Path_800" data-name="Path 800" d="M947.426,641.23s-5.815,3.631-6,5.707,3-1.532,3-1.532Z" transform="translate(-244.085 -165.42)" opacity="0.1"/>
    <path id="Path_801" data-name="Path 801" d="M949.073,677.59a12.155,12.155,0,0,1-7.163,2.8c-4.351.192-3.984,5.861-1.141,4.16S949.073,677.59,949.073,677.59Z" transform="translate(-243.433 -173.925)" opacity="0.1"/>
    <path id="Path_802" data-name="Path 802" d="M952.156,682.34s-2.789,13.705-5.056,11.062" transform="translate(-245.413 -175.036)" opacity="0.1"/>
    <path id="Path_803" data-name="Path 803" d="M247.917,679.224s17.505,4.8,25.932-1.586,12.081-4.336,12.081-4.336,20.094-1.111,21.749-5.86-7.707-22-7.707-22c-.666-1.532-1.639-3.478-2.076-3.478l.092-7.278h0l2.911-30.452c6.719-17.229.123-39.492.123-39.492l-1.2-5.523a13.974,13.974,0,0,1,1.141-9.193l12.2-24.515a36.685,36.685,0,0,1,2.3-4.7c.766-1.4,1.785-3.133,3.064-5.209.375-.6.766-1.218,1.2-1.869,1.479-2.3,3.271-4.9,5.439-7.906,5.4-7.485,8.243-16.854,9.714-23.749l.651,2.16h.146l.176.038h.291l.314.054h.115l3.754,47.773c.23,18.631,7.071,28.943,7.071,28.943l-.942,41.131c1.287,9.906-1.532,23.113-2.827,28.384l-2.957,6.673a8.021,8.021,0,0,0-4.359,6.067c-.582,4.926-5.769,15.544-5.769,15.544-2.007,2.543-6.366,9.415-6.366,9.415s-2.053,6.634-.781,9.117S335.3,679.6,335.3,679.6c12.142,2.689,21.45-3.831,20.861-8.32s1.892-5.631,1.892-5.631c4.826-1.532,4.359-4.8,4.359-4.8a30.062,30.062,0,0,0-3.654-19.566l-.766,1.77a26.943,26.943,0,0,1,1.455-10.442l-.444.306-.138.084h-.046c.766-6.719,7.822-19.152,7.822-19.152,12.962-22.737,8.251-53.55,8.251-53.55l-2.007-9.607-.115-3.624a120.945,120.945,0,0,1,1.953-25.817c.7-3.769,1.417-8.32,1.969-13.337,1.164-10.6,4.918-21.542,6.65-26.177l.513-.092h.061c.7-.123,1.417-.245,2.137-.383h.138s.414-2.237.766-6.044c.207-2.429.375-5.508.375-9.048a101.793,101.793,0,0,0-4.834-31.494l.391-.559s.927-1.256,2.62-3.432h0c3.11-3.953,7.952-9.959,13.92-16.731,10.687-12.188,7.546-24.515,7.546-24.515s-7.738-28.353-11.185-45.375a51.6,51.6,0,0,0-8.488-20.186,40.174,40.174,0,0,0,1.073-8.182c.23-5.041.054-10.3-2.214-14.824s-7.094-8.105-12.135-7.5a4.642,4.642,0,0,1-2.176,0,3.309,3.309,0,0,1-1.433-1.249c-2.95-4.068-3.141-9.538-2.222-14.471s2.8-9.653,3.647-14.6.46-10.442-2.689-14.364c-3.7-4.6-10.151-5.891-14.962-9.346-3.378-2.429-5.914-5.914-9.477-8.067s-6.895-1.333-10.764-.521c-6.5,1.371-12.686,2-18.838,4.8a50.171,50.171,0,0,0-16.417,11.943,15.583,15.583,0,0,0-3.662,5.776c-1.532,5.064,1.463,10.457.835,15.7-.444,3.716-2.635,6.948-4.374,10.266s-3.064,7.255-1.7,10.725c2.145,5.424,9.139,6.573,14.226,9.461a4.344,4.344,0,0,1,1.685,1.463c1.256,2.191-1.31,4.466-2.926,6.412a9.661,9.661,0,0,0-1.915,3.892,13.881,13.881,0,0,0-8.327,10.051c-1.724,7.714.927,17.451,3.264,23.887-2.551,14.333.766,19.987,3.21,22.155a12.3,12.3,0,0,1,4.259,8.381v.268c.161,2.6.437,5.2.8,7.791h0c-.084-.605-.168-1.249-.215-1.532-2,3.7-5.807,13.154-7.952,29.058a87.32,87.32,0,0,1-1.938,10.12,55.343,55.343,0,0,0-1.624,18.1l.383,5.156a1.624,1.624,0,0,1-1.042-.345l2.689,4.926V457.5a30.645,30.645,0,0,1-2.038,10.963c-.192.506-.4,1.011-.621,1.532a8.917,8.917,0,0,0-.9,4.512c-5.784,8.864-19.045,58.537-19.045,58.537-7.194,16.287.59,26.813.59,26.813s3.769,45.345,4.474,47.689,2.268,29.985,2.268,29.985h0v2.2a5.161,5.161,0,0,0-1.31-.375c-6.3-.352-8.013,9.607-8.013,9.607l-12.9,12.319s-5.891-1-14.556,5.508S247.917,679.224,247.917,679.224ZM376.735,417.154l-.038-.138-.352.207h0l-.146.084-.069.046h0l-5.945-20.983a34.841,34.841,0,0,1-.437-17.26l4.6-20.133h0v-4.842l14.609,38.933C389.889,398.316,381.209,411.025,376.735,417.154Z" transform="translate(-79.902 -69.203)" fill="url(#linear-gradient-4)"/>
    <path id="Path_804" data-name="Path 804" d="M412.649,557s-5.9,14.349-7.4,28.115c-.544,4.964-1.249,9.453-1.938,13.177a120.413,120.413,0,0,0-1.885,25.488l.115,3.578,1.915,9.477s4.6,30.437-8.1,52.86c0,0-7.523,13.43-7.753,19.788l-5.094,1.969-10.3-2.888s4.972-17.827,3.355-30.322l.927-40.6s-6.688-10.158-6.918-28.544l-3.93-50.455Z" transform="translate(-109.404 -145.717)" fill="#fdc2cc"/>
    <path id="Path_805" data-name="Path 805" d="M345.37,547.62s-1.264,19.673-10.993,33.233-11.8,19.443-11.8,19.443L310.6,624.52a13.874,13.874,0,0,0-1.126,9.063l1.18,5.455s6.481,21.987-.115,39L307.411,710.9H289.132s-1.532-27.311-2.2-29.625-4.4-47.1-4.4-47.1-7.661-10.419-.582-26.5c0,0,15.973-60.176,20.248-59.134S345.37,547.62,345.37,547.62Z" transform="translate(-89.125 -143.523)" fill="#fdc2cc"/>
    <g id="Group_385" data-name="Group 385" transform="translate(216.432 404.097)" opacity="0.1">
      <path id="Path_806" data-name="Path 806" d="M316.921,639.076l-1.172-5.455a13.789,13.789,0,0,1,1.118-9.1l11.982-24.247s2.076-5.9,11.8-19.443c9.339-13.023,10.878-31.685,10.986-33.118l1.862-.092s-1.264,19.673-10.993,33.233S330.7,600.3,330.7,600.3L318.721,624.52a13.874,13.874,0,0,0-1.126,9.063l1.18,5.455s6.481,21.987-.115,39L315.534,710.9H313.68l3.126-32.865C323.4,661.024,316.921,639.076,316.921,639.076Z" transform="translate(-313.68 -547.62)"/>
    </g>
    <path id="Path_807" data-name="Path 807" d="M390.6,709.505c.23-6.358,7.753-19.788,7.753-19.788,12.732-22.446,8.1-52.86,8.1-52.86l-1.961-9.484-.115-3.578a120.415,120.415,0,0,1,1.885-25.488c.682-3.723,1.387-8.212,1.931-13.177,1.448-13.253,6.971-27.043,7.377-28.054l1.9-.077s-5.9,14.349-7.4,28.115c-.544,4.964-1.249,9.453-1.938,13.177a120.417,120.417,0,0,0-1.885,25.488l.115,3.578,1.915,9.477s4.6,30.437-8.1,52.86c0,0-7.523,13.43-7.753,19.788l-5.094,1.969-1.073-.3Z" transform="translate(-114.225 -145.717)" opacity="0.1"/>
    <path id="Path_808" data-name="Path 808" d="M380.656,754.86a8.856,8.856,0,0,0,8.427-1.042,27.2,27.2,0,0,0-.69,15.276c2.084,8.335-19.443-6.711-19.443-6.711l4.6-10.5S375.332,755.2,380.656,754.86Z" transform="translate(-110.176 -191.302)" fill="#d39999"/>
    <path id="Path_809" data-name="Path 809" d="M382.262,755.32a8.6,8.6,0,0,0,6.841-1.532,27.2,27.2,0,0,0-.69,15.276c2.084,8.335-19.443-6.711-19.443-6.711l4.6-10.5a6.567,6.567,0,0,0,5.248,2.957C380,754.945,381.136,755.106,382.262,755.32Z" transform="translate(-110.181 -191.295)" opacity="0.1"/>
    <path id="Path_810" data-name="Path 810" d="M289.32,465.549h8.994V414.521l-6.749-1.21Z" transform="translate(-67.679 -96.678)" fill="#fdc2cc"/>
    <path id="Path_811" data-name="Path 811" d="M289.32,465.549h8.994V414.521l-6.749-1.21Z" transform="translate(-67.679 -96.678)" opacity="0.05"/>
    <path id="Path_812" data-name="Path 812" d="M370.769,760.631s5.669-.352,8.212,4.742l3.126,2.428,1.532-3.585a29.877,29.877,0,0,1,3.539,19.328s.46,3.233-4.282,4.742c0,0-2.429,1.157-1.854,5.554s-8.557,10.878-20.478,8.212c0,0-10.419.237-11.69-2.2s.812-8.91.812-8.91,4.282-6.788,6.244-9.293c0,0,5.094-10.5,5.677-15.322S367.759,757.965,370.769,760.631Z" transform="translate(-105.384 -193.135)" fill="#7e5659"/>
    <path id="Path_813" data-name="Path 813" d="M310.445,764.184l.092-7.194s-10.35,2.98-18.731-.391c0,0,.7,7.232-.46,8.22s3.876,10.3,3.876,10.3l5.631,5.9,9.683-3.524,2.628-8.274S311.135,764.184,310.445,764.184Z" transform="translate(-91.983 -192.406)" fill="#d39999"/>
    <path id="Path_814" data-name="Path 814" d="M310.445,764.184l.092-7.194s-10.35,2.98-18.731-.391c0,0,.7,7.232-.46,8.22s3.876,10.3,3.876,10.3l5.631,5.9,9.683-3.524,2.628-8.274S311.135,764.184,310.445,764.184Z" transform="translate(-91.983 -192.406)" opacity="0.1"/>
    <path id="Path_815" data-name="Path 815" d="M279.1,763.1s5.5.636,4.8,7.661.291,0,.291,0,5.845,2.367,7.929,5.669,5.845-2.949,6.129-4.742,2.628-2.536,2.628-2.536,9.193,17.046,7.569,21.734-21.358,5.769-21.358,5.769-3.593-2.022-11.867,4.282-25.457,1.532-25.457,1.532-14-5.845-5.493-12.257,14.288-5.439,14.288-5.439l12.671-12.211S272.908,762.745,279.1,763.1Z" transform="translate(-80.371 -193.924)" fill="#7e5659"/>
    <path id="Path_816" data-name="Path 816" d="M359.689,236.67c3.5,2.122,5.991,5.569,9.308,7.967,4.719,3.409,11.055,4.681,14.686,9.231,3.064,3.876,3.463,9.293,2.635,14.18s-2.681,9.553-3.578,14.425-.712,10.273,2.183,14.288a3.241,3.241,0,0,0,1.4,1.233,4.6,4.6,0,0,0,2.137,0c4.949-.6,9.7,2.942,11.92,7.408s2.4,9.66,2.168,14.64c-.192,4.083-.651,8.251-2.444,11.928-3.064,6.251-9.438,10.112-15.728,13.069a121.823,121.823,0,0,1-12.556,5.072c-2.942,1-6.044,1.892-9.1,1.371-5.232-.9-8.94-5.661-13.9-7.523-4.068-1.532-8.58-.981-12.909-.6-3.693.322-7.914.314-10.457-2.382-3.264-3.463-1.793-9.047-.123-13.506a9.614,9.614,0,0,1-6.8-15.72c1.578-1.923,4.1-4.167,2.865-6.336a4.2,4.2,0,0,0-1.655-1.44c-4.987-2.85-11.859-3.991-13.958-9.339-1.348-3.44-.046-7.331,1.662-10.6s3.83-6.473,4.3-10.135c.613-5.179-2.3-10.5-.82-15.5a15.536,15.536,0,0,1,3.593-5.715A49.305,49.305,0,0,1,330.6,240.9c6.044-2.766,12.1-3.386,18.493-4.734C352.924,235.352,356.1,234.494,359.689,236.67Z" transform="translate(-95.269 -70.466)" fill="#865a61"/>
    <path id="Path_817" data-name="Path 817" d="M326.723,337.757s-14.655-.766-17.428,11.729,6.014,30.391,6.014,30.391Z" transform="translate(-96.096 -94.432)" fill="#fdc2cc"/>
    <path id="Path_818" data-name="Path 818" d="M326.723,337.757s-14.655-.766-17.428,11.729,6.014,30.391,6.014,30.391Z" transform="translate(-96.096 -94.432)" opacity="0.05"/>
    <path id="Path_819" data-name="Path 819" d="M320,365.694l5.554,4.4,25.917,1.157,16.18-11.108L384.106,331.9c-10.059-2.566-14.127-9.515-15.643-16.011a35.056,35.056,0,0,1-.322-13.376S341.757,288.855,345,310.175a28.961,28.961,0,0,1,.245,7.921c-1.532,12.487-13.652,10.135-13.652,10.135l-4.65,7.171-5.324,17.62Z" transform="translate(-98.726 -85.182)" fill="#fdc2cc"/>
    <path id="Path_820" data-name="Path 820" d="M352.576,310.143a28.954,28.954,0,0,1,.245,7.921,23.389,23.389,0,0,0,23.22-2.176,35.054,35.054,0,0,1-.322-13.376S349.335,288.853,352.576,310.143Z" transform="translate(-106.282 -85.18)" opacity="0.1"/>
    <circle id="Ellipse_349" data-name="Ellipse 349" cx="23.373" cy="23.373" r="23.373" transform="translate(232.888 187.325)" fill="#fdc2cc"/>
    <path id="Path_821" data-name="Path 821" d="M336.7,370.272c.567,0,1.126.084,1.685.138,3.064.307,15.866,1,23.159-7.714,8.159-9.745,19.022-21.78,19.466-22.27l11.055,3.34s-8.749-3.11-14.556,13.161a16.854,16.854,0,0,0,5.692,19.39,17.513,17.513,0,0,0,7.232,3.064.038.038,0,0,1,0,.038v7.14h0l-4.52,19.918a34.527,34.527,0,0,0,.429,17.045l6.895,24.369c-1.042.72-43.82,29.816-72.4,9.722h0c.107-.873,3.639-29.471,1.187-43.468a96.663,96.663,0,0,1-1.279-10.817c0-.092,0-.176,0-.268a12.2,12.2,0,0,0-4.19-8.274c-2.574-2.3-6.06-8.427-2.612-24.622a59.5,59.5,0,0,1,3.83-11.668l9.584-21.657h0l8.833.176v.061c-.766.95-11.009,13.744-12.12,21.987C322.989,366.9,321.649,369.307,336.7,370.272Z" transform="translate(-96.974 -94.219)" fill="#0eb582"/>
    <path id="Path_822" data-name="Path 822" d="M412.976,349.579s8.641,7.408,12.035,24.224,10.955,44.747,10.955,44.747,3.064,12.188-7.408,24.224-17.436,21.45-17.436,21.45l-6.895,10.158a8.648,8.648,0,0,1-4.964,3.509c-3.141.827-7.967,1.425-12.15-.866a7.079,7.079,0,0,1-3.064-8.94l1.532-3.547s-14.2,8.948-15.429,4.007,16.509-9.875,16.509-9.875,14.655-2.467,17.62-9.408c0,0,15.735-20.217,14.5-27.158l-15.2-40.733s-19.007-2.513-12.525-23.864S412.976,349.579,412.976,349.579Z" transform="translate(-110.443 -96.225)" fill="#fdc2cc"/>
    <path id="Path_823" data-name="Path 823" d="M307.4,533.925s34.719,6.941,42.9,6.014l.881,2.934s13.177,2.949,42.97-1.777q2.919-.46,6.06-1.034l.7-.123s.406-2.206.728-5.968c.712-8.542.965-25.082-5.049-42.012l-5.01-15.429s-30.965,18.562-51.466,16.854c-1.831-.153-3.647-.3-5.478-.36-4.206-.161-10.725,0-14.962-3.394l-8.887,1.532v25.281a30.292,30.292,0,0,1-2.007,10.817c-.192.506-.391,1-.613,1.532A8.044,8.044,0,0,0,307.4,533.925Z" transform="translate(-95.749 -126.895)" fill="#65617d"/>
    <path id="Path_824" data-name="Path 824" d="M364.58,552.544v7.868s15.169,3.394,49.727-2.934c0,0,.406-2.206.728-5.968C404.432,553.211,375.19,557.3,364.58,552.544Z" transform="translate(-109.154 -144.433)" opacity="0.1"/>
    <path id="Path_825" data-name="Path 825" d="M307.4,549.424s34.719,6.941,42.9,6.014l.881,2.934V550.5c-3.953,1.639-32.176-5.163-42.4-7.714-.192.505-.391,1-.613,1.532a8.044,8.044,0,0,0-.766,5.1Z" transform="translate(-95.75 -142.394)" opacity="0.1"/>
    <path id="Path_826" data-name="Path 826" d="M417.31,538.494l2.574,15.965q2.919-.46,6.06-1.034c-.8-4.665-2.559-15.322-2.076-17.091l-3.241-2.773Z" transform="translate(-121.488 -140.235)" fill="#65617d"/>
    <path id="Path_827" data-name="Path 827" d="M417.78,538.044l2.574,15.973q2.919-.467,6.06-1.034c-.8-4.665-2.559-15.322-2.076-17.091L421.1,533.11Z" transform="translate(-121.598 -140.129)" opacity="0.1"/>
    <g id="Group_386" data-name="Group 386" transform="translate(222.43 349.612)" opacity="0.05">
      <path id="Path_828" data-name="Path 828" d="M341.581,497.374c-1.823-.153-3.647-.3-5.478-.36-4.091-.153-10.335,0-14.594-3.133l1.486-.26c4.259,3.378,10.725,3.233,14.962,3.394,1.831.061,3.647.207,5.478.36.6.054,1.21.084,1.831.1a34.384,34.384,0,0,1-3.685-.1Z" transform="translate(-321.51 -480.505)"/>
      <path id="Path_829" data-name="Path 829" d="M409.275,541.089q2.919-.46,6.06-1.026l.7-.13s.406-2.206.72-5.968c.72-8.542.973-25.082-5.049-42.012L406.992,477.4c1-.567,1.532-.9,1.532-.9l5.01,15.429c6.014,16.93,5.761,33.47,5.048,42.012-.322,3.761-.728,5.968-.728,5.968l-.7.13q-3.133.567-6.06,1.027a190.816,190.816,0,0,1-31.218,2.681A196.873,196.873,0,0,0,409.275,541.089Z" transform="translate(-335.164 -476.5)"/>
      <path id="Path_830" data-name="Path 830" d="M360.7,559.3v.084h-1Q360.267,559.346,360.7,559.3Z" transform="translate(-330.443 -495.868)"/>
    </g>
    <ellipse id="Ellipse_350" data-name="Ellipse 350" cx="1.31" cy="2.697" rx="1.31" ry="2.697" transform="translate(298.825 395.846)" fill="#d39999"/>
    <path id="Path_831" data-name="Path 831" d="M312.686,460.33c2.114-15.7,5.845-25.036,7.814-28.69.077.5.276,2.114.368,2.612.4,2.3.046,5.194.169,8.113l-1.961,35.516,2.628,11.108c2.467,8.795-6.673,1.846-6.673,1.846-1.892,4.167-5.363,3.708-5.363,3.708l-.475-6.374a55.05,55.05,0,0,1,1.594-17.873A85.171,85.171,0,0,0,312.686,460.33Z" transform="translate(-96.162 -116.394)" fill="#fdc2cc"/>
    <path id="Path_832" data-name="Path 832" d="M312.686,460.33c2.114-15.7,5.845-25.036,7.814-28.69.077.5.276,2.114.368,2.612.4,2.3.046,5.194.169,8.113l-1.961,35.516,2.628,11.108c2.467,8.795-6.673,1.846-6.673,1.846-1.892,4.167-5.363,3.708-5.363,3.708l-.475-6.374a55.05,55.05,0,0,1,1.594-17.873A85.171,85.171,0,0,0,312.686,460.33Z" transform="translate(-96.162 -116.394)" opacity="0.05"/>
    <path id="Path_833" data-name="Path 833" d="M415.266,489.3c-1.662,2.153-2.574,3.386-2.574,3.386L405.8,502.832a8.611,8.611,0,0,1-4.964,3.509c-3.141.827-7.967,1.433-12.15-.866a7.063,7.063,0,0,1-3.064-8.933l1.532-3.555s-14.2,8.948-15.429,4.014,16.509-9.875,16.509-9.875,14.655-2.467,17.62-9.415c0,0,1.279-1.639,3.064-4.152" transform="translate(-110.81 -126.2)" fill="#fdc2cc"/>
    <path id="Path_834" data-name="Path 834" d="M409.818,512.881s-16.785-1.632-22.1-11.231l-2.436,7.929s17.62,12.165,21.642,10.587Z" transform="translate(-113.996 -132.77)" fill="#65617d"/>
    <path id="Path_835" data-name="Path 835" d="M409.04,512.779s-16.777-1.632-22.1-11.239l-2.428,7.906s17.62,12.165,21.634,10.587Z" transform="translate(-113.816 -132.745)" opacity="0.1"/>
    <path id="Path_836" data-name="Path 836" d="M315.433,510.46s-5.876,2.084-7.033.927l2.643,4.865,4.995-3.83Z" transform="translate(-96.013 -134.831)" fill="#65617d"/>
    <path id="Path_837" data-name="Path 837" d="M315.433,510.46s-5.876,2.084-7.033.927l2.643,4.865,4.995-3.83Z" transform="translate(-96.013 -134.831)" opacity="0.1"/>
    <path id="Path_838" data-name="Path 838" d="M332.683,529.621V519.47l-2.413,10.4Z" transform="translate(-77.257 -121.51)" opacity="0.1"/>
    <path id="Path_839" data-name="Path 839" d="M379.46,272.348a9.015,9.015,0,0,1-6.3,3.317,49.621,49.621,0,0,1-7.316,0c-3.83-.061-7.906.529-11.039,2.781a28.066,28.066,0,0,0-5.064,5.363c-4.734,5.784-11.307,11.2-18.769,10.6a4.865,4.865,0,0,1-3.486-1.471,5.592,5.592,0,0,1-.888-3.171,72.5,72.5,0,0,1,.452-14.3,30.139,30.139,0,0,1,2.16-8.526,29.113,29.113,0,0,1,5.194-7.416,31.769,31.769,0,0,1,9.063-7.262,16.256,16.256,0,0,1,11.338-1.463c4.466,1.218,7.944,4.711,12.2,6.512C371.876,259.355,384.792,264.818,379.46,272.348Z" transform="translate(-100.232 -73.992)" opacity="0.1"/>
    <path id="Path_840" data-name="Path 840" d="M379.46,271.136a9.016,9.016,0,0,1-6.3,3.317,49.626,49.626,0,0,1-7.316,0c-3.83-.069-7.906.521-11.039,2.773a28.066,28.066,0,0,0-5.064,5.363c-4.734,5.784-11.307,11.2-18.769,10.6a4.834,4.834,0,0,1-3.486-1.471,5.57,5.57,0,0,1-.889-3.172,72.5,72.5,0,0,1,.452-14.3,30.137,30.137,0,0,1,2.16-8.527,28.912,28.912,0,0,1,5.194-7.408,31.661,31.661,0,0,1,9.063-7.27,16.256,16.256,0,0,1,11.338-1.463c4.466,1.218,7.944,4.711,12.2,6.512C371.876,258.143,384.792,263.59,379.46,271.136Z" transform="translate(-100.232 -73.707)" fill="#865a61"/>
    <path id="Path_841" data-name="Path 841" d="M292.089,473.47l-.061,2.8-.628-2.674Z" transform="translate(-68.165 -110.75)" fill="#fdc2cc"/>
    <path id="Path_842" data-name="Path 842" d="M292.089,473.47l-.061,2.8-.628-2.674Z" transform="translate(-68.165 -110.75)" opacity="0.05"/>
    <g id="Group_387" data-name="Group 387" transform="translate(278.871 249.845)" opacity="0.05">
      <path id="Path_843" data-name="Path 843" d="M399.318,356.245C392.829,377.6,411.744,380.1,411.744,380.1l15.2,40.733c1.233,6.941-14.51,27.158-14.51,27.158-1.1,2.589-3.83,4.558-6.818,6.014a10.68,10.68,0,0,0,4.045-4.443s15.735-20.209,14.5-27.15l-15.2-40.74s-18.907-2.505-12.426-23.856c2.168-7.132,5.363-10.38,8.6-11.545C402.9,348.063,400.858,351.165,399.318,356.245Z" transform="translate(-395.184 -346.27)"/>
    </g>
    <g id="Group_388" data-name="Group 388" transform="translate(215.587 242.613)" opacity="0.1">
      <path id="Path_844" data-name="Path 844" d="M401,384.61a15.962,15.962,0,0,0,3.064,2.9,17.412,17.412,0,0,0,7.232,3.064v.8a17.36,17.36,0,0,1-6.558-2.9A15.9,15.9,0,0,1,401,384.61Z" transform="translate(-333.261 -348.006)"/>
      <path id="Path_845" data-name="Path 845" d="M323.445,422.429v.268a98.938,98.938,0,0,0,1.318,10.855c2.3,13.207-.712,39.43-1.141,43.054-.245-.161-.49-.314-.766-.49.115-.873,3.647-29.471,1.2-43.46a97.068,97.068,0,0,1-1.279-10.817v-.268a11.82,11.82,0,0,0-2.061-5.861A11.912,11.912,0,0,1,323.445,422.429Z" transform="translate(-314.48 -355.281)"/>
      <path id="Path_846" data-name="Path 846" d="M335.646,337.88l-7.492-.146a.038.038,0,0,0-.038,0l-9.576,21.65a59.7,59.7,0,0,0-3.83,11.668c-2.789,13.1-1.034,19.627,1.1,22.852-2.4-2.827-4.872-9.27-1.785-23.749a59.058,59.058,0,0,1,3.792-11.675l9.645-21.65h0l8.833.176v.054C336.221,337.152,335.983,337.443,335.646,337.88Z" transform="translate(-312.577 -336.83)"/>
      <path id="Path_847" data-name="Path 847" d="M416.39,345.87l.13.038Z" transform="translate(-336.861 -338.945)"/>
      <path id="Path_848" data-name="Path 848" d="M393.07,344.737l-7.508-2.26h-.038c-.444.49-11.3,12.526-19.459,22.27-7.293,8.71-20.079,8.029-23.159,7.722-.559-.061-1.126-.107-1.685-.146-8.373-.536-11.668-1.532-12.771-3.647,1.57,1.532,5.026,2.3,12.074,2.727.567,0,1.126.084,1.685.138,3.064.306,15.866.988,23.159-7.715,8.159-9.752,19.022-21.788,19.466-22.278h0l10.924,3.31A6.825,6.825,0,0,0,393.07,344.737Z" transform="translate(-316.29 -337.934)"/>
    </g>
    <path id="Path_849" data-name="Path 849" d="M292.917,777.127s-10.572,2.888-12.617-1.647" transform="translate(-89.44 -196.823)" opacity="0.1"/>
    <path id="Path_850" data-name="Path 850" d="M379.772,774.271s-12.257,3.164-15.092-1.731" transform="translate(-109.178 -196.135)" opacity="0.1"/>
    <path id="Path_851" data-name="Path 851" d="M589.8,759.287c.176-1.532.429-3.064.7-4.6,1.21-6.619-.636-12.932-1.532-15.536h0c-.283-.8-.49-1.256-.49-1.256-4.88-1.333-24.116,13.59-31.126,19.214-2.428,0-5.064.107-7.944.3-1.256.092-2.513.123-3.769.1h-4.6c-6.5-5.24-26.637-21-31.647-19.635,0,0-.207.452-.49,1.256h0a31.479,31.479,0,0,0-1.57,15.536c.276,1.532.529,3.064.7,4.6.375,3.363,1.785,9.821,6.895,14.18,1.1,7.967,5.194,18.44,8.35,24.8a17.762,17.762,0,0,0,1.073,3.5c-1.3,5.025-2.8,11.583-2.375,13.789,0,0-6.8-1.647-7.492,6.542v.253c-2.459,1.126-5.531,3.708-2.076,9.116a3.548,3.548,0,0,0,1.777,1.448c.613.214,1.21.214,1.149-.644l4.252,4.788s7.707.889,7.8-3.585l.452.069c1.034.153,2.114.284,3.225.4l.536,1.77s-5.784-.123-4.206,3.44c0,0,1.456,1.348,1.953.858,0,0-.766,2.337,2.252,2.337,0,0,3.241,1.716,4.5.49s3.884-3.064,4.129-3.83c.069-.207.1-2.022.115-4.535h.5c6.458.153,13.315-.054,19.551-.391h.506c0,2.72.038,4.727.107,4.941.253.766,2.88,2.582,4.137,3.83s4.5-.49,4.5-.49c3,0,2.252-2.337,2.252-2.337.506.49,1.961-.858,1.961-.858,1.578-3.562-4.214-3.44-4.214-3.44l.69-2.3,3.195-.268.506-.046c-.307,4.865,7.791,3.93,7.791,3.93l4.259-4.788c-.069.858.529.858,1.141.644a3.518,3.518,0,0,0,1.724-1.463c5.217-8.159-4.42-9.89-4.42-9.89a4.732,4.732,0,0,0-.912-.146,1.566,1.566,0,0,1,.038-.421h0a16.816,16.816,0,0,0,.061-3.233c-.36-1.479-2.735-3.83-5.738-4.175-1.961-.245-2-9.254-1.8-15.5a17.828,17.828,0,0,0,.306-3.555,18.752,18.752,0,0,0-.766-5.692c3.83-6.5,6.895-13.307,7.24-15.322C588.015,769.085,589.425,762.65,589.8,759.287Z" transform="translate(-142.454 -188.007)" fill="url(#linear-gradient-5)"/>
    <path id="Path_852" data-name="Path 852" d="M585.037,838.318h0c-.306,4.244-1.126,11.055-1.126,11.055s-3.409.414-8.68.889l-3.578.306c-2.743.222-5.822.437-9.078.621-6.014.329-12.617.536-18.846.383-3.11-.069-6.129-.23-8.925-.506-1.249-.123-2.459-.268-3.608-.437-7.14-1.065-12.257-3.1-12.694-6.68a20.688,20.688,0,0,1-.161-4.6c.667-8.044,7.217-6.42,7.217-6.42-.421-2.222,1.164-9.124,2.451-14.119.812-3.149,1.532-5.539,1.532-5.539L575.6,810.21h.153A2.252,2.252,0,0,1,578,812.577c-.276,5.524-.666,18.172,1.594,18.455,2.9.36,5.186,2.651,5.539,4.1A17.191,17.191,0,0,1,585.037,838.318Z" transform="translate(-145.107 -204.947)" fill="#0eb582"/>
    <path id="Path_853" data-name="Path 853" d="M543.716,761.352s-17.367,20.906-25.733,15.115c-.2-.138-.391-.276-.575-.421-5.623-4.259-7.1-11.124-7.492-14.609-.169-1.532-.414-3.011-.682-4.5a31.281,31.281,0,0,1,1.532-15.253h0c.276-.766.467-1.233.467-1.233C517.018,738.836,543.716,761.352,543.716,761.352Z" transform="translate(-142.902 -188.608)" fill="#f50057"/>
    <path id="Path_854" data-name="Path 854" d="M534.373,763.684s-5.47,3.83-13.184,10.128a27.857,27.857,0,0,1-3.83,2.635c-5.623-4.259-7.1-11.124-7.492-14.609-.169-1.532-.414-3.011-.682-4.5a31.279,31.279,0,0,1,1.532-15.253h0C521.533,742.831,534.373,763.684,534.373,763.684Z" transform="translate(-142.89 -189.01)" fill="#f50057"/>
    <path id="Path_855" data-name="Path 855" d="M534.373,763.684s-5.47,3.83-13.184,10.128a27.857,27.857,0,0,1-3.83,2.635c-5.623-4.259-7.1-11.124-7.492-14.609-.169-1.532-.414-3.011-.682-4.5a31.279,31.279,0,0,1,1.532-15.253h0C521.533,742.831,534.373,763.684,534.373,763.684Z" transform="translate(-142.89 -189.01)" fill="#fff" opacity="0.5"/>
    <path id="Path_856" data-name="Path 856" d="M530.26,764.07s-2.919,2.061-7.04,5.409a14.824,14.824,0,0,1-2.022,1.4,11.278,11.278,0,0,1-4-7.791c-.084-.812-.214-1.609-.36-2.413a16.747,16.747,0,0,1,.85-8.136h0C523.411,752.938,530.26,764.07,530.26,764.07Z" transform="translate(-144.73 -191.457)" opacity="0.1"/>
    <path id="Path_857" data-name="Path 857" d="M569.05,761.352s17.367,20.906,25.733,15.115c.192-.138.391-.276.575-.421,5.623-4.259,7.1-11.124,7.492-14.609.169-1.532.414-3.011.674-4.5a31.186,31.186,0,0,0-1.532-15.253h0c-.276-.766-.475-1.233-.475-1.233C595.748,738.836,569.05,761.352,569.05,761.352Z" transform="translate(-156.982 -188.608)" fill="#f50057"/>
    <path id="Path_858" data-name="Path 858" d="M581.22,763.684s5.478,3.83,13.192,10.128a27.852,27.852,0,0,0,3.792,2.635c5.623-4.259,7.1-11.124,7.492-14.609.168-1.532.414-3.011.674-4.5a31.187,31.187,0,0,0-1.532-15.253h0C594.075,742.831,581.22,763.684,581.22,763.684Z" transform="translate(-159.829 -189.01)" fill="#f50057"/>
    <path id="Path_859" data-name="Path 859" d="M581.22,763.684s5.478,3.83,13.192,10.128a27.852,27.852,0,0,0,3.792,2.635c5.623-4.259,7.1-11.124,7.492-14.609.168-1.532.414-3.011.674-4.5a31.187,31.187,0,0,0-1.532-15.253h0C594.075,742.831,581.22,763.684,581.22,763.684Z" transform="translate(-159.829 -189.01)" fill="#fff" opacity="0.5"/>
    <path id="Path_860" data-name="Path 860" d="M589.05,764.066s2.9,2.053,6.994,5.363a14.024,14.024,0,0,0,2.015,1.394c2.98-2.26,3.769-5.9,3.976-7.745.084-.766.214-1.6.36-2.4a16.778,16.778,0,0,0-.8-8.09h0C595.861,753,589.05,764.066,589.05,764.066Z" transform="translate(-161.661 -191.468)" opacity="0.1"/>
    <path id="Path_861" data-name="Path 861" d="M578.543,810.23a41.605,41.605,0,0,1-6.65,8.473c-6.895,6.129-36.665,3.693-38.6,3.378-.406-.069-1.249-1.272-2.3-3.225.812-3.149,1.532-5.539,1.532-5.539Z" transform="translate(-148.082 -204.951)" opacity="0.1"/>
    <path id="Path_862" data-name="Path 862" d="M552.072,765.378c-1.21.084-2.421.115-3.639.092-6.213-.107-27.143.168-29.464,8.618-2.735,9.959,9.492,36.627,11.415,36.948s31.685,2.735,38.6-3.378,15.919-25.281,15.437-27.02C584.423,780.638,593,762.544,552.072,765.378Z" transform="translate(-145.175 -194.389)" fill="#6c63ff"/>
    <path id="Path_863" data-name="Path 863" d="M553.992,786.509s-15.322-2.36-22.508,12.717a18.386,18.386,0,0,0,1.356,18.532c2.39,3.363,5.9,5.868,10.779,3.83C554.467,817.122,553.992,786.509,553.992,786.509Z" transform="translate(-147.755 -199.371)" opacity="0.1"/>
    <path id="Path_864" data-name="Path 864" d="M553.362,785.249s-15.322-2.36-22.508,12.717a18.386,18.386,0,0,0,1.356,18.532c2.39,3.363,5.9,5.868,10.779,3.83C553.837,815.862,553.362,785.249,553.362,785.249Z" transform="translate(-147.607 -199.077)" opacity="0.1"/>
    <path id="Path_865" data-name="Path 865" d="M553.362,785.879s-15.322-2.36-22.508,12.717a18.386,18.386,0,0,0,1.356,18.532c2.39,3.363,5.9,5.868,10.779,3.831C553.837,816.492,553.362,785.879,553.362,785.879Z" transform="translate(-147.607 -199.224)" fill="#f50057"/>
    <path id="Path_866" data-name="Path 866" d="M553.362,785.879s-15.322-2.36-22.508,12.717a18.386,18.386,0,0,0,1.356,18.532c2.39,3.363,5.9,5.868,10.779,3.831C553.837,816.492,553.362,785.879,553.362,785.879Z" transform="translate(-147.607 -199.224)" fill="#fff" opacity="0.5"/>
    <path id="Path_867" data-name="Path 867" d="M538.791,803.13s-2.091,1.931-1.287,2.413S538.791,803.13,538.791,803.13Z" transform="translate(-149.56 -203.29)" fill="#3f2b3b"/>
    <path id="Path_868" data-name="Path 868" d="M541.99,806.35s-1.141,2.521-.329,2.8,1.295-1.808,1.295-1.808Z" transform="translate(-150.508 -204.044)" fill="#3f2b3b"/>
    <path id="Path_869" data-name="Path 869" d="M535.438,811.32s-1.118,2.972,0,2.972S535.438,811.32,535.438,811.32Z" transform="translate(-149.004 -205.206)" fill="#3f2b3b"/>
    <path id="Path_870" data-name="Path 870" d="M533.78,821.71s2.237,5.715,8.059,5.309" transform="translate(-148.732 -207.637)" fill="none" stroke="#3f2b3b" stroke-miterlimit="10" stroke-width="1"/>
    <path id="Path_871" data-name="Path 871" d="M540.61,823.91s2.3,2.252,4.819.643" transform="translate(-150.33 -208.151)" fill="none" stroke="#3f2b3b" stroke-miterlimit="10" stroke-width="1"/>
    <path id="Path_872" data-name="Path 872" d="M564,786.509s15.322-2.36,22.508,12.717a18.386,18.386,0,0,1-1.356,18.532c-2.382,3.363-5.9,5.868-10.779,3.83C563.493,817.122,564,786.509,564,786.509Z" transform="translate(-155.8 -199.371)" opacity="0.1"/>
    <path id="Path_873" data-name="Path 873" d="M564.589,785.249s15.322-2.36,22.508,12.717a18.386,18.386,0,0,1-1.356,18.532c-2.382,3.363-5.9,5.868-10.779,3.83C564.137,815.862,564.589,785.249,564.589,785.249Z" transform="translate(-155.938 -199.077)" opacity="0.1"/>
    <path id="Path_874" data-name="Path 874" d="M564.589,785.879s15.322-2.36,22.508,12.717a18.386,18.386,0,0,1-1.356,18.532c-2.382,3.363-5.9,5.868-10.779,3.831C564.137,816.492,564.589,785.879,564.589,785.879Z" transform="translate(-155.938 -199.224)" fill="#f50057"/>
    <path id="Path_875" data-name="Path 875" d="M564.589,785.879s15.322-2.36,22.508,12.717a18.386,18.386,0,0,1-1.356,18.532c-2.382,3.363-5.9,5.868-10.779,3.831C564.137,816.492,564.589,785.879,564.589,785.879Z" transform="translate(-155.938 -199.224)" fill="#fff" opacity="0.5"/>
    <path id="Path_876" data-name="Path 876" d="M586.16,803.13s2.091,1.931,1.287,2.413S586.16,803.13,586.16,803.13Z" transform="translate(-160.985 -203.29)" fill="#3f2b3b"/>
    <path id="Path_877" data-name="Path 877" d="M582.925,806.35s1.141,2.521.329,2.8-1.295-1.808-1.295-1.808Z" transform="translate(-160.002 -204.044)" fill="#3f2b3b"/>
    <path id="Path_878" data-name="Path 878" d="M589.669,811.32s1.111,2.972,0,2.972S589.669,811.32,589.669,811.32Z" transform="translate(-161.69 -205.206)" fill="#3f2b3b"/>
    <path id="Path_879" data-name="Path 879" d="M589.159,821.71s-2.237,5.715-8.059,5.309" transform="translate(-159.801 -207.637)" fill="none" stroke="#3f2b3b" stroke-miterlimit="10" stroke-width="1"/>
    <path id="Path_880" data-name="Path 880" d="M583.326,823.91s-2.3,2.252-4.826.643" transform="translate(-159.193 -208.151)" fill="none" stroke="#3f2b3b" stroke-miterlimit="10" stroke-width="1"/>
    <path id="Path_881" data-name="Path 881" d="M553.2,842.446c.406-.077,8.044-3.378,15.919,0Z" transform="translate(-153.275 -212.132)" fill="#3f2b3b"/>
    <path id="Path_882" data-name="Path 882" d="M531.2,859.2c-7.14-1.065-12.257-3.1-12.694-6.68a20.69,20.69,0,0,1-.161-4.6,10.313,10.313,0,0,1,2.727-1c1.295-.36,2.9-.115,6.274.851s3.133,4.941,3.83,10.128A4.284,4.284,0,0,1,531.2,859.2Z" transform="translate(-145.107 -213.499)" opacity="0.1"/>
    <path id="Path_883" data-name="Path 883" d="M519.534,847.583s-9.285,1.7-4.259,9.714a3.425,3.425,0,0,0,1.716,1.417c.59.207,1.157.207,1.1-.636l4.106,4.7s8.2.965,7.477-4.221-.483-9.193-3.831-10.128S520.844,847.224,519.534,847.583Z" transform="translate(-144.055 -213.653)" fill="#0eb582"/>
    <path id="Path_884" data-name="Path 884" d="M524.18,854.67s1.969,4.5,4.7.72" transform="translate(-146.487 -215.346)" fill="#0eb582" stroke="#3f2b3b" stroke-miterlimit="10" stroke-width="1"/>
    <path id="Path_885" data-name="Path 885" d="M518.28,857s1.019,4.259,4.88,1.088" transform="translate(-145.107 -215.891)" fill="none" stroke="#3f2b3b" stroke-miterlimit="10" stroke-width="1"/>
    <path id="Path_886" data-name="Path 886" d="M602.419,846.877h0c-.306,4.244-1.126,11.055-1.126,11.055s-3.409.414-8.68.889a4.456,4.456,0,0,1,0-.889c.72-5.186.483-9.193,3.83-10.128C599.585,846.953,601.186,846.639,602.419,846.877Z" transform="translate(-162.489 -213.505)" opacity="0.1"/>
    <path id="Path_887" data-name="Path 887" d="M603.414,847.583s9.293,1.7,4.267,9.714a3.456,3.456,0,0,1-1.716,1.417c-.59.207-1.164.207-1.1-.636l-4.1,4.7s-8.2.965-7.477-4.221.483-9.193,3.83-10.128S602.127,847.224,603.414,847.583Z" transform="translate(-162.641 -213.653)" fill="#0eb582"/>
    <path id="Path_888" data-name="Path 888" d="M602.2,854.67s-1.977,4.5-4.7.72" transform="translate(-163.637 -215.346)" fill="none" stroke="#3f2b3b" stroke-miterlimit="10" stroke-width="1"/>
    <path id="Path_889" data-name="Path 889" d="M608.048,857s-1.027,4.259-4.888,1.088" transform="translate(-164.961 -215.891)" fill="none" stroke="#3f2b3b" stroke-miterlimit="10" stroke-width="1"/>
    <path id="Path_890" data-name="Path 890" d="M547.849,858.9c-3.11-.069-6.129-.23-8.925-.506l-2.781-9.362a6.076,6.076,0,0,1-.253-1.708,5.96,5.96,0,0,1,11.913-.038C547.833,850.938,547.864,855.557,547.849,858.9Z" transform="translate(-149.226 -212.28)" opacity="0.1"/>
    <path id="Path_891" data-name="Path 891" d="M535.273,848.976l3.279,11.047s-5.577-.123-4.053,3.378c0,0,1.4,1.325,1.885.843,0,0-.728,2.3,2.168,2.3,0,0,3.126,1.693,4.336.483s3.746-3.018,3.991-3.739c.153-.475.107-9.714.054-16.088a5.945,5.945,0,0,0-5.953-5.9h0a5.952,5.952,0,0,0-5.707,7.676Z" transform="translate(-148.839 -212.219)" fill="#0eb582"/>
    <path id="Path_892" data-name="Path 892" d="M540.9,869.47s-2.436,2.3-1.149,3.654" transform="translate(-150.042 -218.808)" fill="none" stroke="#3f2b3b" stroke-miterlimit="10" stroke-width="1"/>
    <path id="Path_893" data-name="Path 893" d="M539.312,867.56s-2.252.766-2.252,2.827" transform="translate(-149.5 -218.361)" fill="none" stroke="#3f2b3b" stroke-miterlimit="10" stroke-width="1"/>
    <path id="Path_894" data-name="Path 894" d="M588.07,847.267a6.056,6.056,0,0,1-.245,1.708l-2.6,8.863c-2.743.222-5.822.437-9.078.621,0-3.31,0-7.715.054-11.231a5.953,5.953,0,0,1,11.905.038Z" transform="translate(-158.643 -212.218)" opacity="0.1"/>
    <path id="Path_895" data-name="Path 895" d="M588.427,848.976l-3.279,11.047s5.585-.123,4.06,3.378c0,0-1.4,1.325-1.885.843,0,0,.72,2.3-2.176,2.3,0,0-3.126,1.693-4.336.483s-3.738-3.018-3.984-3.739c-.153-.475-.107-9.714-.054-16.088a5.945,5.945,0,0,1,5.953-5.9h0a5.952,5.952,0,0,1,5.7,7.676Z" transform="translate(-158.777 -212.219)" fill="#0eb582"/>
    <path id="Path_896" data-name="Path 896" d="M586.23,869.47s2.436,2.3,1.149,3.654" transform="translate(-161.001 -218.808)" fill="none" stroke="#3f2b3b" stroke-miterlimit="10" stroke-width="1"/>
    <path id="Path_897" data-name="Path 897" d="M587.63,867.56s2.252.766,2.252,2.827" transform="translate(-161.328 -218.361)" fill="none" stroke="#3f2b3b" stroke-miterlimit="10" stroke-width="1"/>
    <path id="Path_898" data-name="Path 898" d="M557.244,782.769s-11.346-.36-11.706,8.427,17.727,5.064,17.727,5.064,7.6-1.019,6.274-6.358S565.449,783.252,557.244,782.769Z" transform="translate(-151.481 -198.527)" opacity="0.1"/>
    <path id="Path_899" data-name="Path 899" d="M557.244,781.51s-11.346-.36-11.706,8.427S563.266,795,563.266,795s7.6-1.019,6.274-6.359S565.449,781.992,557.244,781.51Z" transform="translate(-151.481 -198.233)" opacity="0.1"/>
    <path id="Path_900" data-name="Path 900" d="M557.244,782.139s-11.346-.36-11.706,8.427,17.727,5.064,17.727,5.064,7.6-1.019,6.274-6.359S565.449,782.622,557.244,782.139Z" transform="translate(-151.481 -198.38)" fill="#3f2b3b"/>
    <path id="Path_901" data-name="Path 901" d="M527.78,839.92s3.831,1.364,4.6,3.976" transform="translate(-147.329 -211.896)" opacity="0.1"/>
    <path id="Path_902" data-name="Path 902" d="M597.505,837.4s-2.72,1.141-2.528,5.907" transform="translate(-163.045 -211.307)" opacity="0.1"/>
    <ellipse id="Ellipse_351" data-name="Ellipse 351" cx="1.776" cy="2.944" rx="1.776" ry="2.944" transform="translate(379.056 646.272) rotate(-29.887)" fill="#f50057"/>
    <ellipse id="Ellipse_352" data-name="Ellipse 352" cx="2.934" cy="1.77" rx="2.934" ry="1.77" transform="translate(432.975 646.964) rotate(-60)" fill="#f50057"/>
    <ellipse id="Ellipse_353" data-name="Ellipse 353" cx="1.776" cy="2.944" rx="1.776" ry="2.944" transform="translate(379.056 646.272) rotate(-29.887)" fill="#fff" opacity="0.5"/>
    <ellipse id="Ellipse_354" data-name="Ellipse 354" cx="2.934" cy="1.77" rx="2.934" ry="1.77" transform="translate(432.975 646.964) rotate(-60)" fill="#fff" opacity="0.5"/>
    <ellipse id="Ellipse_355" data-name="Ellipse 355" cx="20.631" cy="3.486" rx="20.631" ry="3.486" transform="translate(126.915 545.08)" fill="#f50057" opacity="0.1"/>
    <ellipse id="Ellipse_356" data-name="Ellipse 356" cx="20.631" cy="3.486" rx="20.631" ry="3.486" transform="translate(45.64 594.515)" fill="#f50057" opacity="0.1"/>
    <ellipse id="Ellipse_357" data-name="Ellipse 357" cx="30.804" cy="5.209" rx="30.804" ry="5.209" transform="translate(13.986 548.565)" fill="#7b74ff"/>
    <path id="Path_903" data-name="Path 903" d="M72.073,727.546a8.91,8.91,0,0,1-2.942-4.428c-.375-1.762.375-3.869,2.053-4.512,1.885-.72,3.9.582,5.424,1.9s3.279,2.827,5.278,2.551a8.036,8.036,0,0,1-2.482-7.523A3.064,3.064,0,0,1,80.094,714c1.042-1.118,2.942-.636,4.2.245,3.976,2.8,5.094,8.212,5.11,13.085.406-1.762.069-3.585.077-5.363s.506-3.83,2.022-4.765a6.13,6.13,0,0,1,3.064-.766c1.793-.061,3.784.115,5.01,1.425,1.532,1.624,1.126,4.359-.2,6.129s-3.332,2.911-5.179,4.152a11.429,11.429,0,0,0-3.708,3.532,3.616,3.616,0,0,0-.276.628H79.021a30.978,30.978,0,0,1-6.948-4.757Z" transform="translate(-40.023 -182.29)" fill="#0eb582"/>
    <ellipse id="Ellipse_358" data-name="Ellipse 358" cx="20.631" cy="3.486" rx="20.631" ry="3.486" transform="translate(768.306 574.237)" fill="#f50057" opacity="0.1"/>
    <path id="Path_904" data-name="Path 904" d="M1042.91,751.169s11.767-.36,15.322-2.888,18.095-5.539,18.976-1.486,17.689,20.141,4.4,20.248-30.866-2.068-34.405-4.229S1042.91,751.169,1042.91,751.169Z" transform="translate(-267.824 -189.649)" fill="#a8a8a8"/>
    <path id="Path_905" data-name="Path 905" d="M1081.835,767.579c-13.284.107-30.866-2.069-34.4-4.229-2.7-1.64-3.769-7.531-4.129-10.25h-.391s.766,9.492,4.282,11.644,21.121,4.336,34.405,4.229c3.83,0,5.163-1.394,5.087-3.417C1086.156,766.813,1084.692,767.579,1081.835,767.579Z" transform="translate(-267.824 -191.588)" opacity="0.2"/>
  </g>
</svg>
